<svg width="48" height="48" viewBox="0 0 48 48" fill="none" xmlns="http://www.w3.org/2000/svg">
<circle cx="24" cy="24" r="16" fill="#0036DB"/>
<circle cx="24" cy="24" r="13" fill="url(#paint0_linear)"/>
<rect x="15.1486" y="13.527" width="28.6596" height="3" transform="rotate(45 15.1486 13.527)" fill="#0036DB"/>
<path fill-rule="evenodd" clip-rule="evenodd" d="M23 18H16V25V27V30H18V27H21V30H23V18ZM21 25V20H18V25H21Z" fill="url(#paint1_linear)"/>
<path fill-rule="evenodd" clip-rule="evenodd" d="M25 18H30.4142L32 19.5858V28.4142L30.4142 30H25V18ZM27 20V28H29.5858L30 27.5858V20.4142L29.5858 20H27Z" fill="url(#paint2_linear)"/>
<rect x="14.1167" y="12.4951" width="4.44431" height="3" transform="rotate(45 14.1167 12.4951)" fill="#0036DB"/>
<defs>
<linearGradient id="paint0_linear" x1="17" y1="38.5" x2="32.8857" y2="12.929" gradientUnits="userSpaceOnUse">
<stop stop-color="#2049EE"/>
<stop offset="1" stop-color="#1271FF"/>
</linearGradient>
<linearGradient id="paint1_linear" x1="19.5" y1="18" x2="19.5" y2="30" gradientUnits="userSpaceOnUse">
<stop offset="0.333333" stop-color="white"/>
<stop offset="1" stop-color="white" stop-opacity="0.7"/>
</linearGradient>
<linearGradient id="paint2_linear" x1="28.5" y1="18" x2="28.5" y2="30" gradientUnits="userSpaceOnUse">
<stop offset="0.333333" stop-color="white"/>
<stop offset="1" stop-color="white" stop-opacity="0.7"/>
</linearGradient>
</defs>
</svg>
