<svg width="36" height="36" viewBox="0 0 36 36" fill="none" xmlns="http://www.w3.org/2000/svg">
<circle cx="18" cy="18" r="12" fill="#0036DB"/>
<circle cx="18" cy="18" r="9.75" fill="url(#paint0_linear)"/>
<rect x="11.3615" y="10.1453" width="21.4947" height="2.25" transform="rotate(45 11.3615 10.1453)" fill="#0036DB"/>
<path fill-rule="evenodd" clip-rule="evenodd" d="M17.25 13.5H12V18.75V20.25V22.5H13.5V20.25H15.75V22.5H17.25V13.5ZM15.75 18.75V15H13.5V18.75H15.75Z" fill="url(#paint1_linear)"/>
<path fill-rule="evenodd" clip-rule="evenodd" d="M18.75 13.5H22.8107L24 14.6893V21.3107L22.8107 22.5H18.75V13.5ZM20.25 15V21H22.1893L22.5 20.6893V15.3107L22.1893 15H20.25Z" fill="url(#paint2_linear)"/>
<rect x="10.5875" y="9.37134" width="3.33323" height="2.25" transform="rotate(45 10.5875 9.37134)" fill="#0036DB"/>
<defs>
<linearGradient id="paint0_linear" x1="12.75" y1="28.875" x2="24.6643" y2="9.69675" gradientUnits="userSpaceOnUse">
<stop stop-color="#2049EE"/>
<stop offset="1" stop-color="#1271FF"/>
</linearGradient>
<linearGradient id="paint1_linear" x1="14.625" y1="13.5" x2="14.625" y2="22.5" gradientUnits="userSpaceOnUse">
<stop offset="0.333333" stop-color="white"/>
<stop offset="1" stop-color="white" stop-opacity="0.7"/>
</linearGradient>
<linearGradient id="paint2_linear" x1="21.375" y1="13.5" x2="21.375" y2="22.5" gradientUnits="userSpaceOnUse">
<stop offset="0.333333" stop-color="white"/>
<stop offset="1" stop-color="white" stop-opacity="0.7"/>
</linearGradient>
</defs>
</svg>
