<svg width="36" height="36" viewBox="0 0 36 36" fill="none" xmlns="http://www.w3.org/2000/svg">
<circle cx="18" cy="18" r="12" fill="#0099F7"/>
<circle cx="18" cy="18" r="9.75" fill="url(#paint0_linear)"/>
<path fill-rule="evenodd" clip-rule="evenodd" d="M16.0191 19.2591H20.25V19.2857L21.6419 20.1044C22.0663 20.3541 22.6014 20.048 22.6014 19.5556V17.4974C22.6014 17.2717 22.482 17.0629 22.2875 16.9485L20.625 15.9706V12.6836C20.625 12.4867 20.5339 12.3009 20.3782 12.1803L18.39 10.6398C18.1604 10.4619 17.8396 10.4619 17.61 10.6398L15.6218 12.1803C15.4661 12.3009 15.375 12.4867 15.375 12.6836V16.1289L13.9816 16.9485C13.7871 17.0629 13.6677 17.2717 13.6677 17.4974V19.5556C13.6677 20.048 14.2028 20.3541 14.6273 20.1044L16.0191 19.2857V19.2591ZM15.7509 19.838C15.7503 19.8578 15.7501 19.8776 15.7501 19.8975C15.7501 20.8772 16.3762 21.7106 17.2501 22.0195V23.25C17.2501 23.6642 17.5858 24 18.0001 24C18.4143 24 18.7501 23.6642 18.7501 23.25V22.0195C19.624 21.7106 20.2501 20.8772 20.2501 19.8975C20.2501 19.8776 20.2498 19.8578 20.2493 19.838H18.7492C18.7498 19.8503 18.7501 19.8626 18.7501 19.875C18.7501 20.2892 18.4143 20.625 18.0001 20.625C17.5858 20.625 17.2501 20.2892 17.2501 19.875C17.2501 19.8626 17.2504 19.8503 17.251 19.838H15.7509Z" fill="url(#paint1_linear)"/>
<path fill-rule="evenodd" clip-rule="evenodd" d="M11.3678 10.8531C9.45002 12.6336 8.25 15.1767 8.25 18C8.25 23.3848 12.6152 27.75 18 27.75C23.3848 27.75 27.75 23.3848 27.75 18C27.75 15.1767 26.55 12.6336 24.6322 10.8531L23.5706 11.9146C25.2174 13.4229 26.25 15.5909 26.25 18C26.25 22.5563 22.5563 26.25 18 26.25C13.4437 26.25 9.75 22.5563 9.75 18C9.75 15.5909 10.7826 13.423 12.4294 11.9147L11.3678 10.8531Z" fill="url(#paint2_linear)"/>
<defs>
<linearGradient id="paint0_linear" x1="18" y1="8.25" x2="18" y2="27.75" gradientUnits="userSpaceOnUse">
<stop stop-color="#1FCEFF"/>
<stop offset="1" stop-color="#11B2FF"/>
</linearGradient>
<linearGradient id="paint1_linear" x1="18.1346" y1="10.5064" x2="18.1346" y2="24" gradientUnits="userSpaceOnUse">
<stop offset="0.333333" stop-color="white"/>
<stop offset="1" stop-color="white" stop-opacity="0.7"/>
</linearGradient>
<linearGradient id="paint2_linear" x1="18" y1="10.8531" x2="18" y2="27.75" gradientUnits="userSpaceOnUse">
<stop offset="0.333333" stop-color="white"/>
<stop offset="1" stop-color="white" stop-opacity="0.7"/>
</linearGradient>
</defs>
</svg>
