<svg width="48" height="48" viewBox="0 0 48 48" fill="none" xmlns="http://www.w3.org/2000/svg">
<circle cx="24" cy="24" r="16" fill="#0099F7"/>
<circle cx="24" cy="24" r="13" fill="url(#paint0_linear)"/>
<path fill-rule="evenodd" clip-rule="evenodd" d="M21.3588 25.6789H27.0001V25.7143L28.8558 26.8059C29.4218 27.1388 30.1353 26.7307 30.1353 26.0741V23.3298C30.1353 23.029 29.976 22.7506 29.7167 22.598L27.5 21.2941V16.9115C27.5 16.6489 27.3785 16.4011 27.171 16.2403L24.52 14.1864C24.2139 13.9493 23.7861 13.9493 23.48 14.1864L20.829 16.2403C20.6215 16.4011 20.5 16.6489 20.5 16.9115V21.5052L18.6422 22.598C18.3829 22.7506 18.2236 23.029 18.2236 23.3298V26.0741C18.2236 26.7307 18.9371 27.1388 19.5031 26.8059L21.3588 25.7143V25.6789ZM21.0011 26.4507C21.0004 26.4771 21.0001 26.5035 21.0001 26.53C21.0001 27.8363 21.8349 28.9475 23.0001 29.3593V31C23.0001 31.5523 23.4478 32 24.0001 32C24.5524 32 25.0001 31.5523 25.0001 31V29.3593C26.1653 28.9475 27.0001 27.8363 27.0001 26.53C27.0001 26.5035 26.9997 26.4771 26.9991 26.4507H24.9989C24.9997 26.467 25.0001 26.4835 25.0001 26.5C25.0001 27.0523 24.5524 27.5 24.0001 27.5C23.4478 27.5 23.0001 27.0523 23.0001 26.5C23.0001 26.4835 23.0005 26.467 23.0013 26.4507H21.0011Z" fill="url(#paint1_linear)"/>
<path fill-rule="evenodd" clip-rule="evenodd" d="M15.1571 14.4708C12.6 16.8449 11 20.2356 11 24C11 31.1797 16.8203 37 24 37C31.1797 37 37 31.1797 37 24C37 20.2356 35.4 16.8449 32.8429 14.4708L31.4275 15.8862C33.6232 17.8973 35 20.7878 35 24C35 30.0751 30.0751 35 24 35C17.9249 35 13 30.0751 13 24C13 20.7878 14.3768 17.8973 16.5725 15.8862L15.1571 14.4708Z" fill="url(#paint2_linear)"/>
<defs>
<linearGradient id="paint0_linear" x1="24" y1="11" x2="24" y2="37" gradientUnits="userSpaceOnUse">
<stop stop-color="#1FCEFF"/>
<stop offset="1" stop-color="#11B2FF"/>
</linearGradient>
<linearGradient id="paint1_linear" x1="24.1794" y1="14.0085" x2="24.1794" y2="32" gradientUnits="userSpaceOnUse">
<stop offset="0.333333" stop-color="white"/>
<stop offset="1" stop-color="white" stop-opacity="0.7"/>
</linearGradient>
<linearGradient id="paint2_linear" x1="24" y1="14.4708" x2="24" y2="37" gradientUnits="userSpaceOnUse">
<stop offset="0.333333" stop-color="white"/>
<stop offset="1" stop-color="white" stop-opacity="0.7"/>
</linearGradient>
</defs>
</svg>
