<svg width="36" height="36" viewBox="0 0 36 36" fill="none" xmlns="http://www.w3.org/2000/svg">
<path d="M9 7.875H27C28.0355 7.875 28.875 8.71447 28.875 9.75V26.25C28.875 27.2855 28.0355 28.125 27 28.125H9C7.96447 28.125 7.125 27.2855 7.125 26.25V9.75C7.125 8.71447 7.96447 7.875 9 7.875Z" fill="#0036DB" stroke="#0036DB" stroke-width="0.75"/>
<path d="M8.25 12C8.25 11.5858 8.58579 11.25 9 11.25H27C27.4142 11.25 27.75 11.5858 27.75 12V26.25C27.75 26.6642 27.4142 27 27 27H9C8.58579 27 8.25 26.6642 8.25 26.25V12Z" fill="url(#paint0_linear)"/>
<rect x="20.25" y="9" width="1.5" height="1.5" fill="white"/>
<rect x="23.25" y="9" width="1.5" height="1.5" fill="white"/>
<rect x="26.25" y="9" width="1.5" height="1.5" fill="white"/>
<path fill-rule="evenodd" clip-rule="evenodd" d="M18 14.25C16.3431 14.25 15 15.5931 15 17.25V18C14.5858 18 14.25 18.3358 14.25 18.75V22.5C14.25 22.9142 14.5858 23.25 15 23.25H21C21.4142 23.25 21.75 22.9142 21.75 22.5V18.75C21.75 18.3358 21.4142 18 21 18V17.25C21 15.5931 19.6569 14.25 18 14.25ZM19.5 18V17.25C19.5 16.4216 18.8284 15.75 18 15.75C17.1716 15.75 16.5 16.4216 16.5 17.25V18H19.5Z" fill="url(#paint1_linear)"/>
<defs>
<linearGradient id="paint0_linear" x1="24.5" y1="27" x2="24.6787" y2="11.2479" gradientUnits="userSpaceOnUse">
<stop stop-color="#2049EE"/>
<stop offset="1" stop-color="#1271FF"/>
</linearGradient>
<linearGradient id="paint1_linear" x1="18" y1="14.25" x2="18" y2="23.25" gradientUnits="userSpaceOnUse">
<stop offset="0.333333" stop-color="white"/>
<stop offset="1" stop-color="white" stop-opacity="0.7"/>
</linearGradient>
</defs>
</svg>
