<svg width="48" height="48" viewBox="0 0 48 48" fill="none" xmlns="http://www.w3.org/2000/svg">
<path d="M9 13C9 11.3431 10.3431 10 12 10H36C37.6569 10 39 11.3431 39 13V35C39 36.6569 37.6569 38 36 38H12C10.3431 38 9 36.6569 9 35V13Z" fill="#0036DB"/>
<path d="M20 34H23V36H20V34Z" fill="white"/>
<path d="M25 34H27V36H25V34Z" fill="white"/>
<path d="M11 13C11 12.4477 11.4477 12 12 12H36C36.5523 12 37 12.4477 37 13V32C37 32.5523 36.5523 33 36 33H12C11.4477 33 11 32.5523 11 32V13Z" fill="url(#paint0_linear)"/>
<path fill-rule="evenodd" clip-rule="evenodd" d="M17 17H20.2381V19H19.072C19.1309 19.4922 19.236 20.0946 19.4208 20.6859C19.858 22.0851 20.5669 22.9683 21.7302 22.9683C22.8934 22.9683 23.6023 22.0851 24.0396 20.6859C24.2243 20.0946 24.3294 19.4922 24.3883 19H23.2222V17H26.4603L26.4603 18C26.4603 17.9996 26.4603 18 25.4603 18H26.4603L26.4603 18.0035L26.4603 18.0093L26.4602 18.0272C26.46 18.042 26.4597 18.0623 26.4592 18.0879C26.4581 18.1389 26.4561 18.211 26.452 18.301C26.444 18.4809 26.4281 18.7339 26.3967 19.0361C26.3342 19.6356 26.208 20.452 25.9485 21.2824C25.5293 22.6239 24.6365 24.3352 22.8155 24.8291C22.9046 25.3001 23.0687 25.81 23.3335 26.2514C23.7442 26.9359 24.3772 27.4445 25.4601 27.4445C26.5805 27.4445 27.4332 26.8952 28.0364 26.1412C28.4913 25.5726 28.7591 24.9419 28.8723 24.4537C28.6076 24.1832 28.4443 23.813 28.4443 23.4045C28.4443 22.5761 29.1159 21.9045 29.9443 21.9045C30.7728 21.9045 31.4443 22.5761 31.4443 23.4045C31.4443 23.8764 31.2265 24.2973 30.8859 24.5723C30.7427 25.4733 30.2982 26.5155 29.5982 27.3906C28.7093 28.5016 27.3239 29.4445 25.4601 29.4445C23.559 29.4445 22.3269 28.461 21.6185 27.2804C21.1469 26.4944 20.9012 25.6201 20.7955 24.8667C18.8727 24.4286 17.9424 22.6604 17.5118 21.2824C17.2523 20.452 17.1261 19.6356 17.0637 19.0361C17.0322 18.7339 17.0163 18.4809 17.0083 18.301C17.0043 18.211 17.0022 18.1389 17.0011 18.0879C17.0006 18.0623 17.0003 18.042 17.0002 18.0272L17 18.0093L17 18.0035L17 18.0015C17 18.0011 17 18 18 18H17V17Z" fill="url(#paint1_linear)"/>
<defs>
<linearGradient id="paint0_linear" x1="32.6667" y1="33" x2="32.905" y2="11.9972" gradientUnits="userSpaceOnUse">
<stop stop-color="#2049EE"/>
<stop offset="1" stop-color="#1271FF"/>
</linearGradient>
<linearGradient id="paint1_linear" x1="24.2222" y1="17" x2="24.2222" y2="29.4445" gradientUnits="userSpaceOnUse">
<stop offset="0.333333" stop-color="white"/>
<stop offset="1" stop-color="white" stop-opacity="0.7"/>
</linearGradient>
</defs>
</svg>
