<svg width="36" height="36" viewBox="0 0 36 36" fill="none" xmlns="http://www.w3.org/2000/svg">
<path d="M6.75 9.75C6.75 8.50736 7.75736 7.5 9 7.5H27C28.2426 7.5 29.25 8.50736 29.25 9.75V26.25C29.25 27.4926 28.2426 28.5 27 28.5H9C7.75736 28.5 6.75 27.4926 6.75 26.25V9.75Z" fill="#0036DB"/>
<path d="M15 25.5H17.25V27H15V25.5Z" fill="white"/>
<path d="M18.75 25.5H20.25V27H18.75V25.5Z" fill="white"/>
<path d="M8.25 9.75C8.25 9.33579 8.58579 9 9 9H27C27.4142 9 27.75 9.33579 27.75 9.75V24C27.75 24.4142 27.4142 24.75 27 24.75H9C8.58579 24.75 8.25 24.4142 8.25 24V9.75Z" fill="url(#paint0_linear)"/>
<path fill-rule="evenodd" clip-rule="evenodd" d="M12.75 12.75H15.1786V14.25H14.304C14.3482 14.6192 14.427 15.071 14.5656 15.5144C14.8935 16.5638 15.4252 17.2262 16.2976 17.2262C17.1701 17.2262 17.7017 16.5638 18.0297 15.5144C18.1682 15.071 18.247 14.6192 18.2912 14.25H17.4167V12.75H19.8452L19.8452 13.5C19.8452 13.4999 19.8452 13.4999 19.7516 13.4999H19.7515L19.0952 13.5H19.8452L19.8452 13.5027L19.8452 13.507L19.8451 13.5204L19.8444 13.5659C19.8436 13.6042 19.842 13.6582 19.839 13.7258C19.833 13.8607 19.8211 14.0505 19.7975 14.2771C19.7507 14.7267 19.656 15.339 19.4614 15.9618C19.147 16.9679 18.4774 18.2514 17.1116 18.6218C17.1784 18.9751 17.3015 19.3575 17.5001 19.6885C17.8082 20.2019 18.2829 20.5833 19.0951 20.5833C19.9353 20.5833 20.5749 20.1714 21.0273 19.6059C21.3684 19.1795 21.5693 18.7064 21.6543 18.3403C21.4557 18.1374 21.3333 17.8597 21.3333 17.5534C21.3333 16.9321 21.8369 16.4284 22.4583 16.4284C23.0796 16.4284 23.5833 16.9321 23.5833 17.5534C23.5833 17.9073 23.4199 18.223 23.1644 18.4292C23.057 19.105 22.7237 19.8866 22.1986 20.5429C21.532 21.3762 20.493 22.0833 19.0951 22.0833C17.6692 22.0833 16.7452 21.3457 16.2139 20.4603C15.8602 19.8708 15.6759 19.2151 15.5966 18.65C14.1545 18.3214 13.4568 16.9953 13.1338 15.9618C12.9392 15.339 12.8446 14.7267 12.7977 14.2771C12.7741 14.0505 12.7622 13.8607 12.7562 13.7258C12.7532 13.6582 12.7516 13.6042 12.7508 13.5659L12.7501 13.5204L12.75 13.507L12.75 13.5027L12.75 13.5011C12.75 13.5009 12.75 13.5 13.5 13.5H12.75V12.75Z" fill="url(#paint1_linear)"/>
<defs>
<linearGradient id="paint0_linear" x1="24.5" y1="24.75" x2="24.6787" y2="8.99793" gradientUnits="userSpaceOnUse">
<stop stop-color="#2049EE"/>
<stop offset="1" stop-color="#1271FF"/>
</linearGradient>
<linearGradient id="paint1_linear" x1="18.1666" y1="12.75" x2="18.1666" y2="22.0833" gradientUnits="userSpaceOnUse">
<stop offset="0.333333" stop-color="white"/>
<stop offset="1" stop-color="white" stop-opacity="0.7"/>
</linearGradient>
</defs>
</svg>
