<svg width="36" height="36" viewBox="0 0 36 36" fill="none" xmlns="http://www.w3.org/2000/svg">
<circle cx="18" cy="18" r="12" fill="#0099F7"/>
<circle cx="18" cy="18" r="9.75" fill="url(#paint0_linear)"/>
<path fill-rule="evenodd" clip-rule="evenodd" d="M26.25 18H27.75C27.75 12.6152 23.3848 8.25 18 8.25V9.75C22.5563 9.75 26.25 13.4437 26.25 18Z" fill="url(#paint1_linear)"/>
<path fill-rule="evenodd" clip-rule="evenodd" d="M18 9.75L18 8.25C12.6152 8.25 8.25 12.6152 8.25 18L9.75 18C9.75 13.4437 13.4436 9.75 18 9.75Z" fill="url(#paint2_linear)"/>
<path fill-rule="evenodd" clip-rule="evenodd" d="M9.75 18L8.25 18C8.25 23.3848 12.6152 27.75 18 27.75L18 26.25C13.4437 26.25 9.75 22.5564 9.75 18Z" fill="url(#paint3_linear)"/>
<path fill-rule="evenodd" clip-rule="evenodd" d="M18 26.25L18 27.75C23.3848 27.75 27.75 23.3848 27.75 18L26.25 18C26.25 22.5563 22.5563 26.25 18 26.25Z" fill="url(#paint4_linear)"/>
<path fill-rule="evenodd" clip-rule="evenodd" d="M15.2204 17.9258L18.2121 20.9175L18.1934 20.9362L18.5986 22.4993C18.7222 22.976 19.317 23.138 19.6653 22.7898L21.1206 21.3344C21.2802 21.1748 21.3434 20.9428 21.2868 20.7243L20.8027 18.8572L23.1268 16.533C23.2661 16.3938 23.3331 16.1979 23.3083 16.0026L22.9916 13.5074C22.9551 13.2193 22.7282 12.9925 22.4401 12.9559L19.9449 12.6392C19.7496 12.6145 19.5538 12.6814 19.4145 12.8207L16.9783 15.2569L15.4135 14.8512C15.1951 14.7945 14.963 14.8577 14.8035 15.0173L13.3481 16.4727C12.9999 16.8209 13.1619 17.4157 13.6386 17.5393L15.2016 17.9445L15.2204 17.9258ZM14.6213 18.1454C14.607 18.159 14.5928 18.1728 14.5787 18.1869C13.886 18.8796 13.7394 19.9117 14.1389 20.748L13.2687 21.6181C12.9759 21.911 12.9759 22.3859 13.2687 22.6788C13.5616 22.9717 14.0365 22.9717 14.3294 22.6788L15.1995 21.8087C16.0359 22.2082 17.068 22.0616 17.7607 21.3689C17.7748 21.3548 17.7886 21.3406 17.8022 21.3263L16.7415 20.2655C16.7332 20.2746 16.7247 20.2835 16.716 20.2923C16.4231 20.5852 15.9482 20.5852 15.6553 20.2923C15.3624 19.9994 15.3624 19.5245 15.6553 19.2316C15.6641 19.2229 15.673 19.2144 15.6821 19.2061L14.6213 18.1454Z" fill="url(#paint5_linear)"/>
<defs>
<linearGradient id="paint0_linear" x1="18" y1="8.25" x2="18" y2="27.75" gradientUnits="userSpaceOnUse">
<stop stop-color="#1FCEFF"/>
<stop offset="1" stop-color="#11B2FF"/>
</linearGradient>
<linearGradient id="paint1_linear" x1="18.375" y1="9" x2="27" y2="18" gradientUnits="userSpaceOnUse">
<stop stop-color="white"/>
<stop offset="1" stop-color="white" stop-opacity="0"/>
</linearGradient>
<linearGradient id="paint2_linear" x1="9" y1="17.625" x2="18" y2="9" gradientUnits="userSpaceOnUse">
<stop stop-color="white"/>
<stop offset="1" stop-color="white" stop-opacity="0"/>
</linearGradient>
<linearGradient id="paint3_linear" x1="17.625" y1="27" x2="9" y2="18" gradientUnits="userSpaceOnUse">
<stop stop-color="white"/>
<stop offset="1" stop-color="white" stop-opacity="0"/>
</linearGradient>
<linearGradient id="paint4_linear" x1="27" y1="18.375" x2="18" y2="27" gradientUnits="userSpaceOnUse">
<stop stop-color="white"/>
<stop offset="1" stop-color="white" stop-opacity="0"/>
</linearGradient>
<linearGradient id="paint5_linear" x1="22.9054" y1="13.2325" x2="13.364" y2="22.7739" gradientUnits="userSpaceOnUse">
<stop offset="0.333333" stop-color="white"/>
<stop offset="1" stop-color="white" stop-opacity="0.7"/>
</linearGradient>
</defs>
</svg>
