<svg width="36" height="36" viewBox="0 0 36 36" fill="none" xmlns="http://www.w3.org/2000/svg">
<path d="M16.8752 5.65894C17.5713 5.25702 18.429 5.25702 19.1252 5.65894L28.1253 10.8552C28.8215 11.2571 29.2503 11.9999 29.2503 12.8037V23.1962C29.2503 24.0001 28.8215 24.7429 28.1253 25.1448L19.1252 30.3411C18.429 30.743 17.5713 30.743 16.8752 30.3411L7.875 25.1448C7.17885 24.7429 6.75 24.0001 6.75 23.1962L6.75 12.8037C6.75 11.9999 7.17885 11.2571 7.875 10.8552L16.8752 5.65894Z" fill="#00AD5A"/>
<path d="M17.6251 6.95804C17.8572 6.82406 18.1431 6.82406 18.3751 6.95804L27.3752 12.1543C27.6073 12.2882 27.7502 12.5358 27.7502 12.8038V23.1962C27.7502 23.4642 27.6073 23.7118 27.3752 23.8457L18.3751 29.042C18.1431 29.1759 17.8572 29.1759 17.6251 29.042L8.625 23.8457C8.39295 23.7118 8.25 23.4642 8.25 23.1962L8.25 12.8038C8.25 12.5358 8.39295 12.2882 8.625 12.1543L17.6251 6.95804Z" fill="url(#paint0_linear)"/>
<path fill-rule="evenodd" clip-rule="evenodd" d="M20.2484 13.0469L18.4351 12V14.7885L12.75 18.0708V20.1593L12.7518 20.1625L14.6188 19.0856L20.5327 22.5L22.344 21.4542L22.3449 21.4526L20.2484 20.2421V13.0469ZM16.432 18.0387L18.4351 19.1952V16.8822L16.432 18.0387Z" fill="url(#paint1_linear)"/>
<path fill-rule="evenodd" clip-rule="evenodd" d="M18 27.4012L18.0001 27.4013L26.1419 22.7007V13.3475L27.6659 12.4766C27.7205 12.5862 27.7502 12.7085 27.7502 12.8351V23.1649C27.7502 23.4522 27.597 23.7177 27.3481 23.8614L18.4022 29.0263C18.2778 29.0982 18.1389 29.1341 18 29.1341V27.4012Z" fill="url(#paint2_linear)"/>
<path fill-rule="evenodd" clip-rule="evenodd" d="M18 27.4012L17.9999 27.4013L9.85812 22.7007V13.3475L8.33407 12.4766C8.27951 12.5862 8.24977 12.7085 8.24977 12.8351V23.1649C8.24977 23.4522 8.40304 23.7177 8.65185 23.8614L17.5978 29.0263C17.7222 29.0982 17.8611 29.1341 18 29.1341V27.4012Z" fill="url(#paint3_linear)"/>
<path d="M26.1428 13.2885L18.0011 8.58776L9.901 13.2643L8.38477 12.3799C8.45236 12.2779 8.54343 12.191 8.65304 12.1277L17.599 6.96274C17.8478 6.81909 18.1543 6.81909 18.4032 6.96274L27.3491 12.1277C27.4735 12.1995 27.5741 12.3018 27.6435 12.4221L26.1428 13.2885Z" fill="url(#paint4_linear)"/>
<defs>
<linearGradient id="paint0_linear" x1="18.0001" y1="5.90757" x2="18.0001" y2="29.2585" gradientUnits="userSpaceOnUse">
<stop stop-color="#11D96A"/>
<stop offset="1" stop-color="#00BE63"/>
</linearGradient>
<linearGradient id="paint1_linear" x1="17.5475" y1="12" x2="17.5475" y2="22.5" gradientUnits="userSpaceOnUse">
<stop offset="0.333333" stop-color="white"/>
<stop offset="1" stop-color="white" stop-opacity="0.7"/>
</linearGradient>
<linearGradient id="paint2_linear" x1="26.625" y1="12.75" x2="18.75" y2="28.125" gradientUnits="userSpaceOnUse">
<stop stop-color="white"/>
<stop offset="1" stop-color="white" stop-opacity="0"/>
</linearGradient>
<linearGradient id="paint3_linear" x1="9.375" y1="12.75" x2="17.25" y2="28.125" gradientUnits="userSpaceOnUse">
<stop stop-color="white" stop-opacity="0"/>
<stop offset="1" stop-color="white"/>
</linearGradient>
<linearGradient id="paint4_linear" x1="9.41767" y1="13.1733" x2="26.6703" y2="12.3057" gradientUnits="userSpaceOnUse">
<stop stop-color="white"/>
<stop offset="1" stop-color="white" stop-opacity="0"/>
</linearGradient>
</defs>
</svg>
