<svg width="48" height="48" viewBox="0 0 48 48" fill="none" xmlns="http://www.w3.org/2000/svg">
<circle cx="24" cy="24" r="16" fill="#0099F7"/>
<circle cx="24" cy="24" r="13" fill="url(#paint0_linear)"/>
<path fill-rule="evenodd" clip-rule="evenodd" d="M35 24H37C37 23.9983 37 23.9966 37 23.995C36.9973 16.8176 31.178 11 24 11V13C30.0751 13 35 17.9249 35 24Z" fill="url(#paint1_linear)"/>
<path fill-rule="evenodd" clip-rule="evenodd" d="M24 13L24 11C23.9983 11 23.9966 11 23.995 11C16.8176 11.0027 11 16.822 11 24L13 24C13 17.9249 17.9249 13 24 13Z" fill="url(#paint2_linear)"/>
<path fill-rule="evenodd" clip-rule="evenodd" d="M13 24L11 24C11 24.0017 11 24.0034 11 24.005C11.0027 31.1824 16.822 37 24 37L24 35C17.9249 35 13 30.0751 13 24Z" fill="url(#paint3_linear)"/>
<path fill-rule="evenodd" clip-rule="evenodd" d="M24 35L24 37C24.0017 37 24.0034 37 24.005 37C31.1824 36.9973 37 31.178 37 24L35 24C35 30.0751 30.0751 35 24 35Z" fill="url(#paint4_linear)"/>
<path fill-rule="evenodd" clip-rule="evenodd" d="M20.2939 23.901L24.2828 27.89L24.2578 27.915L24.7981 29.9991C24.9629 30.6347 25.7559 30.8507 26.2203 30.3864L28.1608 28.4459C28.3735 28.2331 28.4578 27.9237 28.3823 27.6325L27.7368 25.143L30.8358 22.044C31.0215 21.8584 31.1108 21.5973 31.0777 21.3368L30.6555 18.0099C30.6068 17.6258 30.3043 17.3233 29.9202 17.2745L26.5933 16.8523C26.3328 16.8193 26.0717 16.9086 25.8861 17.0943L22.6378 20.3425L20.5514 19.8016C20.2601 19.7261 19.9507 19.8103 19.738 20.0231L17.7975 21.9636C17.3332 22.4279 17.5491 23.2209 18.1847 23.3857L20.2688 23.9261L20.2939 23.901ZM19.4951 24.1938C19.476 24.212 19.4571 24.2305 19.4383 24.2492C18.5147 25.1729 18.3192 26.5489 18.8519 27.6641L17.6918 28.8242C17.3013 29.2147 17.3013 29.8479 17.6918 30.2384C18.0823 30.6289 18.7155 30.6289 19.106 30.2384L20.2661 29.0783C21.3813 29.611 22.7573 29.4155 23.681 28.4919C23.6997 28.4731 23.7182 28.4542 23.7363 28.435L22.322 27.0207C22.311 27.0328 22.2997 27.0447 22.288 27.0564C21.8975 27.4469 21.2643 27.4469 20.8738 27.0564C20.4832 26.6659 20.4832 26.0327 20.8738 25.6422C20.8855 25.6305 20.8974 25.6192 20.9095 25.6082L19.4951 24.1938Z" fill="url(#paint5_linear)"/>
<defs>
<linearGradient id="paint0_linear" x1="24" y1="11" x2="24" y2="37" gradientUnits="userSpaceOnUse">
<stop stop-color="#1FCEFF"/>
<stop offset="1" stop-color="#11B2FF"/>
</linearGradient>
<linearGradient id="paint1_linear" x1="24.5" y1="12" x2="36" y2="24" gradientUnits="userSpaceOnUse">
<stop stop-color="white"/>
<stop offset="1" stop-color="white" stop-opacity="0"/>
</linearGradient>
<linearGradient id="paint2_linear" x1="12" y1="23.5" x2="24" y2="12" gradientUnits="userSpaceOnUse">
<stop stop-color="white"/>
<stop offset="1" stop-color="white" stop-opacity="0"/>
</linearGradient>
<linearGradient id="paint3_linear" x1="23.5" y1="36" x2="12" y2="24" gradientUnits="userSpaceOnUse">
<stop stop-color="white"/>
<stop offset="1" stop-color="white" stop-opacity="0"/>
</linearGradient>
<linearGradient id="paint4_linear" x1="36" y1="24.5" x2="24" y2="36" gradientUnits="userSpaceOnUse">
<stop stop-color="white"/>
<stop offset="1" stop-color="white" stop-opacity="0"/>
</linearGradient>
<linearGradient id="paint5_linear" x1="30.5405" y1="17.6433" x2="17.8186" y2="30.3652" gradientUnits="userSpaceOnUse">
<stop offset="0.333333" stop-color="white"/>
<stop offset="1" stop-color="white" stop-opacity="0.7"/>
</linearGradient>
</defs>
</svg>
