<svg width="36" height="36" viewBox="0 0 36 36" fill="none" xmlns="http://www.w3.org/2000/svg">
<path d="M15 24H21V27.75H15V24Z" fill="#C270FF"/>
<path d="M12 30H24V30C24 28.7574 22.9926 27.75 21.75 27.75H14.25C13.0074 27.75 12 28.7574 12 30V30Z" fill="#892EFF"/>
<path d="M6 8.25C6 7.42157 6.67157 6.75 7.5 6.75H28.5C29.3284 6.75 30 7.42157 30 8.25V22.5C30 23.3284 29.3284 24 28.5 24H7.5C6.67157 24 6 23.3284 6 22.5V8.25Z" fill="#892EFF"/>
<rect x="7.5" y="21.75" width="2.25" height="0.75" fill="white"/>
<path d="M7.5 8.25H28.5V21H7.5V8.25Z" fill="url(#paint0_linear)"/>
<path fill-rule="evenodd" clip-rule="evenodd" d="M28.5 12.75V8.25H24C24 10.7353 26.0147 12.75 28.5 12.75ZM25.7353 21H7.5V17.9781L11.6674 13.8107C12.2532 13.2249 13.2029 13.2249 13.7887 13.8107L17.8714 17.8933L19.1894 16.5754C19.7752 15.9896 20.7249 15.9896 21.3107 16.5754L25.7353 21Z" fill="url(#paint1_linear)"/>
<defs>
<linearGradient id="paint0_linear" x1="20.625" y1="21" x2="20.625" y2="8.25" gradientUnits="userSpaceOnUse">
<stop stop-color="#A64CFF"/>
<stop offset="1" stop-color="#C270FF"/>
</linearGradient>
<linearGradient id="paint1_linear" x1="18" y1="8.25" x2="18" y2="21" gradientUnits="userSpaceOnUse">
<stop offset="0.333333" stop-color="white"/>
<stop offset="1" stop-color="white" stop-opacity="0.7"/>
</linearGradient>
</defs>
</svg>
