<svg width="48" height="48" viewBox="0 0 48 48" fill="none" xmlns="http://www.w3.org/2000/svg">
<path d="M20 32H28V37H20V32Z" fill="#C270FF"/>
<path d="M16 40H32C32 38.3431 30.6569 37 29 37H19C17.3431 37 16 38.3431 16 40Z" fill="#892EFF"/>
<path d="M8 11C8 9.89543 8.89543 9 10 9H38C39.1046 9 40 9.89543 40 11V30C40 31.1046 39.1046 32 38 32H10C8.89543 32 8 31.1046 8 30V11Z" fill="#892EFF"/>
<rect x="10" y="29" width="3" height="1" fill="white"/>
<path d="M10 11H38V28H10V11Z" fill="url(#paint0_linear)"/>
<path fill-rule="evenodd" clip-rule="evenodd" d="M38 17L38 11H32C32 14.3137 34.6863 17 38 17ZM34.3137 28H10V23.9707L15.5565 18.4142C16.3376 17.6332 17.6039 17.6332 18.385 18.4142L23.8285 23.8578L25.5858 22.1005C26.3668 21.3194 27.6332 21.3194 28.4142 22.1005L34.3137 28Z" fill="url(#paint1_linear)"/>
<defs>
<linearGradient id="paint0_linear" x1="27.5" y1="28" x2="27.5" y2="11" gradientUnits="userSpaceOnUse">
<stop stop-color="#A64CFF"/>
<stop offset="1" stop-color="#C270FF"/>
</linearGradient>
<linearGradient id="paint1_linear" x1="24" y1="11" x2="24" y2="28" gradientUnits="userSpaceOnUse">
<stop offset="0.333333" stop-color="white"/>
<stop offset="1" stop-color="white" stop-opacity="0.7"/>
</linearGradient>
</defs>
</svg>
