<svg width="36" height="36" viewBox="0 0 36 36" fill="none" xmlns="http://www.w3.org/2000/svg">
<path d="M13.5 7.125C13.5 6.29657 14.1716 5.625 15 5.625H21C21.8284 5.625 22.5 6.29657 22.5 7.125V10.125H13.5V7.125Z" stroke="#00AD5A" stroke-width="1.5"/>
<rect x="6.75" y="8.25" width="22.5" height="3" rx="0.75" fill="#11D96A"/>
<path d="M8.25 11.25H27.75L27.0576 28.56C27.0254 29.3644 26.3639 30 25.5588 30H10.4412C9.6361 30 8.97458 29.3644 8.9424 28.56L8.25 11.25Z" fill="url(#paint0_linear)"/>
<mask id="mask0" mask-type="alpha" maskUnits="userSpaceOnUse" x="8" y="11" width="20" height="19">
<path d="M8.25 11.25H27.75L27.0576 28.56C27.0254 29.3644 26.3639 30 25.5588 30H10.4412C9.6361 30 8.97458 29.3644 8.9424 28.56L8.25 11.25Z" fill="url(#paint1_linear)"/>
</mask>
<g mask="url(#mask0)">
<rect width="19.5" height="0.75" transform="matrix(-1 0 0 1 27.75 11.25)" fill="#00AD5A"/>
</g>
<path opacity="0.6" d="M10.875 13.5H15.75V27.75H11.25L10.875 13.5Z" fill="#00AD5A"/>
<path opacity="0.6" d="M20.25 13.5H25.125L24.75 27.75H20.25V13.5Z" fill="#00AD5A"/>
<path fill-rule="evenodd" clip-rule="evenodd" d="M17.2506 21.4399L14.7804 18.9696L13.7197 20.0303L18.0002 24.3108L22.2807 20.0303L21.2201 18.9696L18.7506 21.4391V15.6969H17.2506V21.4399Z" fill="url(#paint2_linear)"/>
<defs>
<linearGradient id="paint0_linear" x1="18" y1="10.5556" x2="18" y2="30" gradientUnits="userSpaceOnUse">
<stop stop-color="#11D96A"/>
<stop offset="1" stop-color="#00BE63"/>
</linearGradient>
<linearGradient id="paint1_linear" x1="18" y1="10.5556" x2="18" y2="30" gradientUnits="userSpaceOnUse">
<stop stop-color="#11D96A"/>
<stop offset="1" stop-color="#00BE63"/>
</linearGradient>
<linearGradient id="paint2_linear" x1="18.0002" y1="15.6969" x2="18.0002" y2="24.3108" gradientUnits="userSpaceOnUse">
<stop stop-color="white" stop-opacity="0.7"/>
<stop offset="0.648641" stop-color="white"/>
</linearGradient>
</defs>
</svg>
