<svg width="36" height="36" viewBox="0 0 36 36" fill="none" xmlns="http://www.w3.org/2000/svg">
<path fill-rule="evenodd" clip-rule="evenodd" d="M6.44046 10.9147C6.49613 8.5986 8.38968 6.75 10.7065 6.75H11.9716C12.9656 6.75 13.8141 7.37309 14.1478 8.25H21.665C21.9986 7.37309 22.8471 6.75 23.8411 6.75H25.1407C27.4437 6.75 29.3313 8.57746 29.4057 10.8793L29.9101 26.4727C29.9592 27.9918 28.7411 29.25 27.2212 29.25C26.1177 29.25 25.126 28.5761 24.7198 27.55L22.4235 21.75H13.5034L11.0845 27.6333C10.6824 28.6115 9.72946 29.25 8.67188 29.25C7.20663 29.25 6.0288 28.0435 6.064 26.5787L6.44046 10.9147Z" fill="#0099F7"/>
<path fill-rule="evenodd" clip-rule="evenodd" d="M7.26945 11.9957C7.33379 10.3229 8.70854 9 10.3825 9H12.2914C13.2433 9 14.0474 9.63242 14.3066 10.5H21.6932C21.9524 9.63242 22.7565 9 23.7084 9H25.6166C27.2905 9 28.6653 10.3228 28.7297 11.9955L29.2942 26.6584C29.3486 28.0733 28.2164 29.25 26.8005 29.25C25.7975 29.25 24.892 28.6496 24.5017 27.7257L21.977 21.75H14.0228L11.4981 27.7256C11.1078 28.6495 10.2022 29.25 9.19925 29.25C7.78335 29.25 6.65108 28.0733 6.7055 26.6585L7.26945 11.9957Z" fill="url(#paint0_linear)"/>
<path fill-rule="evenodd" clip-rule="evenodd" d="M17.0978 16.2391C17.6324 15.8382 18.3674 15.8382 18.902 16.2391L21.4499 18.15L20.5499 19.35L18.002 17.4391C18.0008 17.4382 17.9991 17.4382 17.9978 17.4391L15.4499 19.35L14.5499 18.15L17.0978 16.2391Z" fill="url(#paint1_linear)"/>
<path fill-rule="evenodd" clip-rule="evenodd" d="M17.0978 11.7391C17.6324 11.3382 18.3674 11.3382 18.902 11.7391L21.4499 13.65L20.5499 14.85L18.002 12.9391C18.0008 12.9382 17.9991 12.9382 17.9978 12.9391L15.4499 14.85L14.5499 13.65L17.0978 11.7391Z" fill="url(#paint2_linear)"/>
<path fill-rule="evenodd" clip-rule="evenodd" d="M10.4067 15.75V17.25H11.9067V15.75H13.4067V14.25H11.9067V12.75H10.4067V14.25H8.90674V15.75H10.4067Z" fill="#0099F7"/>
<circle cx="24.657" cy="13.5" r="0.75" fill="#0099F7"/>
<circle cx="26.157" cy="15" r="0.75" fill="#0099F7"/>
<circle cx="23.157" cy="15" r="0.75" fill="#0099F7"/>
<circle cx="24.657" cy="16.5" r="0.75" fill="#0099F7"/>
<defs>
<linearGradient id="paint0_linear" x1="17.9999" y1="9" x2="17.9999" y2="29.25" gradientUnits="userSpaceOnUse">
<stop stop-color="#1FCEFF"/>
<stop offset="1" stop-color="#11B2FF"/>
</linearGradient>
<linearGradient id="paint1_linear" x1="17.9999" y1="11.4384" x2="17.9999" y2="19.35" gradientUnits="userSpaceOnUse">
<stop offset="0.333333" stop-color="white"/>
<stop offset="1" stop-color="white" stop-opacity="0.7"/>
</linearGradient>
<linearGradient id="paint2_linear" x1="17.9999" y1="11.4384" x2="17.9999" y2="19.35" gradientUnits="userSpaceOnUse">
<stop offset="0.333333" stop-color="white"/>
<stop offset="1" stop-color="white" stop-opacity="0.7"/>
</linearGradient>
</defs>
</svg>
