<svg width="48" height="48" viewBox="0 0 48 48" fill="none" xmlns="http://www.w3.org/2000/svg">
<path fill-rule="evenodd" clip-rule="evenodd" d="M8.58735 14.553C8.66157 11.4648 11.1863 9 14.2754 9H15.9622C17.2875 9 18.4188 9.83079 18.8637 11H28.8867C29.3316 9.83079 30.4629 9 31.7882 9H33.521C36.5917 9 39.1084 11.4366 39.2077 14.5057L39.8802 35.297C39.9457 37.3225 38.3215 39 36.295 39C34.8236 39 33.5015 38.1014 32.9598 36.7334L29.8981 29H18.0046L14.7795 36.8444C14.2433 38.1486 12.9727 39 11.5626 39C9.60891 39 8.03847 37.3914 8.08541 35.4383L8.58735 14.553Z" fill="#0099F7"/>
<path fill-rule="evenodd" clip-rule="evenodd" d="M9.69271 15.9942C9.7785 13.7639 11.6115 12 13.8435 12H16.3886C17.6578 12 18.73 12.8432 19.0756 14H28.9244C29.27 12.8432 30.3422 12 31.6113 12H34.1556C36.3875 12 38.2205 13.7638 38.3064 15.994L39.0591 35.5446C39.1317 37.4311 37.622 39 35.7341 39C34.3969 39 33.1895 38.1994 32.6691 36.9676L29.3028 29H18.6972L15.3309 36.9675C14.8105 38.1994 13.6031 39 12.2658 39C10.3779 39 8.86822 37.4311 8.94077 35.5446L9.69271 15.9942Z" fill="url(#paint0_linear)"/>
<path fill-rule="evenodd" clip-rule="evenodd" d="M22.7971 21.6522C23.5099 21.1176 24.4899 21.1176 25.2027 21.6522L28.5999 24.2001L27.3999 25.8001L24.0027 23.2522C24.001 23.2509 23.9988 23.2509 23.9971 23.2522L20.5999 25.8001L19.3999 24.2001L22.7971 21.6522Z" fill="url(#paint1_linear)"/>
<path fill-rule="evenodd" clip-rule="evenodd" d="M22.7971 15.6522C23.5099 15.1176 24.4899 15.1176 25.2027 15.6522L28.5999 18.2001L27.3999 19.8001L24.0027 17.2522C24.001 17.2509 23.9988 17.2509 23.9971 17.2522L20.5999 19.8001L19.3999 18.2001L22.7971 15.6522Z" fill="url(#paint2_linear)"/>
<path fill-rule="evenodd" clip-rule="evenodd" d="M13.8758 21V23H15.8758V21H17.8758V19H15.8758V17H13.8758V19H11.8758V21H13.8758Z" fill="#0099F7"/>
<circle cx="32.876" cy="18" r="1" fill="#0099F7"/>
<circle cx="34.876" cy="20" r="1" fill="#0099F7"/>
<circle cx="30.876" cy="20" r="1" fill="#0099F7"/>
<circle cx="32.876" cy="22" r="1" fill="#0099F7"/>
<defs>
<linearGradient id="paint0_linear" x1="23.9999" y1="12" x2="23.9999" y2="39" gradientUnits="userSpaceOnUse">
<stop stop-color="#1FCEFF"/>
<stop offset="1" stop-color="#11B2FF"/>
</linearGradient>
<linearGradient id="paint1_linear" x1="23.9999" y1="15.2512" x2="23.9999" y2="25.8001" gradientUnits="userSpaceOnUse">
<stop offset="0.333333" stop-color="white"/>
<stop offset="1" stop-color="white" stop-opacity="0.7"/>
</linearGradient>
<linearGradient id="paint2_linear" x1="23.9999" y1="15.2512" x2="23.9999" y2="25.8001" gradientUnits="userSpaceOnUse">
<stop offset="0.333333" stop-color="white"/>
<stop offset="1" stop-color="white" stop-opacity="0.7"/>
</linearGradient>
</defs>
</svg>
