<svg width="48" height="48" viewBox="0 0 48 48" fill="none" xmlns="http://www.w3.org/2000/svg">
<path d="M22.4998 7.54526C23.428 7.00936 24.5716 7.00936 25.4998 7.54526L37.5 14.4736C38.4282 15.0095 39 15.9999 39 17.0717V30.9283C39 32.0001 38.4282 32.9905 37.5 33.5264L25.4998 40.4547C24.5716 40.9906 23.428 40.9906 22.4998 40.4547L10.4996 33.5264C9.57135 32.9905 8.99955 32.0001 8.99955 30.9283L8.99955 17.0717C8.99955 15.9999 9.57135 15.0095 10.4995 14.4736L22.4998 7.54526Z" fill="#00AD5A"/>
<path d="M23.4998 9.27738C23.8092 9.09875 24.1904 9.09875 24.4998 9.27738L36.5 16.2057C36.8094 16.3843 37 16.7144 37 17.0717V30.9283C37 31.2856 36.8094 31.6157 36.5 31.7943L24.4998 38.7226C24.1904 38.9012 23.8092 38.9012 23.4998 38.7226L11.4997 31.7943C11.1903 31.6157 10.9997 31.2856 10.9997 30.9283L10.9997 17.0717C10.9997 16.7144 11.1903 16.3843 11.4997 16.2057L23.4998 9.27738Z" fill="url(#paint0_linear)"/>
<path fill-rule="evenodd" clip-rule="evenodd" d="M26.9979 17.3959L24.5803 16.0001V19.7181L17.0001 24.0945V26.8792L17.0025 26.8834L19.4918 25.4475L27.377 30.0001L29.792 28.6058L29.7933 28.6035L26.9979 26.9896V17.3959ZM21.9094 24.0517L24.5803 25.5938V22.5097L21.9094 24.0517Z" fill="url(#paint1_linear)"/>
<defs>
<linearGradient id="paint0_linear" x1="23.9998" y1="7.87676" x2="23.9998" y2="39.0113" gradientUnits="userSpaceOnUse">
<stop stop-color="#11D96A"/>
<stop offset="1" stop-color="#00BE63"/>
</linearGradient>
<linearGradient id="paint1_linear" x1="23.3967" y1="16.0001" x2="23.3967" y2="30.0001" gradientUnits="userSpaceOnUse">
<stop offset="0.333333" stop-color="white"/>
<stop offset="1" stop-color="white" stop-opacity="0.7"/>
</linearGradient>
</defs>
</svg>
