<svg width="36" height="36" viewBox="0 0 36 36" fill="none" xmlns="http://www.w3.org/2000/svg">
<path d="M16.8748 5.65894C17.571 5.25702 18.4287 5.25702 19.1248 5.65894L28.125 10.8552C28.8211 11.2571 29.25 11.9999 29.25 12.8037V23.1962C29.25 24.0001 28.8211 24.7429 28.125 25.1448L19.1248 30.3411C18.4287 30.743 17.571 30.743 16.8748 30.3411L7.87463 25.1448C7.17848 24.7429 6.74963 24.0001 6.74963 23.1962L6.74963 12.8037C6.74963 11.9999 7.17848 11.2571 7.87463 10.8552L16.8748 5.65894Z" fill="#00AD5A"/>
<path d="M17.6249 6.95804C17.8569 6.82407 18.1428 6.82407 18.3749 6.95804L27.375 12.1543C27.607 12.2882 27.75 12.5358 27.75 12.8038V23.1962C27.75 23.4642 27.607 23.7118 27.375 23.8457L18.3749 29.042C18.1428 29.1759 17.8569 29.1759 17.6249 29.042L8.62476 23.8457C8.39271 23.7118 8.24976 23.4642 8.24976 23.1962L8.24976 12.8038C8.24976 12.5358 8.39271 12.2882 8.62476 12.1543L17.6249 6.95804Z" fill="url(#paint0_linear)"/>
<path fill-rule="evenodd" clip-rule="evenodd" d="M20.2484 13.0469L18.4351 12.0001V14.7886L12.75 18.0709V20.1594L12.7518 20.1626L14.6188 19.0857L20.5327 22.5001L22.344 21.4543L22.3449 21.4526L20.2484 20.2422V13.0469ZM16.432 18.0388L18.4351 19.1953V16.8823L16.432 18.0388Z" fill="url(#paint1_linear)"/>
<defs>
<linearGradient id="paint0_linear" x1="17.9999" y1="5.90757" x2="17.9999" y2="29.2585" gradientUnits="userSpaceOnUse">
<stop stop-color="#11D96A"/>
<stop offset="1" stop-color="#00BE63"/>
</linearGradient>
<linearGradient id="paint1_linear" x1="17.5475" y1="12.0001" x2="17.5475" y2="22.5001" gradientUnits="userSpaceOnUse">
<stop offset="0.333333" stop-color="white"/>
<stop offset="1" stop-color="white" stop-opacity="0.7"/>
</linearGradient>
</defs>
</svg>
