<svg width="48" height="48" viewBox="0 0 48 48" fill="none" xmlns="http://www.w3.org/2000/svg">
<path d="M9.5 13C9.5 11.6193 10.6193 10.5 12 10.5H36C37.3807 10.5 38.5 11.6193 38.5 13V35C38.5 36.3807 37.3807 37.5 36 37.5H12C10.6193 37.5 9.5 36.3807 9.5 35V13Z" fill="#0036DB" stroke="#0036DB"/>
<path d="M11 16C11 15.4477 11.4477 15 12 15H36C36.5523 15 37 15.4477 37 16V35C37 35.5523 36.5523 36 36 36H12C11.4477 36 11 35.5523 11 35V16Z" fill="url(#paint0_linear)"/>
<rect x="27" y="12" width="2" height="2" fill="white"/>
<rect x="31" y="12" width="2" height="2" fill="white"/>
<rect x="35" y="12" width="2" height="2" fill="white"/>
<path fill-rule="evenodd" clip-rule="evenodd" d="M24 19C21.7909 19 20 20.7909 20 23V24C19.4477 24 19 24.4477 19 25V30C19 30.5523 19.4477 31 20 31H28C28.5523 31 29 30.5523 29 30V25C29 24.4477 28.5523 24 28 24V23C28 20.7909 26.2091 19 24 19ZM26 24V23C26 21.8954 25.1046 21 24 21C22.8954 21 22 21.8954 22 23V24H26Z" fill="url(#paint1_linear)"/>
<defs>
<linearGradient id="paint0_linear" x1="32.6667" y1="36" x2="32.905" y2="14.9972" gradientUnits="userSpaceOnUse">
<stop stop-color="#2049EE"/>
<stop offset="1" stop-color="#1271FF"/>
</linearGradient>
<linearGradient id="paint1_linear" x1="24" y1="19" x2="24" y2="31" gradientUnits="userSpaceOnUse">
<stop offset="0.333333" stop-color="white"/>
<stop offset="1" stop-color="white" stop-opacity="0.7"/>
</linearGradient>
</defs>
</svg>
