<svg width="36" height="36" viewBox="0 0 36 36" fill="none" xmlns="http://www.w3.org/2000/svg">
<circle opacity="0.2" cx="18" cy="18" r="17.5" fill="#A64DFF"/>
<rect x="16.125" y="20.9797" width="4.375" height="5.14526" fill="#C270FF"/>
<path d="M8.625 9.875C8.625 9.18464 9.18464 8.625 9.875 8.625H26.75C27.4404 8.625 28 9.18464 28 9.875V21.75C28 22.4404 27.4404 23 26.75 23H9.875C9.18464 23 8.625 22.4404 8.625 21.75V9.875Z" fill="#882EFF"/>
<path d="M13.625 27.375C13.625 26.6846 14.1846 26.125 14.875 26.125H21.75C22.4404 26.125 23 26.6846 23 27.375V28H13.625V27.375Z" fill="#882EFF"/>
<path d="M9.875 9.875H26.75V20.5H9.875V9.875Z" fill="url(#paint0_linear_4381_69311)"/>
<rect x="24.25" y="21.125" width="1.875" height="0.625" fill="white"/>
<path d="M8 19.25C8 18.9048 8.27982 18.625 8.625 18.625H12.375C12.7202 18.625 13 18.9048 13 19.25V27.375C13 27.7202 12.7202 28 12.375 28H8.625C8.27982 28 8 27.7202 8 27.375V19.25Z" fill="#C270FF"/>
<path d="M8.625 19.25H12.375V26.75H8.625V19.25Z" fill="url(#paint1_linear_4381_69311)"/>
<defs>
<linearGradient id="paint0_linear_4381_69311" x1="20.4219" y1="20.5" x2="20.4219" y2="9.875" gradientUnits="userSpaceOnUse">
<stop stop-color="#A64CFF"/>
<stop offset="1" stop-color="#C270FF"/>
</linearGradient>
<linearGradient id="paint1_linear_4381_69311" x1="10.5" y1="19.25" x2="10.5" y2="26.75" gradientUnits="userSpaceOnUse">
<stop offset="0.333333" stop-color="white"/>
<stop offset="1" stop-color="white" stop-opacity="0.7"/>
</linearGradient>
</defs>
</svg>
