<svg width="48" height="48" viewBox="0 0 48 48" fill="none" xmlns="http://www.w3.org/2000/svg">
<circle cx="24" cy="24" r="16" fill="#00AD5A"/>
<circle cx="24" cy="24" r="13" fill="url(#paint0_linear)"/>
<path fill-rule="evenodd" clip-rule="evenodd" d="M25 8H23V11H25V8ZM25 37H23V40H25V37ZM8 25V23H11V25H8ZM37 23V25H40V23H37Z" fill="#11D96A"/>
<path fill-rule="evenodd" clip-rule="evenodd" d="M23 18C22.4477 18 22 18.4477 22 19V22H19C18.4477 22 18 22.4477 18 23V29C18 29.5523 18.4477 30 19 30H25C25.5523 30 26 29.5523 26 29V26H29C29.5523 26 30 25.5523 30 25V19C30 18.4477 29.5523 18 29 18H23ZM26 26V23C26 22.4477 25.5523 22 25 22H22V25C22 25.5523 22.4477 26 23 26H26Z" fill="url(#paint1_linear)"/>
<defs>
<linearGradient id="paint0_linear" x1="24" y1="10.037" x2="24" y2="37" gradientUnits="userSpaceOnUse">
<stop stop-color="#11D96A"/>
<stop offset="1" stop-color="#00BE63"/>
</linearGradient>
<linearGradient id="paint1_linear" x1="24" y1="18" x2="24" y2="30" gradientUnits="userSpaceOnUse">
<stop offset="0.333333" stop-color="white"/>
<stop offset="1" stop-color="white" stop-opacity="0.7"/>
</linearGradient>
</defs>
</svg>
