<svg width="36" height="36" viewBox="0 0 36 36" fill="none" xmlns="http://www.w3.org/2000/svg">
<circle cx="18" cy="18" r="12" fill="#00AD5A"/>
<circle cx="18" cy="18" r="9.75" fill="url(#paint0_linear)"/>
<path fill-rule="evenodd" clip-rule="evenodd" d="M18.75 6H17.25V8.25H18.75V6ZM18.75 27.75H17.25V30H18.75V27.75ZM6 18.75V17.25H8.25V18.75H6ZM27.75 17.25V18.75H30V17.25H27.75Z" fill="#11D96A"/>
<path fill-rule="evenodd" clip-rule="evenodd" d="M17.25 13.5C16.8358 13.5 16.5 13.8358 16.5 14.25V16.5H14.25C13.8358 16.5 13.5 16.8358 13.5 17.25V21.75C13.5 22.1642 13.8358 22.5 14.25 22.5H18.75C19.1642 22.5 19.5 22.1642 19.5 21.75V19.5H21.75C22.1642 19.5 22.5 19.1642 22.5 18.75V14.25C22.5 13.8358 22.1642 13.5 21.75 13.5H17.25ZM19.5 19.5V17.25C19.5 16.8358 19.1642 16.5 18.75 16.5H16.5V18.75C16.5 19.1642 16.8358 19.5 17.25 19.5H19.5Z" fill="url(#paint1_linear)"/>
<defs>
<linearGradient id="paint0_linear" x1="18" y1="7.52778" x2="18" y2="27.75" gradientUnits="userSpaceOnUse">
<stop stop-color="#11D96A"/>
<stop offset="1" stop-color="#00BE63"/>
</linearGradient>
<linearGradient id="paint1_linear" x1="18" y1="13.5" x2="18" y2="22.5" gradientUnits="userSpaceOnUse">
<stop offset="0.333333" stop-color="white"/>
<stop offset="1" stop-color="white" stop-opacity="0.7"/>
</linearGradient>
</defs>
</svg>
