<svg width="48" height="48" viewBox="0 0 48 48" fill="none" xmlns="http://www.w3.org/2000/svg">
<path d="M20 32H28V37H20V32Z" fill="#C270FF"/>
<path d="M15 40H33V40C33 38.3431 31.6569 37 30 37H18C16.3431 37 15 38.3431 15 40V40Z" fill="#892EFF"/>
<path d="M8 11C8 9.89543 8.89543 9 10 9H38C39.1046 9 40 9.89543 40 11V30C40 31.1046 39.1046 32 38 32H10C8.89543 32 8 31.1046 8 30V11Z" fill="#892EFF"/>
<path d="M10 11H38V28H10V11Z" fill="url(#paint0_linear)"/>
<rect x="10" y="29" width="3" height="1" fill="white"/>
<path fill-rule="evenodd" clip-rule="evenodd" d="M27.2479 21.8347C27.7209 21.1777 27.9996 20.3714 27.9996 19.5C27.9996 17.2909 26.2087 15.5 23.9996 15.5C23.1282 15.5 22.3219 15.7786 21.6649 16.2517L20.2383 14.825C21.2672 13.9962 22.5755 13.5 23.9996 13.5C27.3133 13.5 29.9996 16.1863 29.9996 19.5C29.9996 20.9241 29.5034 22.2324 28.6745 23.2613L27.2479 21.8347Z" fill="url(#paint1_linear)"/>
<path fill-rule="evenodd" clip-rule="evenodd" d="M18.9479 16.2613C18.3477 17.1955 17.9996 18.3071 17.9996 19.5C17.9996 22.8137 20.6859 25.5 23.9996 25.5C25.1925 25.5 26.3041 25.1519 27.2383 24.5517L25.773 23.0864C25.2385 23.3512 24.6364 23.5 23.9996 23.5C21.7904 23.5 19.9996 21.7091 19.9996 19.5C19.9996 18.8631 20.1484 18.261 20.4132 17.7266L18.9479 16.2613Z" fill="url(#paint2_linear)"/>
<defs>
<linearGradient id="paint0_linear" x1="27.5" y1="28" x2="27.5" y2="11" gradientUnits="userSpaceOnUse">
<stop stop-color="#A64CFF"/>
<stop offset="1" stop-color="#C270FF"/>
</linearGradient>
<linearGradient id="paint1_linear" x1="24.5" y1="23" x2="21.5" y2="14" gradientUnits="userSpaceOnUse">
<stop stop-color="white" stop-opacity="0"/>
<stop offset="1" stop-color="white"/>
</linearGradient>
<linearGradient id="paint2_linear" x1="25.9996" y1="25" x2="22.9995" y2="17" gradientUnits="userSpaceOnUse">
<stop stop-color="white"/>
<stop offset="1" stop-color="white" stop-opacity="0"/>
</linearGradient>
</defs>
</svg>
