<svg width="36" height="36" viewBox="0 0 36 36" fill="none" xmlns="http://www.w3.org/2000/svg">
<path d="M15 24H21V27.75H15V24Z" fill="#C270FF"/>
<path d="M11.25 30H24.75V30C24.75 28.7574 23.7426 27.75 22.5 27.75H13.5C12.2574 27.75 11.25 28.7574 11.25 30V30Z" fill="#892EFF"/>
<path d="M6 8.25C6 7.42157 6.67157 6.75 7.5 6.75H28.5C29.3284 6.75 30 7.42157 30 8.25V22.5C30 23.3284 29.3284 24 28.5 24H7.5C6.67157 24 6 23.3284 6 22.5V8.25Z" fill="#892EFF"/>
<path d="M7.5 8.25H28.5V21H7.5V8.25Z" fill="url(#paint0_linear)"/>
<rect x="7.5" y="21.75" width="2.25" height="0.75" fill="white"/>
<path fill-rule="evenodd" clip-rule="evenodd" d="M20.4359 16.376C20.7907 15.8833 20.9997 15.2785 20.9997 14.625C20.9997 12.9681 19.6565 11.625 17.9997 11.625C17.3461 11.625 16.7414 11.834 16.2487 12.1887L15.1787 11.1188C15.9504 10.4971 16.9316 10.125 17.9997 10.125C20.485 10.125 22.4997 12.1397 22.4997 14.625C22.4997 15.6931 22.1276 16.6743 21.5059 17.446L20.4359 16.376Z" fill="url(#paint1_linear)"/>
<path fill-rule="evenodd" clip-rule="evenodd" d="M14.211 12.196C13.7608 12.8966 13.4998 13.7303 13.4998 14.625C13.4998 17.1103 15.5145 19.125 17.9998 19.125C18.8944 19.125 19.7281 18.8639 20.4288 18.4138L19.3298 17.3148C18.929 17.5134 18.4774 17.625 17.9998 17.625C16.3429 17.625 14.9998 16.2818 14.9998 14.625C14.9998 14.1474 15.1114 13.6958 15.31 13.2949L14.211 12.196Z" fill="url(#paint2_linear)"/>
<defs>
<linearGradient id="paint0_linear" x1="20.625" y1="21" x2="20.625" y2="8.25" gradientUnits="userSpaceOnUse">
<stop stop-color="#A64CFF"/>
<stop offset="1" stop-color="#C270FF"/>
</linearGradient>
<linearGradient id="paint1_linear" x1="18.375" y1="17.25" x2="16.125" y2="10.5" gradientUnits="userSpaceOnUse">
<stop stop-color="white" stop-opacity="0"/>
<stop offset="1" stop-color="white"/>
</linearGradient>
<linearGradient id="paint2_linear" x1="19.4998" y1="18.75" x2="17.2497" y2="12.75" gradientUnits="userSpaceOnUse">
<stop stop-color="white"/>
<stop offset="1" stop-color="white" stop-opacity="0"/>
</linearGradient>
</defs>
</svg>
