<svg width="48" height="48" viewBox="0 0 48 48" fill="none" xmlns="http://www.w3.org/2000/svg">
<path d="M9 13C9 11.3431 10.3431 10 12 10H36C37.6569 10 39 11.3431 39 13V35C39 36.6569 37.6569 38 36 38H12C10.3431 38 9 36.6569 9 35V13Z" fill="#0099F7"/>
<path d="M11 16C11 15.4477 11.4477 15 12 15H36C36.5523 15 37 15.4477 37 16V34C37 35.1046 36.1046 36 35 36H13C11.8954 36 11 35.1046 11 34V16Z" fill="url(#paint0_linear)"/>
<rect x="27" y="12" width="2" height="2" fill="white"/>
<rect x="31" y="12" width="2" height="2" fill="white"/>
<rect x="35" y="12" width="2" height="2" fill="white"/>
<path fill-rule="evenodd" clip-rule="evenodd" d="M24.9991 23L22.9991 23L22.9991 20H24.9991L24.9991 23ZM24.9991 32H22.9991L22.9991 29H24.9991L24.9991 32ZM28.6954 29.8661L29.6954 28.134L27.0969 26.6338L26.0969 28.3659L28.6954 29.8661ZM21.9029 23.635L20.9029 25.3671L18.3038 23.8665L19.3038 22.1344L21.9029 23.635ZM21.9014 28.3658L20.9014 26.6338L18.3037 28.1336L19.3037 29.8656L21.9014 28.3658Z" fill="url(#paint1_linear)"/>
<rect x="28.6943" y="22.1343" width="2" height="3.00416" transform="rotate(60 28.6943 22.1343)" fill="#0099F7"/>
<defs>
<linearGradient id="paint0_linear" x1="24" y1="15" x2="24" y2="36" gradientUnits="userSpaceOnUse">
<stop stop-color="#1FCEFF"/>
<stop offset="1" stop-color="#11B2FF"/>
</linearGradient>
<linearGradient id="paint1_linear" x1="23.9995" y1="20" x2="23.9995" y2="32" gradientUnits="userSpaceOnUse">
<stop offset="0.333333" stop-color="white"/>
<stop offset="1" stop-color="white" stop-opacity="0.7"/>
</linearGradient>
</defs>
</svg>
