<svg width="36" height="36" viewBox="0 0 36 36" fill="none" xmlns="http://www.w3.org/2000/svg">
<path d="M6.75 9.75C6.75 8.50736 7.75736 7.5 9 7.5H27C28.2426 7.5 29.25 8.50736 29.25 9.75V26.25C29.25 27.4926 28.2426 28.5 27 28.5H9C7.75736 28.5 6.75 27.4926 6.75 26.25V9.75Z" fill="#0099F7"/>
<path d="M8.25 12C8.25 11.5858 8.58579 11.25 9 11.25H27C27.4142 11.25 27.75 11.5858 27.75 12V25.5C27.75 26.3284 27.0784 27 26.25 27H9.75C8.92157 27 8.25 26.3284 8.25 25.5V12Z" fill="url(#paint0_linear)"/>
<rect x="20.25" y="9" width="1.5" height="1.5" fill="white"/>
<rect x="23.25" y="9" width="1.5" height="1.5" fill="white"/>
<rect x="26.25" y="9" width="1.5" height="1.5" fill="white"/>
<path fill-rule="evenodd" clip-rule="evenodd" d="M18.7493 17.25L17.2493 17.25L17.2493 15H18.7493V17.25ZM18.7493 24H17.2493L17.2493 21.75H18.7493V24ZM21.5215 22.3996L22.2715 21.1005L20.3227 19.9754L19.5727 21.2744L21.5215 22.3996ZM16.4272 17.7263L15.6772 19.0253L13.7278 17.8998L14.4778 16.6008L16.4272 17.7263ZM16.4261 21.2744L15.6761 19.9753L13.7278 21.1002L14.4778 22.3992L16.4261 21.2744Z" fill="url(#paint1_linear)"/>
<rect x="21.5208" y="16.6007" width="1.5" height="2.25312" transform="rotate(60 21.5208 16.6007)" fill="#0099F7"/>
<defs>
<linearGradient id="paint0_linear" x1="18" y1="11.25" x2="18" y2="27" gradientUnits="userSpaceOnUse">
<stop stop-color="#1FCEFF"/>
<stop offset="1" stop-color="#11B2FF"/>
</linearGradient>
<linearGradient id="paint1_linear" x1="17.9997" y1="15" x2="17.9997" y2="24" gradientUnits="userSpaceOnUse">
<stop offset="0.333333" stop-color="white"/>
<stop offset="1" stop-color="white" stop-opacity="0.7"/>
</linearGradient>
</defs>
</svg>
