<svg width="48" height="48" viewBox="0 0 48 48" fill="none" xmlns="http://www.w3.org/2000/svg">
<path d="M20 32H28V37H20V32Z" fill="url(#paint0_linear)"/>
<path d="M15 40H33C33 38.3431 31.6569 37 30 37H18C16.3431 37 15 38.3431 15 40Z" fill="#0099F7"/>
<path d="M8 11C8 9.89543 8.89543 9 10 9H38C39.1046 9 40 9.89543 40 11V30C40 31.1046 39.1046 32 38 32H10C8.89543 32 8 31.1046 8 30V11Z" fill="#0099F7"/>
<path d="M10 11H38V28H10V11Z" fill="url(#paint1_linear)"/>
<rect x="10" y="29" width="3" height="1" fill="white"/>
<path fill-rule="evenodd" clip-rule="evenodd" d="M22.7971 20.6522C23.5099 20.1176 24.4899 20.1176 25.2027 20.6522L28.5999 23.2001L27.3999 24.8001L24.0027 22.2522C24.001 22.2509 23.9988 22.2509 23.9971 22.2522L20.5999 24.8001L19.3999 23.2001L22.7971 20.6522Z" fill="url(#paint2_linear)"/>
<path fill-rule="evenodd" clip-rule="evenodd" d="M22.7971 14.6522C23.5099 14.1176 24.4899 14.1176 25.2027 14.6522L28.5999 17.2001L27.3999 18.8001L24.0027 16.2522C24.001 16.2509 23.9988 16.2509 23.9971 16.2522L20.5999 18.8001L19.3999 17.2001L22.7971 14.6522Z" fill="url(#paint3_linear)"/>
<defs>
<linearGradient id="paint0_linear" x1="24" y1="32" x2="24" y2="37" gradientUnits="userSpaceOnUse">
<stop stop-color="#1FCEFF"/>
<stop offset="1" stop-color="#11B2FF"/>
</linearGradient>
<linearGradient id="paint1_linear" x1="24" y1="11" x2="24" y2="28" gradientUnits="userSpaceOnUse">
<stop stop-color="#1FCEFF"/>
<stop offset="1" stop-color="#11B2FF"/>
</linearGradient>
<linearGradient id="paint2_linear" x1="23.9999" y1="14.2512" x2="23.9999" y2="24.8001" gradientUnits="userSpaceOnUse">
<stop offset="0.333333" stop-color="white"/>
<stop offset="1" stop-color="white" stop-opacity="0.7"/>
</linearGradient>
<linearGradient id="paint3_linear" x1="23.9999" y1="14.2512" x2="23.9999" y2="24.8001" gradientUnits="userSpaceOnUse">
<stop offset="0.333333" stop-color="white"/>
<stop offset="1" stop-color="white" stop-opacity="0.7"/>
</linearGradient>
</defs>
</svg>
