<svg width="36" height="36" viewBox="0 0 36 36" fill="none" xmlns="http://www.w3.org/2000/svg">
<path d="M15 24H21V27.75H15V24Z" fill="url(#paint0_linear)"/>
<path d="M11.25 30H24.75V30C24.75 28.7574 23.7426 27.75 22.5 27.75H13.5C12.2574 27.75 11.25 28.7574 11.25 30V30Z" fill="#0099F7"/>
<path d="M6 8.25C6 7.42157 6.67157 6.75 7.5 6.75H28.5C29.3284 6.75 30 7.42157 30 8.25V22.5C30 23.3284 29.3284 24 28.5 24H7.5C6.67157 24 6 23.3284 6 22.5V8.25Z" fill="#0099F7"/>
<path d="M7.5 8.25H28.5V21H7.5V8.25Z" fill="url(#paint1_linear)"/>
<rect x="7.5" y="21.75" width="2.25" height="0.75" fill="white"/>
<path fill-rule="evenodd" clip-rule="evenodd" d="M17.0978 15.4891C17.6324 15.0882 18.3674 15.0882 18.902 15.4891L21.4499 17.4L20.5499 18.6L18.002 16.6891C18.0008 16.6882 17.9991 16.6882 17.9978 16.6891L15.4499 18.6L14.5499 17.4L17.0978 15.4891Z" fill="url(#paint2_linear)"/>
<path fill-rule="evenodd" clip-rule="evenodd" d="M17.0978 10.9891C17.6324 10.5882 18.3674 10.5882 18.902 10.9891L21.4499 12.9L20.5499 14.1L18.002 12.1891C18.0008 12.1882 17.9991 12.1882 17.9978 12.1891L15.4499 14.1L14.5499 12.9L17.0978 10.9891Z" fill="url(#paint3_linear)"/>
<defs>
<linearGradient id="paint0_linear" x1="18" y1="24" x2="18" y2="27.75" gradientUnits="userSpaceOnUse">
<stop stop-color="#1FCEFF"/>
<stop offset="1" stop-color="#11B2FF"/>
</linearGradient>
<linearGradient id="paint1_linear" x1="18" y1="8.25" x2="18" y2="21" gradientUnits="userSpaceOnUse">
<stop stop-color="#1FCEFF"/>
<stop offset="1" stop-color="#11B2FF"/>
</linearGradient>
<linearGradient id="paint2_linear" x1="17.9999" y1="10.6884" x2="17.9999" y2="18.6" gradientUnits="userSpaceOnUse">
<stop offset="0.333333" stop-color="white"/>
<stop offset="1" stop-color="white" stop-opacity="0.7"/>
</linearGradient>
<linearGradient id="paint3_linear" x1="17.9999" y1="10.6884" x2="17.9999" y2="18.6" gradientUnits="userSpaceOnUse">
<stop offset="0.333333" stop-color="white"/>
<stop offset="1" stop-color="white" stop-opacity="0.7"/>
</linearGradient>
</defs>
</svg>
