<svg width="48" height="48" viewBox="0 0 48 48" fill="none" xmlns="http://www.w3.org/2000/svg">
<path d="M32.6875 23.5177C32.6875 22.5857 31.932 21.8302 31 21.8302C30.068 21.8302 29.3125 22.5857 29.3125 23.5177V25.0177H25V27.4947C26.7957 27.7107 28.1875 29.2396 28.1875 31.0936C28.1875 32.9475 26.7957 34.4764 25 34.6924V38H35C36.6569 38 38 36.6569 38 35L38 25.0177H32.6875V23.5177Z" fill="url(#paint0_linear)"/>
<path d="M14.75 24.4821C14.75 25.4141 15.5055 26.1696 16.4375 26.1696C17.3695 26.1696 18.125 25.4141 18.125 24.4821V22.9821L23 22.9821V20.5051C21.2043 20.2891 19.8125 18.7602 19.8125 16.9062C19.8125 15.0523 21.2043 13.5234 23 13.3074L23 10H12.9971C11.3403 10 10 11.3407 10 12.9976V22.9822L14.75 22.9821L14.75 24.4821Z" fill="url(#paint1_linear)"/>
<path d="M23.4375 15.2812C22.54 15.2812 21.8125 16.0088 21.8125 16.9062C21.8125 17.8037 22.54 18.5312 23.4375 18.5312H25V23.0177H27.3461C27.5901 21.2177 29.133 19.8302 31 19.8302C32.867 19.8302 34.4099 21.2177 34.6539 23.0177H38V13C38 11.3431 36.6569 10 35 10H25L25 15.2812H23.4375Z" fill="url(#paint2_linear)"/>
<path d="M13 38H23V32.7186H24.5625C25.46 32.7186 26.1875 31.991 26.1875 31.0936C26.1875 30.1961 25.46 29.4686 24.5625 29.4686H23V24.9821H20.0914C19.8474 26.7821 18.3045 28.1696 16.4375 28.1696C14.5705 28.1696 13.0276 26.7821 12.7836 24.9821L10 24.9822V35C10 36.6569 11.3431 38 13 38Z" fill="url(#paint3_linear)"/>
<path d="M32.6875 23.5177C32.6875 22.5857 31.932 21.8302 31 21.8302C30.068 21.8302 29.3125 22.5857 29.3125 23.5177V25.0177H25V27.4947C26.7957 27.7107 28.1875 29.2396 28.1875 31.0936C28.1875 32.9475 26.7957 34.4764 25 34.6924V38H35C36.6569 38 38 36.6569 38 35L38 25.0177H32.6875V23.5177Z" fill="url(#paint4_linear)"/>
<path d="M14.75 24.4821C14.75 25.4141 15.5055 26.1696 16.4375 26.1696C17.3695 26.1696 18.125 25.4141 18.125 24.4821V22.9821L23 22.9821V20.5051C21.2043 20.2891 19.8125 18.7602 19.8125 16.9062C19.8125 15.0523 21.2043 13.5234 23 13.3074L23 10H12.9971C11.3403 10 10 11.3407 10 12.9976V22.9822L14.75 22.9821L14.75 24.4821Z" fill="url(#paint5_linear)"/>
<path d="M23.4375 15.2812C22.54 15.2812 21.8125 16.0088 21.8125 16.9062C21.8125 17.8037 22.54 18.5312 23.4375 18.5312H25V23.0177H27.3461C27.5901 21.2177 29.133 19.8302 31 19.8302C32.867 19.8302 34.4099 21.2177 34.6539 23.0177H38V13C38 11.3431 36.6569 10 35 10H25L25 15.2812H23.4375Z" fill="url(#paint6_linear)"/>
<path d="M13 38H23V32.7186H24.5625C25.46 32.7186 26.1875 31.991 26.1875 31.0936C26.1875 30.1961 25.46 29.4686 24.5625 29.4686H23V24.9821H20.0914C19.8474 26.7821 18.3045 28.1696 16.4375 28.1696C14.5705 28.1696 13.0276 26.7821 12.7836 24.9821L10 24.9822V35C10 36.6569 11.3431 38 13 38Z" fill="url(#paint7_linear)"/>
<path d="M14.75 24.4821C14.75 25.4141 15.5055 26.1696 16.4375 26.1696C17.3695 26.1696 18.125 25.4141 18.125 24.4821V22.9821L23 22.9821V20.5051C21.2043 20.2891 19.8125 18.7602 19.8125 16.9062C19.8125 15.0523 21.2043 13.5234 23 13.3074L23 10H12.9971C11.3403 10 10 11.3407 10 12.9976V22.9822L14.75 22.9821L14.75 24.4821Z" fill="#0036DB"/>
<defs>
<linearGradient id="paint0_linear" x1="33.3333" y1="38" x2="33.7267" y2="9.99824" gradientUnits="userSpaceOnUse">
<stop stop-color="#2049EE"/>
<stop offset="1" stop-color="#1271FF"/>
</linearGradient>
<linearGradient id="paint1_linear" x1="33.3333" y1="38" x2="33.7267" y2="9.99824" gradientUnits="userSpaceOnUse">
<stop stop-color="#2049EE"/>
<stop offset="1" stop-color="#1271FF"/>
</linearGradient>
<linearGradient id="paint2_linear" x1="33.3333" y1="38" x2="33.7267" y2="9.99824" gradientUnits="userSpaceOnUse">
<stop stop-color="#2049EE"/>
<stop offset="1" stop-color="#1271FF"/>
</linearGradient>
<linearGradient id="paint3_linear" x1="33.3333" y1="38" x2="33.7267" y2="9.99824" gradientUnits="userSpaceOnUse">
<stop stop-color="#2049EE"/>
<stop offset="1" stop-color="#1271FF"/>
</linearGradient>
<linearGradient id="paint4_linear" x1="33.3333" y1="38" x2="33.7267" y2="9.99824" gradientUnits="userSpaceOnUse">
<stop stop-color="#2049EE"/>
<stop offset="1" stop-color="#1271FF"/>
</linearGradient>
<linearGradient id="paint5_linear" x1="33.3333" y1="38" x2="33.7267" y2="9.99824" gradientUnits="userSpaceOnUse">
<stop stop-color="#2049EE"/>
<stop offset="1" stop-color="#1271FF"/>
</linearGradient>
<linearGradient id="paint6_linear" x1="33.3333" y1="38" x2="33.7267" y2="9.99824" gradientUnits="userSpaceOnUse">
<stop stop-color="#2049EE"/>
<stop offset="1" stop-color="#1271FF"/>
</linearGradient>
<linearGradient id="paint7_linear" x1="33.3333" y1="38" x2="33.7267" y2="9.99824" gradientUnits="userSpaceOnUse">
<stop stop-color="#2049EE"/>
<stop offset="1" stop-color="#1271FF"/>
</linearGradient>
</defs>
</svg>
