<svg width="36" height="36" viewBox="0 0 36 36" fill="none" xmlns="http://www.w3.org/2000/svg">
<path d="M24.5156 17.6383C24.5156 16.9393 23.949 16.3727 23.25 16.3727C22.551 16.3727 21.9844 16.9393 21.9844 17.6383V18.7633H18.75V20.621C20.0968 20.783 21.1406 21.9297 21.1406 23.3202C21.1406 24.7106 20.0968 25.8573 18.75 26.0193V28.5H26.25C27.4926 28.5 28.5 27.4926 28.5 26.25L28.5 18.7633H24.5156V17.6383Z" fill="url(#paint0_linear)"/>
<path d="M11.0625 18.3616C11.0625 19.0605 11.6291 19.6272 12.3281 19.6272C13.0271 19.6272 13.5937 19.0605 13.5937 18.3616V17.2366H17.25V15.3788C15.9032 15.2168 14.8594 14.0702 14.8594 12.6797C14.8594 11.2892 15.9032 10.1425 17.25 9.98053L17.25 7.5H9.74786C8.50522 7.5 7.5 8.50553 7.5 9.74817V17.2367L11.0625 17.2365L11.0625 18.3616Z" fill="url(#paint1_linear)"/>
<path d="M17.5781 11.4609C16.905 11.4609 16.3594 12.0066 16.3594 12.6797C16.3594 13.3528 16.905 13.8984 17.5781 13.8984H18.75V17.2633H20.5096C20.6926 15.9133 21.8498 14.8727 23.25 14.8727C24.6502 14.8727 25.8074 15.9133 25.9904 17.2633H28.5V9.75C28.5 8.50736 27.4926 7.5 26.25 7.5H18.75L18.75 11.4609H17.5781Z" fill="url(#paint2_linear)"/>
<path d="M9.75 28.5H17.25V24.5389H18.4219C19.095 24.5389 19.6406 23.9933 19.6406 23.3202C19.6406 22.6471 19.095 22.1014 18.4219 22.1014H17.25V18.7366H15.0685C14.8855 20.0866 13.7283 21.1272 12.3281 21.1272C10.9279 21.1272 9.77073 20.0866 9.58771 18.7366L7.5 18.7367V26.25C7.5 27.4926 8.50736 28.5 9.75 28.5Z" fill="url(#paint3_linear)"/>
<path d="M24.5156 17.6383C24.5156 16.9393 23.949 16.3727 23.25 16.3727C22.551 16.3727 21.9844 16.9393 21.9844 17.6383V18.7633H18.75V20.621C20.0968 20.783 21.1406 21.9297 21.1406 23.3202C21.1406 24.7106 20.0968 25.8573 18.75 26.0193V28.5H26.25C27.4926 28.5 28.5 27.4926 28.5 26.25L28.5 18.7633H24.5156V17.6383Z" fill="url(#paint4_linear)"/>
<path d="M11.0625 18.3616C11.0625 19.0605 11.6291 19.6272 12.3281 19.6272C13.0271 19.6272 13.5937 19.0605 13.5937 18.3616V17.2366H17.25V15.3788C15.9032 15.2168 14.8594 14.0702 14.8594 12.6797C14.8594 11.2892 15.9032 10.1425 17.25 9.98053L17.25 7.5H9.74786C8.50522 7.5 7.5 8.50553 7.5 9.74817V17.2367L11.0625 17.2365L11.0625 18.3616Z" fill="url(#paint5_linear)"/>
<path d="M17.5781 11.4609C16.905 11.4609 16.3594 12.0066 16.3594 12.6797C16.3594 13.3528 16.905 13.8984 17.5781 13.8984H18.75V17.2633H20.5096C20.6926 15.9133 21.8498 14.8727 23.25 14.8727C24.6502 14.8727 25.8074 15.9133 25.9904 17.2633H28.5V9.75C28.5 8.50736 27.4926 7.5 26.25 7.5H18.75L18.75 11.4609H17.5781Z" fill="url(#paint6_linear)"/>
<path d="M9.75 28.5H17.25V24.5389H18.4219C19.095 24.5389 19.6406 23.9933 19.6406 23.3202C19.6406 22.6471 19.095 22.1014 18.4219 22.1014H17.25V18.7366H15.0685C14.8855 20.0866 13.7283 21.1272 12.3281 21.1272C10.9279 21.1272 9.77073 20.0866 9.58771 18.7366L7.5 18.7367V26.25C7.5 27.4926 8.50736 28.5 9.75 28.5Z" fill="url(#paint7_linear)"/>
<path d="M11.0625 18.3616C11.0625 19.0605 11.6291 19.6272 12.3281 19.6272C13.0271 19.6272 13.5937 19.0605 13.5937 18.3616V17.2366H17.25V15.3788C15.9032 15.2168 14.8594 14.0702 14.8594 12.6797C14.8594 11.2892 15.9032 10.1425 17.25 9.98053L17.25 7.5H9.74786C8.50522 7.5 7.5 8.50553 7.5 9.74817V17.2367L11.0625 17.2365L11.0625 18.3616Z" fill="#0036DB"/>
<defs>
<linearGradient id="paint0_linear" x1="25" y1="28.5" x2="25.295" y2="7.49868" gradientUnits="userSpaceOnUse">
<stop stop-color="#2049EE"/>
<stop offset="1" stop-color="#1271FF"/>
</linearGradient>
<linearGradient id="paint1_linear" x1="25" y1="28.5" x2="25.295" y2="7.49868" gradientUnits="userSpaceOnUse">
<stop stop-color="#2049EE"/>
<stop offset="1" stop-color="#1271FF"/>
</linearGradient>
<linearGradient id="paint2_linear" x1="25" y1="28.5" x2="25.295" y2="7.49868" gradientUnits="userSpaceOnUse">
<stop stop-color="#2049EE"/>
<stop offset="1" stop-color="#1271FF"/>
</linearGradient>
<linearGradient id="paint3_linear" x1="25" y1="28.5" x2="25.295" y2="7.49868" gradientUnits="userSpaceOnUse">
<stop stop-color="#2049EE"/>
<stop offset="1" stop-color="#1271FF"/>
</linearGradient>
<linearGradient id="paint4_linear" x1="25" y1="28.5" x2="25.295" y2="7.49868" gradientUnits="userSpaceOnUse">
<stop stop-color="#2049EE"/>
<stop offset="1" stop-color="#1271FF"/>
</linearGradient>
<linearGradient id="paint5_linear" x1="25" y1="28.5" x2="25.295" y2="7.49868" gradientUnits="userSpaceOnUse">
<stop stop-color="#2049EE"/>
<stop offset="1" stop-color="#1271FF"/>
</linearGradient>
<linearGradient id="paint6_linear" x1="25" y1="28.5" x2="25.295" y2="7.49868" gradientUnits="userSpaceOnUse">
<stop stop-color="#2049EE"/>
<stop offset="1" stop-color="#1271FF"/>
</linearGradient>
<linearGradient id="paint7_linear" x1="25" y1="28.5" x2="25.295" y2="7.49868" gradientUnits="userSpaceOnUse">
<stop stop-color="#2049EE"/>
<stop offset="1" stop-color="#1271FF"/>
</linearGradient>
</defs>
</svg>
