<svg width="36" height="36" viewBox="0 0 36 36" fill="none" xmlns="http://www.w3.org/2000/svg">
<path d="M18.9376 6.22428L27.7294 11.3002C28.3095 11.6352 28.6669 12.2542 28.6669 12.924V23.076C28.6669 23.7458 28.3095 24.3648 27.7294 24.6998L18.9376 29.7757C18.3574 30.1107 17.6427 30.1107 17.0626 29.7757L8.27075 24.6998C7.69062 24.3648 7.33325 23.7458 7.33325 23.076L7.33325 12.924C7.33325 12.2542 7.69062 11.6352 8.27075 11.3002L17.0626 6.22428C17.6427 5.88934 18.3574 5.88934 18.9376 6.22428Z" fill="#0036DB" stroke="#0036DB" stroke-width="0.75"/>
<path d="M17.625 7.71651C17.8571 7.58253 18.143 7.58253 18.375 7.71651L26.7183 12.5335C26.9503 12.6675 27.0933 12.9151 27.0933 13.183V22.817C27.0933 23.0849 26.9503 23.3325 26.7183 23.4665L18.375 28.2835C18.143 28.4175 17.8571 28.4175 17.625 28.2835L9.28174 23.4665C9.04969 23.3325 8.90674 23.0849 8.90674 22.817V13.183C8.90674 12.9151 9.04969 12.6675 9.28174 12.5335L17.625 7.71651Z" fill="url(#paint0_linear)"/>
<path d="M18.5303 12.6967C18.8232 12.4038 19.2981 12.4038 19.591 12.6967L23.3033 16.409C23.5962 16.7019 23.5962 17.1768 23.3033 17.4697L17.4697 23.3033C17.1768 23.5962 16.7019 23.5962 16.409 23.3033L12.6967 19.591C12.4038 19.2981 12.4038 18.8232 12.6967 18.5303L18.5303 12.6967Z" fill="url(#paint1_linear)"/>
<path d="M14.6285 16.5984L19.4015 21.3714L18.9091 21.8638L14.1361 17.0909L14.6285 16.5984Z" fill="#1271FF"/>
<path d="M18.375 22.875C18.4702 22.7798 18.75 22.5 18.75 22.5H23.25V23.25H18C18 23.25 18.2798 22.9702 18.375 22.875Z" fill="url(#paint2_linear)"/>
<defs>
<linearGradient id="paint0_linear" x1="24.0622" y1="28.5" x2="24.4028" y2="7.50006" gradientUnits="userSpaceOnUse">
<stop stop-color="#2049EE"/>
<stop offset="1" stop-color="#1271FF"/>
</linearGradient>
<linearGradient id="paint1_linear" x1="21.4472" y1="14.5529" x2="14.5529" y2="21.4472" gradientUnits="userSpaceOnUse">
<stop offset="0.333333" stop-color="white"/>
<stop offset="1" stop-color="white" stop-opacity="0.7"/>
</linearGradient>
<linearGradient id="paint2_linear" x1="18" y1="22.875" x2="24.75" y2="22.875" gradientUnits="userSpaceOnUse">
<stop offset="0.333333" stop-color="white"/>
<stop offset="1" stop-color="white" stop-opacity="0.7"/>
</linearGradient>
</defs>
</svg>
