<svg width="48" height="48" viewBox="0 0 48 48" fill="none" xmlns="http://www.w3.org/2000/svg">
<path d="M22.75 8.29904C23.5235 7.85246 24.4765 7.85246 25.25 8.29904L36.9724 15.067C37.7459 15.5136 38.2224 16.3389 38.2224 17.2321V30.768C38.2224 31.6611 37.7459 32.4864 36.9724 32.933L25.25 39.701C24.4765 40.1475 23.5235 40.1475 22.75 39.701L11.0276 32.933C10.2541 32.4864 9.77757 31.6611 9.77757 30.768L9.77757 17.232C9.77757 16.3389 10.2541 15.5136 11.0276 15.067L22.75 8.29904Z" fill="#0036DB" stroke="#0036DB"/>
<path d="M23.5 10.2887C23.8094 10.11 24.1906 10.11 24.5 10.2887L35.6244 16.7113C35.9338 16.89 36.1244 17.2201 36.1244 17.5774V30.4226C36.1244 30.7799 35.9338 31.11 35.6244 31.2887L24.5 37.7113C24.1906 37.89 23.8094 37.89 23.5 37.7113L12.3756 31.2887C12.0662 31.11 11.8756 30.7799 11.8756 30.4226L11.8756 17.5774C11.8756 17.2201 12.0662 16.89 12.3756 16.7113L23.5 10.2887Z" fill="url(#paint0_linear)"/>
<path d="M24.7071 16.9289C25.0976 16.5384 25.7308 16.5384 26.1213 16.9289L31.0711 21.8787C31.4616 22.2692 31.4616 22.9024 31.0711 23.2929L23.2929 31.0711C22.9024 31.4616 22.2692 31.4616 21.8787 31.0711L16.9289 26.1213C16.5384 25.7308 16.5384 25.0976 16.9289 24.7071L24.7071 16.9289Z" fill="url(#paint1_linear)"/>
<path d="M19.5048 22.1312L25.8688 28.4952L25.2122 29.1518L18.8482 22.7878L19.5048 22.1312Z" fill="#1271FF"/>
<path d="M24.5 30.5C24.627 30.373 25 30 25 30H31V31H24C24 31 24.373 30.627 24.5 30.5Z" fill="url(#paint2_linear)"/>
<defs>
<linearGradient id="paint0_linear" x1="32.0829" y1="38" x2="32.5371" y2="10.0001" gradientUnits="userSpaceOnUse">
<stop stop-color="#2049EE"/>
<stop offset="1" stop-color="#1271FF"/>
</linearGradient>
<linearGradient id="paint1_linear" x1="28.5962" y1="19.4038" x2="19.4038" y2="28.5962" gradientUnits="userSpaceOnUse">
<stop offset="0.333333" stop-color="white"/>
<stop offset="1" stop-color="white" stop-opacity="0.7"/>
</linearGradient>
<linearGradient id="paint2_linear" x1="24" y1="30.5" x2="33" y2="30.5" gradientUnits="userSpaceOnUse">
<stop offset="0.333333" stop-color="white"/>
<stop offset="1" stop-color="white" stop-opacity="0.7"/>
</linearGradient>
</defs>
</svg>
