<svg width="48" height="48" viewBox="0 0 48 48" fill="none" xmlns="http://www.w3.org/2000/svg">
<path d="M13 9.5H35C35.8284 9.5 36.5 10.1716 36.5 11V30.3118C36.5 30.8359 36.2265 31.322 35.7785 31.594L24.7785 38.2725C24.3001 38.563 23.6999 38.563 23.2215 38.2725L12.2215 31.594C11.7735 31.322 11.5 30.8359 11.5 30.3118V11C11.5 10.1716 12.1716 9.5 13 9.5Z" fill="#0036DB" stroke="#0036DB" stroke-width="3"/>
<path d="M13 12C13 11.4477 13.4477 11 14 11H34C34.5523 11 35 11.4477 35 12V29.7588C35 30.1082 34.8176 30.4323 34.519 30.6136L24.519 36.6849C24.2001 36.8785 23.7999 36.8785 23.481 36.6849L13.481 30.6136C13.1824 30.4323 13 30.1082 13 29.7588V12Z" fill="url(#paint0_linear)"/>
<path fill-rule="evenodd" clip-rule="evenodd" d="M22.5 23.5V27H25.5V23.5H29V20.5H25.5V17H22.5V20.5H19V23.5H22.5Z" fill="url(#paint1_linear)"/>
<defs>
<linearGradient id="paint0_linear" x1="31.3333" y1="37" x2="31.765" y2="11.0004" gradientUnits="userSpaceOnUse">
<stop stop-color="#2049EE"/>
<stop offset="1" stop-color="#1271FF"/>
</linearGradient>
<linearGradient id="paint1_linear" x1="24" y1="17" x2="24" y2="27" gradientUnits="userSpaceOnUse">
<stop offset="0.333333" stop-color="white"/>
<stop offset="1" stop-color="white" stop-opacity="0.7"/>
</linearGradient>
</defs>
</svg>
