<svg width="36" height="36" viewBox="0 0 36 36" fill="none" xmlns="http://www.w3.org/2000/svg">
<path d="M8.51804 24.1432C5.17671 20.8019 5.1767 15.3845 8.51804 12.0432V12.0432C9.1863 11.3749 10.2698 11.3749 10.938 12.0432L16.9881 18.0932L10.938 24.1432C10.2698 24.8115 9.18631 24.8115 8.51804 24.1432V24.1432Z" fill="#892EFF"/>
<path fill-rule="evenodd" clip-rule="evenodd" d="M11.8933 11.088C11.2251 10.4198 11.2251 9.33629 11.8933 8.66803C15.2347 5.32669 20.652 5.3267 23.9934 8.66803C24.6616 9.33629 24.6616 10.4198 23.9934 11.088L17.9434 17.1381L11.8933 11.088ZM18.9012 18.0958L24.9512 12.0458C25.6195 11.3775 26.7029 11.3775 27.3712 12.0458C30.7125 15.3871 30.7125 20.8045 27.3712 24.1458C26.703 24.8141 25.6195 24.8141 24.9512 24.1458L18.9012 18.0958ZM11.8954 25.1008C11.2272 25.769 11.2272 26.8525 11.8954 27.5208C15.2368 30.8621 20.6542 30.8621 23.9955 27.5208C24.6638 26.8525 24.6638 25.769 23.9955 25.1008L17.9455 19.0508L11.8954 25.1008Z" fill="url(#paint0_linear)"/>
<defs>
<linearGradient id="paint0_linear" x1="27.6179" y1="23.8991" x2="12.1401" y2="8.42126" gradientUnits="userSpaceOnUse">
<stop stop-color="#A64CFF"/>
<stop offset="1" stop-color="#C270FF"/>
</linearGradient>
</defs>
</svg>
