<svg width="48" height="48" viewBox="0 0 48 48" fill="none" xmlns="http://www.w3.org/2000/svg">
<path d="M11.3574 32.191C6.90231 27.7359 6.90231 20.5127 11.3574 16.0576V16.0576C12.2485 15.1666 13.6931 15.1666 14.5841 16.0576L22.6508 24.1243L14.5841 32.191C13.6931 33.082 12.2485 33.082 11.3574 32.191V32.191Z" fill="#892EFF"/>
<path fill-rule="evenodd" clip-rule="evenodd" d="M15.8579 14.7841C14.9669 13.8931 14.9669 12.4484 15.8579 11.5574C20.313 7.10228 27.5362 7.10227 31.9913 11.5574C32.8823 12.4484 32.8823 13.8931 31.9913 14.7841L23.9246 22.8508L15.8579 14.7841ZM25.2016 24.1278L33.2683 16.0611C34.1593 15.1701 35.604 15.1701 36.495 16.0611C40.9501 20.5162 40.9501 27.7394 36.495 32.1945C35.604 33.0855 34.1593 33.0855 33.2683 32.1945L25.2016 24.1278ZM15.8607 33.4678C14.9697 34.3588 14.9697 35.8034 15.8607 36.6944C20.3158 41.1496 27.539 41.1496 31.9941 36.6944C32.8851 35.8034 32.8851 34.3588 31.9941 33.4678L23.9274 25.401L15.8607 33.4678Z" fill="url(#paint0_linear)"/>
<defs>
<linearGradient id="paint0_linear" x1="36.824" y1="31.8655" x2="16.1869" y2="11.2284" gradientUnits="userSpaceOnUse">
<stop stop-color="#A64CFF"/>
<stop offset="1" stop-color="#C270FF"/>
</linearGradient>
</defs>
</svg>
