<svg width="48" height="48" viewBox="0 0 48 48" fill="none" xmlns="http://www.w3.org/2000/svg">
<circle cx="24" cy="35" r="6" fill="#1FCEFF"/>
<circle cx="24" cy="35" r="3" fill="url(#paint0_linear)"/>
<path d="M37.5 26.6487C37.5 26.2943 37.3125 25.9664 37.007 25.7867L30.1744 21.7676V32.7827L35.993 36.2054C36.6596 36.5976 37.5 36.1169 37.5 35.3435V26.6487Z" fill="#0099F7"/>
<path d="M10.5 26.6487C10.5 26.2943 10.6875 25.9664 10.993 25.7868L17.8256 21.7676V32.7827L12.007 36.2054C11.3404 36.5976 10.5 36.1169 10.5 35.3435V26.6487Z" fill="#0099F7"/>
<path fill-rule="evenodd" clip-rule="evenodd" d="M15.9998 34H31.9998V14.1395C31.9998 13.5186 31.7115 12.933 31.2194 12.5544L25.2194 7.93807C24.5004 7.38491 23.4992 7.38491 22.7802 7.93807L16.7802 12.5544C16.2881 12.933 15.9998 13.5186 15.9998 14.1395V34Z" fill="url(#paint1_linear)"/>
<path fill-rule="evenodd" clip-rule="evenodd" d="M22.7971 22.4009C23.5099 21.8663 24.49 21.8663 25.2027 22.4009L28.5999 24.9488L27.3999 26.5488L24.0027 24.0009C24.0011 23.9997 23.9988 23.9997 23.9971 24.0009L20.5999 26.5488L19.3999 24.9488L22.7971 22.4009Z" fill="url(#paint2_linear)"/>
<path fill-rule="evenodd" clip-rule="evenodd" d="M22.7971 16.4009C23.5099 15.8663 24.49 15.8663 25.2027 16.4009L28.5999 18.9488L27.3999 20.5488L24.0027 18.0009C24.0011 17.9997 23.9988 17.9997 23.9971 18.0009L20.5999 20.5488L19.3999 18.9488L22.7971 16.4009Z" fill="url(#paint3_linear)"/>
<defs>
<linearGradient id="paint0_linear" x1="24" y1="32" x2="24" y2="38" gradientUnits="userSpaceOnUse">
<stop offset="0.333333" stop-color="white"/>
<stop offset="1" stop-color="white" stop-opacity="0.7"/>
</linearGradient>
<linearGradient id="paint1_linear" x1="23.9998" y1="7.5232" x2="23.9998" y2="34" gradientUnits="userSpaceOnUse">
<stop stop-color="#1FCEFF"/>
<stop offset="1" stop-color="#11B2FF"/>
</linearGradient>
<linearGradient id="paint2_linear" x1="23.9999" y1="16" x2="23.9999" y2="26.5488" gradientUnits="userSpaceOnUse">
<stop offset="0.333333" stop-color="white"/>
<stop offset="1" stop-color="white" stop-opacity="0.7"/>
</linearGradient>
<linearGradient id="paint3_linear" x1="23.9999" y1="16" x2="23.9999" y2="26.5488" gradientUnits="userSpaceOnUse">
<stop offset="0.333333" stop-color="white"/>
<stop offset="1" stop-color="white" stop-opacity="0.7"/>
</linearGradient>
</defs>
</svg>
