<svg width="36" height="36" viewBox="0 0 36 36" fill="none" xmlns="http://www.w3.org/2000/svg">
<circle cx="18" cy="26.25" r="4.5" fill="#1FCEFF"/>
<circle cx="18" cy="26.25" r="2.25" fill="url(#paint0_linear)"/>
<path d="M28.125 19.9865C28.125 19.7207 27.9843 19.4748 27.7553 19.3401L22.6308 16.3257V24.587L26.9947 27.1541C27.4947 27.4482 28.125 27.0877 28.125 26.5076V19.9865Z" fill="#0099F7"/>
<path d="M7.875 19.9865C7.875 19.7207 8.01566 19.4748 8.24473 19.3401L13.3692 16.3257V24.5871L9.00526 27.1541C8.50529 27.4482 7.875 27.0877 7.875 26.5076V19.9865Z" fill="#0099F7"/>
<path fill-rule="evenodd" clip-rule="evenodd" d="M11.9998 25.5H23.9998V10.6046C23.9998 10.139 23.7835 9.69974 23.4144 9.41579L18.9144 5.95355C18.3752 5.53868 17.6243 5.53868 17.0851 5.95355L12.5851 9.41579C12.216 9.69974 11.9998 10.139 11.9998 10.6046V25.5Z" fill="url(#paint1_linear)"/>
<path fill-rule="evenodd" clip-rule="evenodd" d="M17.0978 16.8007C17.6324 16.3998 18.3674 16.3998 18.902 16.8007L21.4499 18.7116L20.5499 19.9116L18.002 18.0007C18.0008 17.9998 17.9991 17.9998 17.9978 18.0007L15.4499 19.9116L14.5499 18.7116L17.0978 16.8007Z" fill="url(#paint2_linear)"/>
<path fill-rule="evenodd" clip-rule="evenodd" d="M17.0978 12.3007C17.6324 11.8998 18.3674 11.8998 18.902 12.3007L21.4499 14.2116L20.5499 15.4116L18.002 13.5007C18.0008 13.4998 17.9991 13.4998 17.9978 13.5007L15.4499 15.4116L14.5499 14.2116L17.0978 12.3007Z" fill="url(#paint3_linear)"/>
<defs>
<linearGradient id="paint0_linear" x1="18" y1="24" x2="18" y2="28.5" gradientUnits="userSpaceOnUse">
<stop offset="0.333333" stop-color="white"/>
<stop offset="1" stop-color="white" stop-opacity="0.7"/>
</linearGradient>
<linearGradient id="paint1_linear" x1="17.9998" y1="5.6424" x2="17.9998" y2="25.5" gradientUnits="userSpaceOnUse">
<stop stop-color="#1FCEFF"/>
<stop offset="1" stop-color="#11B2FF"/>
</linearGradient>
<linearGradient id="paint2_linear" x1="17.9999" y1="12" x2="17.9999" y2="19.9116" gradientUnits="userSpaceOnUse">
<stop offset="0.333333" stop-color="white"/>
<stop offset="1" stop-color="white" stop-opacity="0.7"/>
</linearGradient>
<linearGradient id="paint3_linear" x1="17.9999" y1="12" x2="17.9999" y2="19.9116" gradientUnits="userSpaceOnUse">
<stop offset="0.333333" stop-color="white"/>
<stop offset="1" stop-color="white" stop-opacity="0.7"/>
</linearGradient>
</defs>
</svg>
