<svg width="36" height="36" viewBox="0 0 36 36" fill="none" xmlns="http://www.w3.org/2000/svg">
<circle cx="18" cy="18" r="12" fill="#0099F7"/>
<circle cx="18" cy="18" r="9.75" fill="url(#paint0_linear)"/>
<path fill-rule="evenodd" clip-rule="evenodd" d="M17.0982 18.4891C17.6328 18.0882 18.3678 18.0882 18.9024 18.4891L21.4503 20.4L20.5503 21.6L18.0024 19.6891C18.0011 19.6882 17.9994 19.6882 17.9982 19.6891L15.4503 21.6L14.5503 20.4L17.0982 18.4891Z" fill="url(#paint1_linear)"/>
<path fill-rule="evenodd" clip-rule="evenodd" d="M17.0982 13.9891C17.6328 13.5882 18.3678 13.5882 18.9024 13.9891L21.4503 15.9L20.5503 17.1L18.0024 15.1891C18.0011 15.1882 17.9994 15.1882 17.9982 15.1891L15.4503 17.1L14.5503 15.9L17.0982 13.9891Z" fill="url(#paint2_linear)"/>
<circle cx="18" cy="18" r="9" stroke="url(#paint3_angular)" stroke-width="1.5"/>
<path fill-rule="evenodd" clip-rule="evenodd" d="M26.25 18H27.75C27.75 12.6152 23.3848 8.25 18 8.25V9.75C22.5563 9.75 26.25 13.4437 26.25 18Z" fill="url(#paint4_linear)"/>
<path fill-rule="evenodd" clip-rule="evenodd" d="M18 9.75L18 8.25C12.6152 8.25 8.25 12.6152 8.25 18L9.75 18C9.75 13.4437 13.4436 9.75 18 9.75Z" fill="url(#paint5_linear)"/>
<path fill-rule="evenodd" clip-rule="evenodd" d="M9.75 18L8.25 18C8.25 23.3848 12.6152 27.75 18 27.75L18 26.25C13.4437 26.25 9.75 22.5564 9.75 18Z" fill="url(#paint6_linear)"/>
<path fill-rule="evenodd" clip-rule="evenodd" d="M18 26.25L18 27.75C23.3848 27.75 27.75 23.3848 27.75 18L26.25 18C26.25 22.5563 22.5563 26.25 18 26.25Z" fill="url(#paint7_linear)"/>
<defs>
<linearGradient id="paint0_linear" x1="18" y1="8.25" x2="18" y2="27.75" gradientUnits="userSpaceOnUse">
<stop stop-color="#1FCEFF"/>
<stop offset="1" stop-color="#11B2FF"/>
</linearGradient>
<linearGradient id="paint1_linear" x1="18.0003" y1="13.6884" x2="18.0003" y2="21.6" gradientUnits="userSpaceOnUse">
<stop offset="0.333333" stop-color="white"/>
<stop offset="1" stop-color="white" stop-opacity="0.7"/>
</linearGradient>
<linearGradient id="paint2_linear" x1="18.0003" y1="13.6884" x2="18.0003" y2="21.6" gradientUnits="userSpaceOnUse">
<stop offset="0.333333" stop-color="white"/>
<stop offset="1" stop-color="white" stop-opacity="0.7"/>
</linearGradient>
<radialGradient id="paint3_angular" cx="0" cy="0" r="1" gradientUnits="userSpaceOnUse" gradientTransform="translate(18 18) rotate(90) scale(9)">
<stop offset="0.2499" stop-color="white" stop-opacity="0"/>
<stop offset="0.25" stop-color="white"/>
<stop offset="0.4999" stop-color="white" stop-opacity="0"/>
<stop offset="0.7499" stop-color="white" stop-opacity="0"/>
<stop offset="0.75" stop-color="white"/>
<stop offset="1" stop-color="white" stop-opacity="0"/>
</radialGradient>
<linearGradient id="paint4_linear" x1="18.375" y1="9" x2="27" y2="18" gradientUnits="userSpaceOnUse">
<stop stop-color="white"/>
<stop offset="1" stop-color="white" stop-opacity="0"/>
</linearGradient>
<linearGradient id="paint5_linear" x1="9" y1="17.625" x2="18" y2="9" gradientUnits="userSpaceOnUse">
<stop stop-color="white"/>
<stop offset="1" stop-color="white" stop-opacity="0"/>
</linearGradient>
<linearGradient id="paint6_linear" x1="17.625" y1="27" x2="9" y2="18" gradientUnits="userSpaceOnUse">
<stop stop-color="white"/>
<stop offset="1" stop-color="white" stop-opacity="0"/>
</linearGradient>
<linearGradient id="paint7_linear" x1="27" y1="18.375" x2="18" y2="27" gradientUnits="userSpaceOnUse">
<stop stop-color="white"/>
<stop offset="1" stop-color="white" stop-opacity="0"/>
</linearGradient>
</defs>
</svg>
