<svg width="48" height="48" viewBox="0 0 48 48" fill="none" xmlns="http://www.w3.org/2000/svg">
<circle cx="24" cy="24" r="16" fill="#0099F7"/>
<circle cx="24" cy="24" r="13" fill="url(#paint0_linear)"/>
<path fill-rule="evenodd" clip-rule="evenodd" d="M22.7976 24.6522C23.5104 24.1176 24.4904 24.1176 25.2032 24.6522L28.6004 27.2001L27.4004 28.8001L24.0032 26.2522C24.0015 26.2509 23.9993 26.2509 23.9976 26.2522L20.6004 28.8001L19.4004 27.2001L22.7976 24.6522Z" fill="url(#paint1_linear)"/>
<path fill-rule="evenodd" clip-rule="evenodd" d="M22.7976 18.6522C23.5104 18.1176 24.4904 18.1176 25.2032 18.6522L28.6004 21.2001L27.4004 22.8001L24.0032 20.2522C24.0015 20.2509 23.9993 20.2509 23.9976 20.2522L20.6004 22.8001L19.4004 21.2001L22.7976 18.6522Z" fill="url(#paint2_linear)"/>
<circle cx="24" cy="24" r="12" stroke="url(#paint3_angular)" stroke-width="2"/>
<path fill-rule="evenodd" clip-rule="evenodd" d="M35 24H37C37 23.9983 37 23.9966 37 23.995C36.9973 16.8176 31.178 11 24 11V13C30.0751 13 35 17.9249 35 24Z" fill="url(#paint4_linear)"/>
<path fill-rule="evenodd" clip-rule="evenodd" d="M24 13L24 11C23.9983 11 23.9966 11 23.995 11C16.8176 11.0027 11 16.822 11 24L13 24C13 17.9249 17.9249 13 24 13Z" fill="url(#paint5_linear)"/>
<path fill-rule="evenodd" clip-rule="evenodd" d="M13 24L11 24C11 24.0017 11 24.0034 11 24.005C11.0027 31.1824 16.822 37 24 37L24 35C17.9249 35 13 30.0751 13 24Z" fill="url(#paint6_linear)"/>
<path fill-rule="evenodd" clip-rule="evenodd" d="M24 35L24 37C24.0017 37 24.0034 37 24.005 37C31.1824 36.9973 37 31.178 37 24L35 24C35 30.0751 30.0751 35 24 35Z" fill="url(#paint7_linear)"/>
<defs>
<linearGradient id="paint0_linear" x1="24" y1="11" x2="24" y2="37" gradientUnits="userSpaceOnUse">
<stop stop-color="#1FCEFF"/>
<stop offset="1" stop-color="#11B2FF"/>
</linearGradient>
<linearGradient id="paint1_linear" x1="24.0004" y1="18.2512" x2="24.0004" y2="28.8001" gradientUnits="userSpaceOnUse">
<stop offset="0.333333" stop-color="white"/>
<stop offset="1" stop-color="white" stop-opacity="0.7"/>
</linearGradient>
<linearGradient id="paint2_linear" x1="24.0004" y1="18.2512" x2="24.0004" y2="28.8001" gradientUnits="userSpaceOnUse">
<stop offset="0.333333" stop-color="white"/>
<stop offset="1" stop-color="white" stop-opacity="0.7"/>
</linearGradient>
<radialGradient id="paint3_angular" cx="0" cy="0" r="1" gradientUnits="userSpaceOnUse" gradientTransform="translate(24 24) rotate(90) scale(12)">
<stop offset="0.2499" stop-color="white" stop-opacity="0"/>
<stop offset="0.25" stop-color="white"/>
<stop offset="0.4999" stop-color="white" stop-opacity="0"/>
<stop offset="0.7499" stop-color="white" stop-opacity="0"/>
<stop offset="0.75" stop-color="white"/>
<stop offset="1" stop-color="white" stop-opacity="0"/>
</radialGradient>
<linearGradient id="paint4_linear" x1="24.5" y1="12" x2="36" y2="24" gradientUnits="userSpaceOnUse">
<stop stop-color="white"/>
<stop offset="1" stop-color="white" stop-opacity="0"/>
</linearGradient>
<linearGradient id="paint5_linear" x1="12" y1="23.5" x2="24" y2="12" gradientUnits="userSpaceOnUse">
<stop stop-color="white"/>
<stop offset="1" stop-color="white" stop-opacity="0"/>
</linearGradient>
<linearGradient id="paint6_linear" x1="23.5" y1="36" x2="12" y2="24" gradientUnits="userSpaceOnUse">
<stop stop-color="white"/>
<stop offset="1" stop-color="white" stop-opacity="0"/>
</linearGradient>
<linearGradient id="paint7_linear" x1="36" y1="24.5" x2="24" y2="36" gradientUnits="userSpaceOnUse">
<stop stop-color="white"/>
<stop offset="1" stop-color="white" stop-opacity="0"/>
</linearGradient>
</defs>
</svg>
