<svg width="48" height="48" viewBox="0 0 48 48" fill="none" xmlns="http://www.w3.org/2000/svg">
<path d="M10 12C10 10.3431 11.3431 9 13 9H35C36.6569 9 38 10.3431 38 12V36C38 37.6569 36.6569 39 35 39H13C11.3431 39 10 37.6569 10 36V12Z" fill="#00AD5A"/>
<path d="M12 12C12 11.4477 12.4477 11 13 11H35C35.5523 11 36 11.4477 36 12V33C36 33.5523 35.5523 34 35 34H13C12.4477 34 12 33.5523 12 33V12Z" fill="#11D96A"/>
<circle cx="14" cy="36" r="1" fill="white"/>
<circle cx="17" cy="36" r="1" fill="white"/>
<circle cx="24" cy="22" r="1.5" fill="white"/>
<path d="M24 22.0001L22.5 18.5001" stroke="white" stroke-linecap="round" stroke-linejoin="round"/>
<path fill-rule="evenodd" clip-rule="evenodd" d="M31.1625 18.4331C29.8512 15.8051 27.1363 14 23.9997 14C20.8631 14 18.1481 15.8051 16.8369 18.4331L18.6206 19.339C19.6013 17.3603 21.6416 16 23.9997 16C26.3578 16 28.3981 17.3603 29.3788 19.339L31.1625 18.4331Z" fill="url(#paint0_linear)"/>
<path fill-rule="evenodd" clip-rule="evenodd" d="M17.5702 17.2377C15.8239 19.5991 15.4482 22.8376 16.8721 25.6324C18.2961 28.4271 21.137 30.0266 24.0739 30.0019L24.0713 28.0013C21.863 28.0258 19.7247 26.8254 18.6541 24.7244C17.5836 22.6233 17.8693 20.1878 19.1871 18.4156L17.5702 17.2377Z" fill="url(#paint1_linear)"/>
<path fill-rule="evenodd" clip-rule="evenodd" d="M22.5387 29.867C25.4266 30.4014 28.5021 29.3195 30.3898 26.8145C32.2774 24.3095 32.4697 21.0549 31.16 18.4261L29.3631 19.3055C30.3531 21.2795 30.2116 23.7276 28.7925 25.6109C27.3734 27.4941 25.0591 28.3049 22.8886 27.8974L22.5387 29.867Z" fill="url(#paint2_linear)"/>
<defs>
<linearGradient id="paint0_linear" x1="17.5" y1="19" x2="30.5" y2="18.5" gradientUnits="userSpaceOnUse">
<stop stop-color="white"/>
<stop offset="1" stop-color="white" stop-opacity="0"/>
</linearGradient>
<linearGradient id="paint1_linear" x1="24.278" y1="29.1537" x2="17.9306" y2="17.7976" gradientUnits="userSpaceOnUse">
<stop stop-color="white"/>
<stop offset="1" stop-color="white" stop-opacity="0"/>
</linearGradient>
<linearGradient id="paint2_linear" x1="30.3082" y1="18.6145" x2="22.8839" y2="29.2977" gradientUnits="userSpaceOnUse">
<stop stop-color="white"/>
<stop offset="1" stop-color="white" stop-opacity="0"/>
</linearGradient>
</defs>
</svg>
