<svg width="36" height="36" viewBox="0 0 36 36" fill="none" xmlns="http://www.w3.org/2000/svg">
<path d="M7.5 9C7.5 7.75736 8.50736 6.75 9.75 6.75H26.25C27.4926 6.75 28.5 7.75736 28.5 9V27C28.5 28.2426 27.4926 29.25 26.25 29.25H9.75C8.50736 29.25 7.5 28.2426 7.5 27V9Z" fill="#00AD5A"/>
<path d="M9 9C9 8.58579 9.33579 8.25 9.75 8.25H26.25C26.6642 8.25 27 8.58579 27 9V24.75C27 25.1642 26.6642 25.5 26.25 25.5H9.75C9.33579 25.5 9 25.1642 9 24.75V9Z" fill="#11D96A"/>
<circle cx="10.5" cy="27" r="0.75" fill="white"/>
<circle cx="12.75" cy="27" r="0.75" fill="white"/>
<circle cx="18" cy="16.5" r="1.125" fill="white"/>
<path d="M18 16.5L16.875 13.875" stroke="white" stroke-width="0.75" stroke-linecap="round" stroke-linejoin="round"/>
<path fill-rule="evenodd" clip-rule="evenodd" d="M23.3719 13.8248C22.3884 11.8538 20.3522 10.5 17.9998 10.5C15.6473 10.5 13.6111 11.8538 12.6277 13.8248L13.9654 14.5042C14.701 13.0202 16.2312 12 17.9998 12C19.7683 12 21.2986 13.0202 22.0341 14.5043L23.3719 13.8248Z" fill="url(#paint0_linear)"/>
<path fill-rule="evenodd" clip-rule="evenodd" d="M13.1776 12.9283C11.8679 14.6993 11.586 17.1282 12.654 19.2243C13.722 21.3203 15.8527 22.52 18.0553 22.5014L18.0534 21.001C16.3972 21.0194 14.7934 20.1191 13.9905 18.5433C13.1876 16.9675 13.4019 15.1408 14.3903 13.8117L13.1776 12.9283Z" fill="url(#paint1_linear)"/>
<path fill-rule="evenodd" clip-rule="evenodd" d="M16.9039 22.4003C19.0699 22.8011 21.3765 21.9896 22.7923 20.1109C24.208 18.2321 24.3522 15.7912 23.3699 13.8196L22.0223 14.4791C22.7648 15.9596 22.6587 17.7957 21.5943 19.2082C20.53 20.6206 18.7942 21.2287 17.1663 20.923L16.9039 22.4003Z" fill="url(#paint2_linear)"/>
<defs>
<linearGradient id="paint0_linear" x1="13.125" y1="14.25" x2="22.875" y2="13.875" gradientUnits="userSpaceOnUse">
<stop stop-color="white"/>
<stop offset="1" stop-color="white" stop-opacity="0"/>
</linearGradient>
<linearGradient id="paint1_linear" x1="18.2084" y1="21.8653" x2="13.4479" y2="13.3482" gradientUnits="userSpaceOnUse">
<stop stop-color="white"/>
<stop offset="1" stop-color="white" stop-opacity="0"/>
</linearGradient>
<linearGradient id="paint2_linear" x1="22.7311" y1="13.9609" x2="17.1629" y2="21.9733" gradientUnits="userSpaceOnUse">
<stop stop-color="white"/>
<stop offset="1" stop-color="white" stop-opacity="0"/>
</linearGradient>
</defs>
</svg>
