<svg width="36" height="36" viewBox="0 0 36 36" fill="none" xmlns="http://www.w3.org/2000/svg">
<path d="M7.5 9C7.5 7.75736 8.50736 6.75 9.75 6.75H23.25L28.5 12V27C28.5 28.2426 27.4926 29.25 26.25 29.25H9.75C8.50736 29.25 7.5 28.2426 7.5 27V9Z" fill="#892EFF"/>
<path d="M9 9C9 8.58579 9.33579 8.25 9.75 8.25H23.6893C23.8883 8.25 24.079 8.32902 24.2197 8.46967L26.7803 11.0303C26.921 11.171 27 11.3617 27 11.5607V27C27 27.4142 26.6642 27.75 26.25 27.75H9.75C9.33579 27.75 9 27.4142 9 27V9Z" fill="url(#paint0_linear)"/>
<path d="M23.25 6.75L28.5 12H25.5C24.2574 12 23.25 10.9926 23.25 9.75V6.75Z" fill="#892EFF"/>
<path fill-rule="evenodd" clip-rule="evenodd" d="M19.8631 20.5052C20.9905 19.8585 21.75 18.643 21.75 17.25C21.75 15.1789 20.0711 13.5 18 13.5C15.9289 13.5 14.25 15.1789 14.25 17.25C14.25 18.643 15.0095 19.8585 16.1369 20.5052L16.2813 21H19.7187L19.8631 20.5052ZM19.5 21.75H16.5C16.5 22.5784 17.1716 23.25 18 23.25C18.8284 23.25 19.5 22.5784 19.5 21.75Z" fill="url(#paint1_linear)"/>
<path fill-rule="evenodd" clip-rule="evenodd" d="M17.1841 16.8087L18.0004 17.625L18.813 16.8124L19.3434 17.3427L18.3754 18.3107V19.5H17.6254V18.3107L16.6538 17.339L17.1841 16.8087Z" fill="#C270FF"/>
<defs>
<linearGradient id="paint0_linear" x1="20.25" y1="27.75" x2="20.25" y2="8.25" gradientUnits="userSpaceOnUse">
<stop stop-color="#A64CFF"/>
<stop offset="1" stop-color="#C270FF"/>
</linearGradient>
<linearGradient id="paint1_linear" x1="18" y1="13.5" x2="18" y2="23.25" gradientUnits="userSpaceOnUse">
<stop offset="0.333333" stop-color="white"/>
<stop offset="1" stop-color="white" stop-opacity="0.7"/>
</linearGradient>
</defs>
</svg>
