<svg width="48" height="48" viewBox="0 0 48 48" fill="none" xmlns="http://www.w3.org/2000/svg">
<path d="M10 12C10 10.3431 11.3431 9 13 9H31L38 16V36C38 37.6569 36.6569 39 35 39H13C11.3431 39 10 37.6569 10 36V12Z" fill="#892EFF"/>
<path d="M12 12C12 11.4477 12.4477 11 13 11H31.5858C31.851 11 32.1054 11.1054 32.2929 11.2929L35.7071 14.7071C35.8946 14.8946 36 15.149 36 15.4142V36C36 36.5523 35.5523 37 35 37H13C12.4477 37 12 36.5523 12 36V12Z" fill="url(#paint0_linear)"/>
<path d="M31 9L38 16H34C32.3431 16 31 14.6569 31 13V9Z" fill="#892EFF"/>
<path fill-rule="evenodd" clip-rule="evenodd" d="M26.4841 27.3403C27.9874 26.478 29 24.8573 29 23C29 20.2386 26.7614 18 24 18C21.2386 18 19 20.2386 19 23C19 24.8573 20.0126 26.478 21.5159 27.3403L21.7083 28H26.2917L26.4841 27.3403ZM26 29H22C22 30.1046 22.8954 31 24 31C25.1046 31 26 30.1046 26 29Z" fill="url(#paint1_linear)"/>
<path fill-rule="evenodd" clip-rule="evenodd" d="M22.9122 22.4116L24.0006 23.5L25.0841 22.4165L25.7912 23.1236L24.5006 24.4142V26H23.5006V24.4142L22.2051 23.1187L22.9122 22.4116Z" fill="#C270FF"/>
<defs>
<linearGradient id="paint0_linear" x1="27" y1="37" x2="27" y2="11" gradientUnits="userSpaceOnUse">
<stop stop-color="#A64CFF"/>
<stop offset="1" stop-color="#C270FF"/>
</linearGradient>
<linearGradient id="paint1_linear" x1="24" y1="18" x2="24" y2="31" gradientUnits="userSpaceOnUse">
<stop offset="0.333333" stop-color="white"/>
<stop offset="1" stop-color="white" stop-opacity="0.7"/>
</linearGradient>
</defs>
</svg>
