<svg width="48" height="48" viewBox="0 0 48 48" fill="none" xmlns="http://www.w3.org/2000/svg">
<circle cx="24" cy="24" r="15.5" fill="#0036DB" stroke="#0036DB"/>
<circle cx="24" cy="24" r="13" fill="url(#paint0_linear)"/>
<path fill-rule="evenodd" clip-rule="evenodd" d="M25 8H23V11H25V8ZM25 37H23V40H25V37ZM8 25V23H11V25H8ZM37 23V25H40V23H37Z" fill="#1271FF"/>
<path fill-rule="evenodd" clip-rule="evenodd" d="M25.105 16.0137L27.0368 16.5313L26.4978 18.543C28.5645 19.4906 30 21.5776 30 24C30 25.2958 29.5892 26.4956 28.8908 27.4764L30.3641 28.9498L28.9499 30.364L27.4766 28.8907C26.4958 29.5892 25.2959 30 24 30C23.2638 30 22.5586 29.8674 21.9069 29.6248L20.8658 31.4282L19.1337 30.4282L20.1757 28.6235C18.8467 27.5229 18 25.8603 18 24C18 22.7041 18.4108 21.5042 19.1093 20.5234L17.6362 19.0503L19.0504 17.6361L20.5236 19.1092C21.5044 18.4108 22.7042 18 24 18C24.1908 18 24.3795 18.0089 24.5657 18.0263L25.105 16.0137ZM21 22H24V25H21V22ZM25 24H27V26H25V24Z" fill="url(#paint1_linear)"/>
<defs>
<linearGradient id="paint0_linear" x1="32.6667" y1="37" x2="33.0319" y2="10.9984" gradientUnits="userSpaceOnUse">
<stop stop-color="#2049EE"/>
<stop offset="1" stop-color="#1271FF"/>
</linearGradient>
<linearGradient id="paint1_linear" x1="24.0002" y1="16.0137" x2="24.0002" y2="31.4282" gradientUnits="userSpaceOnUse">
<stop offset="0.333333" stop-color="white"/>
<stop offset="1" stop-color="white" stop-opacity="0.7"/>
</linearGradient>
</defs>
</svg>
