<svg width="36" height="36" viewBox="0 0 36 36" fill="none" xmlns="http://www.w3.org/2000/svg">
<circle cx="18" cy="18" r="11.625" fill="#0036DB" stroke="#0036DB" stroke-width="0.75"/>
<circle cx="18" cy="18" r="9.75" fill="url(#paint0_linear)"/>
<path fill-rule="evenodd" clip-rule="evenodd" d="M18.75 6H17.25V8.25H18.75V6ZM18.75 27.75H17.25V30H18.75V27.75ZM6 18.75V17.25H8.25V18.75H6ZM27.75 17.25V18.75H30V17.25H27.75Z" fill="#1271FF"/>
<path fill-rule="evenodd" clip-rule="evenodd" d="M18.8287 12.0103L20.2776 12.3985L19.8733 13.9073C21.4234 14.6179 22.5 16.1832 22.5 18C22.5 18.9718 22.1919 19.8717 21.6681 20.6073L22.7731 21.7123L21.7124 22.773L20.6075 21.668C19.8718 22.1919 18.9719 22.5 18 22.5C17.4479 22.5 16.9189 22.4006 16.4302 22.2186L15.6493 23.5711L14.3503 22.8211L15.1317 21.4676C14.135 20.6422 13.5 19.3952 13.5 18C13.5 17.0281 13.8081 16.1282 14.332 15.3925L13.2272 14.2877L14.2878 13.2271L15.3927 14.3319C16.1283 13.8081 17.0282 13.5 18 13.5C18.1431 13.5 18.2846 13.5067 18.4243 13.5197L18.8287 12.0103ZM15.75 16.5H18V18.75H15.75V16.5ZM18.75 18H20.25V19.5H18.75V18Z" fill="url(#paint1_linear)"/>
<defs>
<linearGradient id="paint0_linear" x1="24.5" y1="27.75" x2="24.774" y2="8.24878" gradientUnits="userSpaceOnUse">
<stop stop-color="#2049EE"/>
<stop offset="1" stop-color="#1271FF"/>
</linearGradient>
<linearGradient id="paint1_linear" x1="18.0001" y1="12.0103" x2="18.0001" y2="23.5712" gradientUnits="userSpaceOnUse">
<stop offset="0.333333" stop-color="white"/>
<stop offset="1" stop-color="white" stop-opacity="0.7"/>
</linearGradient>
</defs>
</svg>
