<svg width="36" height="36" viewBox="0 0 36 36" fill="none" xmlns="http://www.w3.org/2000/svg">
<circle cx="18" cy="18" r="11.625" fill="#0036DB" stroke="#0036DB" stroke-width="0.75"/>
<circle cx="18" cy="18" r="4.5" fill="url(#paint0_linear)"/>
<path fill-rule="evenodd" clip-rule="evenodd" d="M10.5 18C10.5 13.8579 13.8579 10.5 18 10.5C18 10.5 18 10.5 18.0001 10.5V9C18 9 18 9 18 9C13.0294 9 9 13.0294 9 18C9 21.4353 10.9246 24.421 13.7545 25.9377L14.4621 24.6148C12.1039 23.3508 10.5 20.8627 10.5 18Z" fill="url(#paint1_linear)"/>
<path fill-rule="evenodd" clip-rule="evenodd" d="M25.5 18C25.5 13.8579 22.1421 10.5 18 10.5C18 10.5 18 10.5 17.9999 10.5V9C18 9 18 9 18 9C22.9706 9 27 13.0294 27 18C27 21.4353 25.0754 24.421 22.2455 25.9377L21.5379 24.6148C23.8961 23.3508 25.5 20.8627 25.5 18Z" fill="url(#paint2_linear)"/>
<path d="M26.5152 10.0152C26.6616 9.86872 26.6616 9.63128 26.5152 9.48483C26.3687 9.33839 26.1313 9.33839 25.9848 9.48483L26.5152 10.0152ZM19.0152 17.5152L26.5152 10.0152L25.9848 9.48483L18.4848 16.9848L19.0152 17.5152Z" fill="white"/>
<circle cx="18" cy="18" r="1.5" fill="url(#paint3_linear)"/>
<rect x="18.75" y="18.75" width="11.25" height="11.25" rx="1.5" fill="#1271FF"/>
<path fill-rule="evenodd" clip-rule="evenodd" d="M21.75 21H22.5V24H23.25V24.75H22.5H21.75H21V24H21.75V21ZM21.75 25.5H22.5V27.75H21.75V25.5Z" fill="white"/>
<path fill-rule="evenodd" clip-rule="evenodd" d="M26.25 21H27V22.5H27.75V23.25H27H26.25H25.5V22.5H26.25V21ZM26.25 24H27V27.75H26.25V24Z" fill="white"/>
<defs>
<linearGradient id="paint0_linear" x1="21" y1="22.5" x2="21.1264" y2="13.4994" gradientUnits="userSpaceOnUse">
<stop stop-color="#2049EE"/>
<stop offset="1" stop-color="#1271FF"/>
</linearGradient>
<linearGradient id="paint1_linear" x1="17.625" y1="10.125" x2="13.5" y2="25.9377" gradientUnits="userSpaceOnUse">
<stop stop-color="#8EA6F0"/>
<stop offset="1" stop-color="white"/>
</linearGradient>
<linearGradient id="paint2_linear" x1="18.375" y1="10.125" x2="22.5" y2="25.9377" gradientUnits="userSpaceOnUse">
<stop stop-color="#8EA6F0"/>
<stop offset="1" stop-color="#0036DB"/>
</linearGradient>
<linearGradient id="paint3_linear" x1="18" y1="16.5" x2="18" y2="19.5" gradientUnits="userSpaceOnUse">
<stop offset="0.333333" stop-color="white"/>
<stop offset="1" stop-color="white" stop-opacity="0.7"/>
</linearGradient>
</defs>
</svg>
