<svg width="40" height="40" viewBox="0 0 40 40" fill="none" xmlns="http://www.w3.org/2000/svg">
<path d="M21.3326 32.6022L21.2959 31.9249C21.231 31.9051 21.1633 31.8882 21.0983 31.8656C21.0476 31.8515 20.9939 31.8346 20.9431 31.8148C20.4634 31.6483 20.0203 31.4112 19.6196 31.1149C19.5744 31.0839 19.5293 31.05 19.4869 31.0133C19.4023 30.9484 19.3204 30.8779 19.2414 30.8045C19.1144 30.6888 18.9902 30.5702 18.8745 30.4404C18.7588 30.3134 18.6516 30.1808 18.55 30.0425C18.4089 29.8534 18.2819 29.6531 18.1718 29.447C18.1464 29.3991 18.121 29.3539 18.0984 29.3059C18.0307 29.1705 17.9686 29.0294 17.915 28.8883C17.8868 28.8205 17.8642 28.7556 17.8416 28.6879C17.7965 28.5581 17.757 28.4226 17.7259 28.2871C17.7118 28.2364 17.7005 28.1856 17.6892 28.1348C17.6723 28.067 17.661 27.9965 17.6497 27.9287C17.6413 27.8921 17.6356 27.8582 17.6328 27.8215C17.6074 27.6691 17.5933 27.5167 17.5848 27.3615C17.5792 27.2655 17.5763 27.1724 17.5763 27.0765C17.5763 26.2919 17.757 25.5469 18.0787 24.8837C18.533 23.9552 19.2611 23.1876 20.1614 22.6909C20.2348 22.6514 20.3082 22.6119 20.3815 22.5752C20.4549 22.5385 20.5311 22.5046 20.6073 22.4708C20.6581 22.4482 20.7117 22.4284 20.7625 22.4087L20.7653 22.4059C20.7682 22.4059 20.7682 22.4059 20.771 22.403C20.8161 22.3861 20.8613 22.3692 20.9064 22.3522C21.0137 22.3155 21.1237 22.2817 21.2338 22.2506C21.2366 22.2506 21.2395 22.2478 21.2423 22.2478C21.2931 22.2337 21.3439 22.2196 21.3947 22.2083C21.4144 22.2027 21.437 22.1998 21.4568 22.1942C21.533 22.1744 21.6092 22.1603 21.6882 22.1462C21.7249 22.1378 21.7672 22.1321 21.8039 22.1265C21.9591 22.1011 22.1171 22.0841 22.2752 22.0757C22.3768 22.0672 22.484 22.0644 22.5884 22.0644C22.6957 22.0644 22.8029 22.0672 22.9073 22.0757C22.9327 22.0757 22.9581 22.0785 22.9835 22.0813C23.071 22.1519 23.1613 22.2224 23.2544 22.2873C23.7427 22.6486 24.2761 22.9533 24.8405 23.1932C24.9505 23.2412 25.0606 23.2835 25.1707 23.3259C25.1848 23.3315 25.1961 23.3372 25.2102 23.34C25.5432 23.467 25.8875 23.5657 26.2402 23.6448C26.418 23.6843 26.5987 23.7181 26.7821 23.7464C26.8724 23.7605 26.9655 23.7718 27.0587 23.783C27.149 23.7943 27.2421 23.8056 27.3352 23.8113C27.4792 23.8226 27.6259 23.831 27.7727 23.8367C27.8489 23.8395 27.9222 23.8395 27.9984 23.8395C28.5008 23.8395 28.9918 23.7943 29.4659 23.704C33.2081 23.0154 36.0386 19.7361 36.0386 15.7993C36.0386 15.2264 35.9794 14.6704 35.8637 14.1314C35.2146 12.4805 34.2974 10.965 33.1629 9.63577C32.8553 9.27454 32.5336 8.92742 32.1949 8.59159C29.3079 5.75536 25.3428 4 20.9742 4C13.267 4 6.82972 9.45233 5.31424 16.708C5.09129 17.7691 4.97559 18.8697 4.97559 19.9986C4.97559 22.1011 5.38197 24.1104 6.11854 25.9476C7.71869 29.9437 10.8879 33.1468 14.8615 34.7893C16.7466 35.571 18.8096 36 20.9742 36C23.6524 36 26.1782 35.3396 28.3992 34.1769C29.2825 33.7113 30.1207 33.1666 30.8967 32.5514C34.1591 29.9691 36.3886 26.1423 36.874 21.7878C35.4008 24.6833 32.5166 26.735 29.1245 27.037C28.8394 27.0624 28.5487 27.0765 28.2552 27.0765H28.2101C28.0041 27.0765 27.8009 27.068 27.6005 27.0539C27.2054 27.0285 26.816 26.9777 26.435 26.9043C26.3475 26.8874 26.26 26.8704 26.1725 26.8507C26.0314 26.8197 25.8903 26.7858 25.752 26.7491C25.6335 26.7181 25.515 26.6842 25.3993 26.6475C25.2158 26.5911 25.0352 26.529 24.8574 26.4612C24.0051 26.1423 23.2121 25.7049 22.4953 25.1715C22.707 26.0718 23.0456 26.9241 23.4887 27.7058C23.6637 28.0134 23.8556 28.3097 24.0616 28.5948C24.2535 28.86 24.4567 29.1169 24.674 29.3596C24.7953 29.495 24.9223 29.6305 25.0521 29.7575C25.1142 29.8196 25.1763 29.8816 25.2412 29.9437C25.2525 29.955 25.2666 29.9691 25.2807 29.9804C25.3005 30.0002 25.3202 30.0171 25.34 30.034C25.3597 30.0538 25.3823 30.0736 25.4049 30.0933C25.4134 30.1018 25.419 30.1102 25.4275 30.1159C25.4924 30.1751 25.5601 30.2344 25.6278 30.2909C25.6307 30.2965 25.6363 30.2993 25.6391 30.2993C25.6899 30.3445 25.7407 30.3868 25.7944 30.4291C25.8903 30.511 25.9891 30.5872 26.0879 30.6634C26.1838 30.7339 26.2798 30.8045 26.3814 30.8722C26.3926 30.8807 26.4068 30.8891 26.418 30.8976C25.055 31.9672 23.3363 32.6022 21.4709 32.6022H21.3326Z" fill="url(#paint0_linear)"/>
<path d="M26.4941 30.8722C25.6107 31.6116 24.4734 32.0603 23.2317 32.0632H23.2148C23.2148 32.0632 23.2119 32.0632 23.2091 32.0632C23.037 32.0829 22.8592 32.0914 22.6814 32.0914C22.2411 32.0914 21.8178 32.0349 21.4143 31.9249H21.4086C21.3437 31.9051 21.276 31.8882 21.2111 31.8656C21.1603 31.8515 21.1066 31.8346 21.0558 31.8148C20.5761 31.6483 20.133 31.4113 19.7323 31.1149C19.6871 31.0839 19.642 31.05 19.5996 31.0133C19.515 30.9484 19.4331 30.8779 19.3541 30.8045C19.2271 30.6888 19.1029 30.5703 18.9872 30.4405C18.8715 30.3135 18.7643 30.1808 18.6627 30.0425C18.5216 29.8535 18.3946 29.6531 18.2845 29.4471C18.2591 29.3991 18.2337 29.3539 18.2112 29.306C18.1434 29.1705 18.0813 29.0294 18.0277 28.8883C17.9995 28.8206 17.9769 28.7556 17.9543 28.6879C17.9092 28.5581 17.8697 28.4226 17.8386 28.2872C17.8245 28.2364 17.8132 28.1856 17.8019 28.1348C17.785 28.0671 17.7737 27.9965 17.7624 27.9288C17.754 27.8921 17.7483 27.8582 17.7455 27.8215C17.7201 27.6691 17.706 27.5167 17.6975 27.3615C17.6919 27.2656 17.6891 27.1724 17.6891 27.0765C17.6891 25.1885 18.7332 23.5432 20.2741 22.6909C20.3475 22.6514 20.4209 22.6119 20.4942 22.5752C20.5676 22.5385 20.6438 22.5047 20.72 22.4708C20.7708 22.4482 20.8244 22.4285 20.8752 22.4087L20.8781 22.4059C20.8809 22.4059 20.8809 22.4059 20.8837 22.4031C20.9289 22.3861 20.974 22.3692 21.0192 22.3523C21.1264 22.3156 21.2365 22.2817 21.3465 22.2507C21.3493 22.2507 21.3522 22.2478 21.355 22.2478C21.4058 22.2337 21.4566 22.2196 21.5074 22.2083C21.5271 22.2027 21.5497 22.1999 21.5695 22.1942C21.6457 22.1745 21.7219 22.1604 21.8009 22.1462C21.8376 22.1378 21.8799 22.1321 21.9166 22.1265C22.0718 22.1011 22.2298 22.0842 22.3879 22.0757C22.4895 22.0672 22.5967 22.0644 22.7011 22.0644C22.8084 22.0644 22.9156 22.0672 23.02 22.0757C22.9072 22.0023 22.7914 21.9318 22.6701 21.8669C22.5883 21.8217 22.5064 21.7794 22.4218 21.7399C21.7106 21.3984 20.9147 21.2065 20.0709 21.2065C19.8762 21.2065 19.6815 21.2178 19.4924 21.2375C16.7578 21.5254 14.6299 23.8367 14.6299 26.6475C14.6299 28.5045 15.5612 30.1441 16.9807 31.1262C16.9666 31.1178 16.9525 31.1093 16.9384 31.098H16.9045C18.2224 32.0462 19.8367 32.6022 21.5836 32.6022C23.449 32.6022 25.1677 31.9672 26.5308 30.8976C26.5195 30.8892 26.5054 30.8807 26.4941 30.8722ZM19.4162 32.0491C19.2948 32.0349 19.1735 32.0152 19.055 31.9954C19.1763 32.0152 19.2977 32.0349 19.4162 32.0491ZM18.911 31.9644C18.7784 31.9362 18.6486 31.9023 18.5188 31.8628C18.6458 31.9023 18.7784 31.9362 18.911 31.9644ZM18.4341 31.8402C18.2761 31.7894 18.1208 31.733 17.9713 31.6709C18.1237 31.733 18.2761 31.7894 18.4341 31.8402ZM17.8894 31.6314C17.7709 31.5778 17.6524 31.5241 17.5395 31.4621C17.6524 31.5241 17.7709 31.5806 17.8894 31.6314ZM17.404 31.3887C17.3081 31.3351 17.2178 31.2786 17.1246 31.2194C17.2149 31.2786 17.3081 31.3351 17.404 31.3887ZM19.5629 32.066C19.7295 32.0801 19.8988 32.0914 20.0709 32.0914C19.8988 32.0914 19.7323 32.0801 19.5629 32.066Z" fill="#892EFF"/>
<path d="M22.7431 19.4059C23.3946 19.4059 23.9228 18.8778 23.9228 18.2263C23.9228 17.5748 23.3946 17.0466 22.7431 17.0466C22.0916 17.0466 21.5635 17.5748 21.5635 18.2263C21.5635 18.8778 22.0916 19.4059 22.7431 19.4059Z" fill="url(#paint1_linear)"/>
<path d="M6.23133 25.9476C5.33389 26.3992 4.48443 26.9325 3.69424 27.5393C3.24552 26.3286 3 25.022 3 23.6561C3 21.0287 3.90872 18.6129 5.42702 16.708C5.20407 17.7691 5.08837 18.8698 5.08837 19.9986C5.08837 22.1011 5.49475 24.1104 6.23133 25.9476Z" fill="#C270FF"/>
<defs>
<linearGradient id="paint0_linear" x1="24.9121" y1="36" x2="24.9121" y2="4" gradientUnits="userSpaceOnUse">
<stop stop-color="#A64CFF"/>
<stop offset="1" stop-color="#C270FF"/>
</linearGradient>
<linearGradient id="paint1_linear" x1="22.7431" y1="17.0466" x2="22.7431" y2="19.4059" gradientUnits="userSpaceOnUse">
<stop offset="0.333333" stop-color="white"/>
<stop offset="1" stop-color="white" stop-opacity="0.7"/>
</linearGradient>
</defs>
</svg>
