<svg width="40" height="40" viewBox="0 0 40 40" fill="none" xmlns="http://www.w3.org/2000/svg">
<circle cx="20" cy="20" r="16" fill="#0099F7"/>
<circle cx="20" cy="20" r="16" fill="#0099F7"/>
<circle cx="20" cy="20" r="13" fill="url(#paint0_linear)"/>
<path fill-rule="evenodd" clip-rule="evenodd" d="M31 20H33C33 19.9983 33 19.9966 33 19.995C32.9973 12.8176 27.178 7 20 7V9C26.0751 9 31 13.9249 31 20Z" fill="url(#paint1_linear)"/>
<path fill-rule="evenodd" clip-rule="evenodd" d="M20 9L20 7C19.9983 7 19.9966 7 19.995 7C12.8176 7.00272 7 12.822 7 20L9 20C9 13.9249 13.9249 9 20 9Z" fill="url(#paint2_linear)"/>
<path fill-rule="evenodd" clip-rule="evenodd" d="M9 20L7 20C7 20.0017 7 20.0034 7 20.005C7.00272 27.1824 12.822 33 20 33L20 31C13.9249 31 9 26.0751 9 20Z" fill="url(#paint3_linear)"/>
<path fill-rule="evenodd" clip-rule="evenodd" d="M20 31L20 33C20.0017 33 20.0034 33 20.005 33C27.1824 32.9973 33 27.178 33 20L31 20C31 26.0751 26.0751 31 20 31Z" fill="url(#paint4_linear)"/>
<path fill-rule="evenodd" clip-rule="evenodd" d="M16.2939 19.9007L20.2828 23.8897L20.2578 23.9147L20.7981 25.9988C20.9629 26.6344 21.7559 26.8504 22.2203 26.3861L24.1608 24.4456C24.3735 24.2328 24.4578 23.9234 24.3823 23.6322L23.7368 21.1427L26.8358 18.0437C27.0215 17.858 27.1108 17.5969 27.0777 17.3365L26.6555 14.0096C26.6068 13.6255 26.3043 13.323 25.9202 13.2742L22.5933 12.852C22.3328 12.819 22.0717 12.9083 21.8861 13.0939L18.6378 16.3422L16.5514 15.8013C16.2601 15.7258 15.9507 15.81 15.738 16.0228L13.7975 17.9633C13.3332 18.4276 13.5491 19.2206 14.1847 19.3854L16.2688 19.9257L16.2939 19.9007ZM15.4951 20.1935C15.476 20.2117 15.4571 20.2302 15.4383 20.2489C14.5147 21.1726 14.3192 22.5486 14.8519 23.6637L13.6918 24.8239C13.3013 25.2144 13.3013 25.8476 13.6918 26.2381C14.0823 26.6286 14.7155 26.6286 15.106 26.2381L16.2661 25.078C17.3813 25.6107 18.7573 25.4152 19.681 24.4916C19.6997 24.4728 19.7182 24.4539 19.7363 24.4347L18.322 23.0204C18.311 23.0325 18.2997 23.0444 18.288 23.0561C17.8975 23.4466 17.2643 23.4466 16.8738 23.0561C16.4832 22.6656 16.4832 22.0324 16.8738 21.6419C16.8855 21.6302 16.8974 21.6189 16.9095 21.6079L15.4951 20.1935Z" fill="url(#paint5_linear)"/>
<defs>
<linearGradient id="paint0_linear" x1="20" y1="7" x2="20" y2="33" gradientUnits="userSpaceOnUse">
<stop stop-color="#1FCEFF"/>
<stop offset="1" stop-color="#11B2FF"/>
</linearGradient>
<linearGradient id="paint1_linear" x1="20.5" y1="8" x2="32" y2="20" gradientUnits="userSpaceOnUse">
<stop stop-color="white"/>
<stop offset="1" stop-color="white" stop-opacity="0"/>
</linearGradient>
<linearGradient id="paint2_linear" x1="8" y1="19.5" x2="20" y2="8" gradientUnits="userSpaceOnUse">
<stop stop-color="white"/>
<stop offset="1" stop-color="white" stop-opacity="0"/>
</linearGradient>
<linearGradient id="paint3_linear" x1="19.5" y1="32" x2="8" y2="20" gradientUnits="userSpaceOnUse">
<stop stop-color="white"/>
<stop offset="1" stop-color="white" stop-opacity="0"/>
</linearGradient>
<linearGradient id="paint4_linear" x1="32" y1="20.5" x2="20" y2="32" gradientUnits="userSpaceOnUse">
<stop stop-color="white"/>
<stop offset="1" stop-color="white" stop-opacity="0"/>
</linearGradient>
<linearGradient id="paint5_linear" x1="26.5405" y1="13.643" x2="13.8186" y2="26.3649" gradientUnits="userSpaceOnUse">
<stop offset="0.333333" stop-color="white"/>
<stop offset="1" stop-color="white" stop-opacity="0.7"/>
</linearGradient>
</defs>
</svg>
