<svg width="40" height="40" viewBox="0 0 40 40" fill="none" xmlns="http://www.w3.org/2000/svg">
<path d="M20.0005 20L8.00049 13V27L20.0005 34V20Z" fill="#1271FF"/>
<path d="M20 20L32 13V27L20 34V20Z" fill="url(#paint0_linear)"/>
<path d="M20 20L8 13L20 6L32 13L20 20Z" fill="url(#paint1_linear)"/>
<path fill-rule="evenodd" clip-rule="evenodd" d="M31.7222 13.2328L19.9998 6.46484L8.27734 13.2328L8.27734 26.7687L19.9998 33.5366L31.7222 26.7687V13.2328ZM21.4998 3.86677C20.5716 3.33087 19.428 3.33087 18.4998 3.86677L6.77734 10.6347C5.84914 11.1706 5.27734 12.161 5.27734 13.2328V26.7687C5.27734 27.8405 5.84914 28.8309 6.77734 29.3668L18.4998 36.1347C19.428 36.6706 20.5716 36.6706 21.4998 36.1347L33.2222 29.3668C34.1504 28.8309 34.7222 27.8405 34.7222 26.7687V13.2328C34.7222 12.161 34.1504 11.1706 33.2222 10.6347L21.4998 3.86677Z" fill="#0036DB"/>
<defs>
<linearGradient id="paint0_linear" x1="30" y1="34" x2="30.5161" y2="13.0072" gradientUnits="userSpaceOnUse">
<stop stop-color="#2049EE"/>
<stop offset="1" stop-color="#1271FF"/>
</linearGradient>
<linearGradient id="paint1_linear" x1="28" y1="20" x2="28.1147" y2="5.9973" gradientUnits="userSpaceOnUse">
<stop stop-color="#2049EE"/>
<stop offset="1" stop-color="#1271FF"/>
</linearGradient>
</defs>
</svg>
