<svg width="40" height="40" viewBox="0 0 40 40" fill="none" xmlns="http://www.w3.org/2000/svg">
<path d="M16 28H24V33H16V28Z" fill="#C270FF"/>
<path d="M12 36H28C28 34.3431 26.6569 33 25 33H15C13.3431 33 12 34.3431 12 36Z" fill="#892EFF"/>
<path d="M4 7C4 5.89543 4.89543 5 6 5H34C35.1046 5 36 5.89543 36 7V26C36 27.1046 35.1046 28 34 28H6C4.89543 28 4 27.1046 4 26V7Z" fill="#892EFF"/>
<rect x="6" y="25" width="3" height="1" fill="white"/>
<path d="M6 7H34V24H6V7Z" fill="url(#paint0_linear)"/>
<path fill-rule="evenodd" clip-rule="evenodd" d="M11 9H8V12H11V9ZM16 9H13V12H16V9ZM8 14H11V17H8V14ZM21 9H18V12H21V9ZM13 14H16V17H13V14ZM11 19H8V22H11V19Z" fill="url(#paint1_linear)"/>
<path fill-rule="evenodd" clip-rule="evenodd" d="M26 15C26 17.2091 24.2091 19 22 19C24.2091 19 26 20.7909 26 23C26 20.7909 27.7909 19 30 19C27.7909 19 26 17.2091 26 15Z" fill="white"/>
<path fill-rule="evenodd" clip-rule="evenodd" d="M29.7859 15C29.7859 13.9388 28.9288 13.0778 27.8691 13.0714C28.9234 13.0652 29.7771 12.213 29.786 11.1594C29.7949 12.2169 30.6549 13.0714 31.7145 13.0714C30.6494 13.0714 29.7859 13.9348 29.7859 15Z" fill="white"/>
<defs>
<linearGradient id="paint0_linear" x1="23.5" y1="24" x2="23.5" y2="7" gradientUnits="userSpaceOnUse">
<stop stop-color="#A64CFF"/>
<stop offset="1" stop-color="#C270FF"/>
</linearGradient>
<linearGradient id="paint1_linear" x1="14.5" y1="9" x2="14.5" y2="22" gradientUnits="userSpaceOnUse">
<stop offset="0.333333" stop-color="white"/>
<stop offset="1" stop-color="white" stop-opacity="0.7"/>
</linearGradient>
</defs>
</svg>
