<svg width="40" height="40" viewBox="0 0 40 40" fill="none" xmlns="http://www.w3.org/2000/svg">
<path d="M14 5.5C14 4.39543 14.8954 3.5 16 3.5H24C25.1046 3.5 26 4.39543 26 5.5V9.5H14V5.5Z" stroke="#00AD5A" stroke-width="2"/>
<rect x="5" y="7" width="30" height="4" rx="1" fill="#11D96A"/>
<path d="M7 11H33L32.0768 34.0799C32.0339 35.1526 31.1519 36 30.0784 36H9.9216C8.84813 36 7.9661 35.1525 7.9232 34.0799L7 11Z" fill="url(#paint0_linear)"/>
<mask id="mask0" mask-type="alpha" maskUnits="userSpaceOnUse" x="7" y="11" width="26" height="25">
<path d="M7 11H33L32.0768 34.0799C32.0339 35.1526 31.1519 36 30.0784 36H9.9216C8.84813 36 7.9661 35.1525 7.9232 34.0799L7 11Z" fill="url(#paint1_linear)"/>
</mask>
<g mask="url(#mask0)">
<rect width="26" height="1" transform="matrix(-1 0 0 1 33 11)" fill="#00AD5A"/>
</g>
<path opacity="0.6" d="M10.5 14H17V33H11L10.5 14Z" fill="#00AD5A"/>
<path opacity="0.6" d="M23 14H29.5L29 33H23V14Z" fill="#00AD5A"/>
<path fill-rule="evenodd" clip-rule="evenodd" d="M19.0008 24.5864L15.7072 21.2928L14.293 22.707L20.0003 28.4144L25.7077 22.707L24.2934 21.2928L21.0008 24.5855V16.9292H19.0008V24.5864Z" fill="url(#paint2_linear)"/>
<defs>
<linearGradient id="paint0_linear" x1="20" y1="10.0741" x2="20" y2="36" gradientUnits="userSpaceOnUse">
<stop stop-color="#11D96A"/>
<stop offset="1" stop-color="#00BE63"/>
</linearGradient>
<linearGradient id="paint1_linear" x1="20" y1="10.0741" x2="20" y2="36" gradientUnits="userSpaceOnUse">
<stop stop-color="#11D96A"/>
<stop offset="1" stop-color="#00BE63"/>
</linearGradient>
<linearGradient id="paint2_linear" x1="20.0003" y1="16.9292" x2="20.0003" y2="28.4144" gradientUnits="userSpaceOnUse">
<stop stop-color="white" stop-opacity="0.7"/>
<stop offset="0.648641" stop-color="white"/>
</linearGradient>
</defs>
</svg>
