<svg fill="none" height="40" viewBox="0 0 40 40" width="40" xmlns="http://www.w3.org/2000/svg" xmlns:xlink="http://www.w3.org/1999/xlink">
  <linearGradient id="a" gradientUnits="userSpaceOnUse" x1="23.75" x2="23.75" y1="34" y2="12">
    <stop offset="0" stop-color="#a64cff"/>
    <stop offset="1" stop-color="#c270ff"/>
  </linearGradient>
  <linearGradient id="b" gradientUnits="userSpaceOnUse" x1="20" x2="20" y1="17" y2="29">
    <stop offset=".333333" stop-color="#fff"/>
    <stop offset="1" stop-color="#fff" stop-opacity=".7"/>
  </linearGradient>
  <path d="m5 12h30c0-1.6569-1.3431-3-3-3h-12c0-1.65685-1.3431-3-3-3h-9c-1.65685 0-3 1.34315-3 3z" fill="#882eff"/>
  <path d="m5 12h30v20c0 1.1046-.8954 2-2 2h-26c-1.10457 0-2-.8954-2-2z" fill="url(#a)"/>
  <path clip-rule="evenodd" d="m16 21c0-2.2091 1.7909-4 4-4 1.8638 0 3.4299 1.2748 3.874 3h-2.1416c-.3458-.5978-.9921-1-1.7324-1-1.1046 0-2 .8954-2 2v1h3 1 2c.5523 0 1 .4477 1 1v5c0 .5523-.4477 1-1 1h-8c-.5523 0-1-.4477-1-1v-5c0-.5523.4477-1 1-1z" fill="url(#b)" fill-rule="evenodd"/>
</svg>