<svg width="40" height="40" viewBox="0 0 40 40" fill="none" xmlns="http://www.w3.org/2000/svg">
<ellipse cx="28.1953" cy="25.0899" rx="2.54397" ry="3.81595" transform="rotate(-40.8348 28.1953 25.0899)" fill="#C270FF"/>
<path fill-rule="evenodd" clip-rule="evenodd" d="M16.781 18.5652C16.6523 19.0828 16.584 19.6235 16.584 20.1798C16.584 23.9527 19.7231 27.0112 23.5953 27.0112C27.3896 27.0112 30.4799 24.0745 30.6027 20.4065L30.6065 20.3881V18C32.644 17.6404 36.4312 16.3326 35.2807 15.3258C34.1301 14.3191 30.9661 14.0674 29.5279 14.0674L28.8077 10.1785C28.7453 6.75587 25.8721 4 22.3368 4C18.9497 4 16.1703 6.52971 15.8884 9.75181L15.8649 9.75281L15.6852 12.9888C14.0073 11.7903 10.5077 9.71685 9.93237 11.0112C9.35709 12.3056 14.247 16.5843 16.7638 18.5618L16.781 18.5652Z" fill="#892EFF"/>
<path fill-rule="evenodd" clip-rule="evenodd" d="M28.8397 14.1985C27.4218 14.9968 25.2771 15.5056 22.8768 15.5056C21.0463 15.5056 19.3644 15.2097 18.0401 14.7151C17.634 15.9836 17.5242 17.4879 17.7951 19.1529C18.547 23.7754 21.6867 25.8845 25.001 25.3454C28.3152 24.8063 30.549 21.8231 29.797 17.2005C29.6129 16.0685 29.2824 15.0633 28.8397 14.1985Z" fill="url(#paint0_linear)"/>
<ellipse cx="17.1093" cy="19.5668" rx="2.8764" ry="4.31461" transform="rotate(-26.0802 17.1093 19.5668)" fill="#C270FF"/>
<path fill-rule="evenodd" clip-rule="evenodd" d="M25.4969 24.2488C27.4901 27.2507 30.398 31.341 35.0005 29.5C33.5005 32 28.9664 32.7719 25.7497 32.8294L25.6895 32.0801C23.3965 34.6784 18.5355 34.1908 14.7952 30.9751C11.0337 27.7413 9.82995 22.973 12.1066 20.3249C14.3833 17.6768 19.2781 18.1516 23.0396 21.3854C23.8007 22.0397 24.457 22.7568 25.001 23.5064L25.0005 23.5C25.0172 23.5251 25.034 23.5503 25.0509 23.5757C25.2095 23.7976 25.3582 24.0222 25.4969 24.2488Z" fill="#A64DFF"/>
<path d="M26.4715 16.2247C20.4311 17.5191 17.4828 15.3258 16.7637 14.0674C18.7412 14.1273 22.5165 14.6067 25.0333 13.7078C27.5502 12.809 28.7487 12.0899 29.1682 11.5505L30.6064 14.0674L29.7075 14.7865C29.8873 14.9063 30.3547 15.2899 30.7861 15.8651C31.3255 16.5842 31.3255 16.764 29.7075 17.8427C28.4131 18.7056 27.8498 18.3221 27.73 18.0224C27.5502 17.7827 27.0468 17.0876 26.4715 16.2247Z" fill="#C270FF"/>
<path d="M18.31 10.9837C18.8239 10.6512 19.4305 10.4913 20.0415 10.5272L23.7818 10.7472C24.1552 10.7692 24.251 11.2758 23.9114 11.4326L20.5621 12.979C19.9487 13.2623 19.2551 13.3205 18.603 13.1436L16.8226 12.6605C16.5224 12.579 16.4603 12.1806 16.7215 12.0116L18.31 10.9837Z" fill="#C270FF"/>
<path fill-rule="evenodd" clip-rule="evenodd" d="M21.4204 9.7536C22.1466 9.73765 22.7183 8.95019 22.6973 7.99476C22.6763 7.03934 22.0706 6.27775 21.3444 6.2937C20.6182 6.30966 20.0465 7.09712 20.0675 8.05254C20.0885 9.00797 20.6942 9.76956 21.4204 9.7536ZM18.022 10.4719C18.6177 10.4719 19.1007 9.74753 19.1007 8.85395C19.1007 7.96036 18.6177 7.23597 18.022 7.23597C17.4263 7.23597 16.9434 7.96036 16.9434 8.85395C16.9434 9.74753 17.4263 10.4719 18.022 10.4719Z" fill="url(#paint1_linear)"/>
<path d="M18.2027 8.85395C18.2027 9.35039 17.9612 9.75283 17.6633 9.75283C17.3655 9.75283 17.124 9.35039 17.124 8.85395C17.124 8.35752 17.3655 7.95508 17.6633 7.95508C17.9612 7.95508 18.2027 8.35752 18.2027 8.85395Z" fill="#892EFF"/>
<ellipse cx="21.1384" cy="7.79984" rx="0.898876" ry="0.359551" transform="rotate(-13.8195 21.1384 7.79984)" fill="#892EFF"/>
<circle cx="18.7416" cy="28.0898" r="0.719101" fill="url(#paint2_linear)"/>
<path fill-rule="evenodd" clip-rule="evenodd" d="M18.2272 23.0732C11.2987 23.5246 6 26.0062 6 29C6 32.3137 12.4919 35 20.5 35C28.0396 35 34.2352 32.6188 34.9343 29.5747C33.4208 31.5628 29.7198 32.1394 26.0097 30.8065C23.1808 29.7901 21.0624 27.9208 20.2591 25.9833C20.1743 25.9943 20.0878 25.9999 20 25.9999C18.8954 25.9999 18 25.1045 18 23.9999C18 23.6655 18.0821 23.3503 18.2272 23.0732Z" fill="#892EFF"/>
<path fill-rule="evenodd" clip-rule="evenodd" d="M19.8319 24.9137C19.8757 24.937 19.9199 24.9599 19.9645 24.9825C20.3553 27.2532 22.6946 29.6155 26.0097 30.8065C26.7076 31.0572 27.4051 31.2404 28.0878 31.3593C26.7425 31.2119 25.3037 30.8824 23.85 30.3601C22.3237 29.8118 20.9453 29.11 19.7771 28.3222C18.963 31.5837 16.0137 34 12.5 34C8.35786 34 5 30.6421 5 26.5C5 22.3579 8.35786 19 12.5 19C14.1613 19 15.6964 19.5401 16.9394 20.4544C16.979 20.4223 17.0195 20.3907 17.0609 20.3597C17.0504 20.4145 17.0413 20.4695 17.0334 20.5247C18.4338 21.5888 19.4487 23.1339 19.8319 24.9137ZM34.272 30.2503C34.7964 29.8577 35.1791 29.3718 35.3854 28.7973C35.3938 28.774 35.4019 28.7507 35.4096 28.7272C35.1787 29.325 34.7875 29.8354 34.272 30.2503Z" fill="#C270FF"/>
<path d="M21 29C19.8 28.6 19.1667 29.5 19 30V28L20 27.5C20.8333 28.1667 22.2 29.4 21 29Z" fill="#C270FF"/>
<path d="M22 30.5C22 31.6046 20.6569 32.5 19 32.5C17.3431 32.5 16 31.6046 16 30.5C16 29.3954 17.3431 28.5 19 28.5C20.6569 28.5 22 29.3954 22 30.5Z" fill="#892EFF"/>
<defs>
<linearGradient id="paint0_linear" x1="23.7948" y1="14.1985" x2="23.7948" y2="25.4279" gradientUnits="userSpaceOnUse">
<stop offset="0.333333" stop-color="white"/>
<stop offset="1" stop-color="white" stop-opacity="0.7"/>
</linearGradient>
<linearGradient id="paint1_linear" x1="19.8206" y1="6.29346" x2="19.8206" y2="10.4719" gradientUnits="userSpaceOnUse">
<stop offset="0.333333" stop-color="white"/>
<stop offset="1" stop-color="white" stop-opacity="0.7"/>
</linearGradient>
<linearGradient id="paint2_linear" x1="18.7416" y1="27.3707" x2="18.7416" y2="28.8089" gradientUnits="userSpaceOnUse">
<stop offset="0.333333" stop-color="white"/>
<stop offset="1" stop-color="white" stop-opacity="0.7"/>
</linearGradient>
</defs>
</svg>
