<svg width="40" height="40" viewBox="0 0 40 40" fill="none" xmlns="http://www.w3.org/2000/svg">
<path d="M6 9C6 7.34315 7.34315 6 9 6H31C32.6569 6 34 7.34315 34 9V31C34 32.6569 32.6569 34 31 34H9C7.34315 34 6 32.6569 6 31V9Z" fill="#0036DB"/>
<path d="M9 9H31V31H9V9Z" fill="#1271FF"/>
<path fill-rule="evenodd" clip-rule="evenodd" d="M24 20C24 22.2091 22.2091 24 20 24C17.7909 24 16 22.2091 16 20C16 17.7909 17.7909 16 20 16C22.2091 16 24 17.7909 24 20ZM23.4723 24.8938C22.4922 25.5904 21.2939 26 20 26C16.6863 26 14 23.3137 14 20C14 16.6863 16.6863 14 20 14C23.3137 14 26 16.6863 26 20C26 21.2945 25.5901 22.4932 24.8929 23.4735L28.577 27.1576L27.1565 28.5781L23.4723 24.8938Z" fill="url(#paint0_linear)"/>
<rect x="14" y="4" width="3" height="3" fill="#0036DB"/>
<rect x="14" y="33" width="3" height="3" fill="#0036DB"/>
<rect x="23" y="4" width="3" height="3" fill="#0036DB"/>
<rect x="23" y="33" width="3" height="3" fill="#0036DB"/>
<rect x="4" y="26" width="3" height="3" transform="rotate(-90 4 26)" fill="#0036DB"/>
<rect x="33" y="26" width="3" height="3" transform="rotate(-90 33 26)" fill="#0036DB"/>
<rect x="4" y="17" width="3" height="3" transform="rotate(-90 4 17)" fill="#0036DB"/>
<rect x="33" y="17" width="3" height="3" transform="rotate(-90 33 17)" fill="#0036DB"/>
<defs>
<linearGradient id="paint0_linear" x1="21.2885" y1="14" x2="21.2885" y2="28.5781" gradientUnits="userSpaceOnUse">
<stop offset="0.333333" stop-color="white"/>
<stop offset="1" stop-color="white" stop-opacity="0.7"/>
</linearGradient>
</defs>
</svg>
