<svg width="40" height="40" viewBox="0 0 40 40" fill="none" xmlns="http://www.w3.org/2000/svg">
<path d="M5.5 9C5.5 7.61929 6.61929 6.5 8 6.5H32C33.3807 6.5 34.5 7.61929 34.5 9V31C34.5 32.3807 33.3807 33.5 32 33.5H8C6.61929 33.5 5.5 32.3807 5.5 31V9Z" fill="#0036DB" stroke="#0036DB"/>
<path d="M7 12C7 11.4477 7.44772 11 8 11H32C32.5523 11 33 11.4477 33 12V31C33 31.5523 32.5523 32 32 32H8C7.44772 32 7 31.5523 7 31V12Z" fill="url(#paint0_linear)"/>
<rect x="23" y="8" width="2" height="2" fill="white"/>
<rect x="27" y="8" width="2" height="2" fill="white"/>
<rect x="31" y="8" width="2" height="2" fill="white"/>
<path fill-rule="evenodd" clip-rule="evenodd" d="M20 15C17.7909 15 16 16.7909 16 19V20C15.4477 20 15 20.4477 15 21V26C15 26.5523 15.4477 27 16 27H24C24.5523 27 25 26.5523 25 26V21C25 20.4477 24.5523 20 24 20V19C24 16.7909 22.2091 15 20 15ZM22 20V19C22 17.8954 21.1046 17 20 17C18.8954 17 18 17.8954 18 19V20H22Z" fill="url(#paint1_linear)"/>
<defs>
<linearGradient id="paint0_linear" x1="28.6667" y1="32" x2="28.905" y2="10.9972" gradientUnits="userSpaceOnUse">
<stop stop-color="#2049EE"/>
<stop offset="1" stop-color="#1271FF"/>
</linearGradient>
<linearGradient id="paint1_linear" x1="20" y1="15" x2="20" y2="27" gradientUnits="userSpaceOnUse">
<stop offset="0.333333" stop-color="white"/>
<stop offset="1" stop-color="white" stop-opacity="0.7"/>
</linearGradient>
</defs>
</svg>
