<svg width="40" height="40" viewBox="0 0 40 40" fill="none" xmlns="http://www.w3.org/2000/svg">
<path d="M8 6C8 4.34315 9.34315 3 11 3H29C30.6569 3 32 4.34315 32 6V32C32 33.6569 30.6569 35 29 35H11C9.34315 35 8 33.6569 8 32V6Z" fill="#0036DB"/>
<rect x="17" y="30" width="6" height="2" fill="url(#paint0_linear)"/>
<path d="M11 6H29V28H11V6Z" fill="url(#paint1_linear)"/>
<path fill-rule="evenodd" clip-rule="evenodd" d="M22.7661 8.94806C22.8614 9.78859 22.5113 10.6316 21.9944 11.2385C21.4763 11.8461 20.6278 12.3177 19.7966 12.2553C19.6819 11.4312 20.0992 10.5724 20.5807 10.0351C21.1137 9.43059 22.0197 8.97725 22.7661 8.94806ZM25.6849 13.5982C25.5409 13.6841 24.0726 14.5596 24.0885 16.326C24.1103 18.428 25.9365 19.1705 26.0724 19.2257C26.0769 19.2276 26.0795 19.2286 26.0802 19.229L26.0799 19.2299C26.0617 19.29 25.7659 20.2649 25.0572 21.2682C24.437 22.1423 23.795 23.0117 22.7839 23.0325C22.2997 23.0414 21.9755 22.9054 21.6386 22.7641C21.285 22.6158 20.9174 22.4617 20.3362 22.4625C19.7286 22.4625 19.3448 22.6212 18.9753 22.774C18.6541 22.9068 18.3436 23.0352 17.9061 23.051C16.9286 23.0869 16.1862 22.1084 15.5625 21.2363C14.287 19.4572 13.3133 16.2057 14.6195 14.0079C15.269 12.9183 16.4299 12.2281 17.6889 12.2096C18.234 12.1994 18.7603 12.4009 19.2208 12.5772C19.5719 12.7117 19.8848 12.8315 20.1385 12.8315C20.3656 12.8315 20.6708 12.7152 21.027 12.5797C21.5873 12.3663 22.2736 12.105 22.9793 12.1731C23.4631 12.1919 24.8196 12.3629 25.6937 13.5929C25.6918 13.5941 25.6888 13.5959 25.6849 13.5982Z" fill="url(#paint2_linear)"/>
<defs>
<linearGradient id="paint0_linear" x1="20" y1="30" x2="20" y2="32" gradientUnits="userSpaceOnUse">
<stop offset="0.333333" stop-color="white"/>
<stop offset="1" stop-color="white" stop-opacity="0.7"/>
</linearGradient>
<linearGradient id="paint1_linear" x1="26" y1="28" x2="26.3777" y2="6.00076" gradientUnits="userSpaceOnUse">
<stop stop-color="#2049EE"/>
<stop offset="1" stop-color="#1271FF"/>
</linearGradient>
<linearGradient id="paint2_linear" x1="20.0401" y1="8.94806" x2="20.0401" y2="23.0519" gradientUnits="userSpaceOnUse">
<stop offset="0.333333" stop-color="white"/>
<stop offset="1" stop-color="white" stop-opacity="0.7"/>
</linearGradient>
</defs>
</svg>
