<svg width="40" height="40" viewBox="0 0 40 40" fill="none" xmlns="http://www.w3.org/2000/svg">
<path d="M9 18C9 11.9249 13.9249 7 20 7C26.0751 7 31 11.9249 31 18V24C31 30.0751 26.0751 35 20 35C13.9249 35 9 30.0751 9 24V18Z" fill="url(#paint0_linear)"/>
<path fill-rule="evenodd" clip-rule="evenodd" d="M31 18H20V7C26.0751 7 31 11.9249 31 18Z" fill="#892EFF"/>
<path fill-rule="evenodd" clip-rule="evenodd" d="M9 18H20V7C13.9249 7 9 11.9249 9 18Z" fill="#C270FF"/>
<path fill-rule="evenodd" clip-rule="evenodd" d="M25 3.85352C29.2621 5.35994 32.64 8.73792 34.1465 13H32.0037C30.6864 9.84127 28.1587 7.31356 25 5.99631V3.85352Z" fill="#892EFF"/>
<rect x="18" y="12" width="4" height="6" fill="url(#paint1_linear)"/>
<defs>
<linearGradient id="paint0_linear" x1="22.75" y1="35" x2="22.75" y2="7" gradientUnits="userSpaceOnUse">
<stop stop-color="#A64CFF"/>
<stop offset="1" stop-color="#C270FF"/>
</linearGradient>
<linearGradient id="paint1_linear" x1="20" y1="12" x2="20" y2="18" gradientUnits="userSpaceOnUse">
<stop offset="0.333333" stop-color="white"/>
<stop offset="1" stop-color="white" stop-opacity="0.7"/>
</linearGradient>
</defs>
</svg>
