<svg width="40" height="40" viewBox="0 0 40 40" fill="none" xmlns="http://www.w3.org/2000/svg">
<path d="M5 9C5 7.34315 6.34315 6 8 6H32C33.6569 6 35 7.34315 35 9V31C35 32.6569 33.6569 34 32 34H8C6.34315 34 5 32.6569 5 31V9Z" fill="#892EFF"/>
<path d="M16 30H19V32H16V30Z" fill="white"/>
<path d="M21 30H23V32H21V30Z" fill="white"/>
<path d="M7 9C7 8.44772 7.44772 8 8 8H32C32.5523 8 33 8.44772 33 9V28C33 28.5523 32.5523 29 32 29H8C7.44772 29 7 28.5523 7 28V9Z" fill="url(#paint0_linear)"/>
<path d="M9 19H14L16.5 21.5L21.5 15L24.5 19H31" stroke="url(#paint1_linear)" stroke-width="2"/>
<defs>
<linearGradient id="paint0_linear" x1="23.25" y1="29" x2="23.25" y2="8" gradientUnits="userSpaceOnUse">
<stop stop-color="#A64CFF"/>
<stop offset="1" stop-color="#C270FF"/>
</linearGradient>
<linearGradient id="paint1_linear" x1="34" y1="19" x2="7" y2="19" gradientUnits="userSpaceOnUse">
<stop offset="0.348958" stop-color="white"/>
<stop offset="1" stop-color="white" stop-opacity="0.5"/>
</linearGradient>
</defs>
</svg>
