<svg width="40" height="40" viewBox="0 0 40 40" fill="none" xmlns="http://www.w3.org/2000/svg">
<circle cx="20" cy="20" r="16" fill="#0036DB"/>
<circle cx="20" cy="20" r="13" fill="url(#paint0_linear)"/>
<rect x="11.1484" y="9.52704" width="28.6596" height="3" transform="rotate(45 11.1484 9.52704)" fill="#0036DB"/>
<path fill-rule="evenodd" clip-rule="evenodd" d="M19 14H12V21V23V26H14V23H17V26H19V14ZM17 21V16H14V21H17Z" fill="url(#paint1_linear)"/>
<path fill-rule="evenodd" clip-rule="evenodd" d="M21 14H26.4142L28 15.5858V24.4142L26.4142 26H21V14ZM23 16V24H25.5858L26 23.5858V16.4142L25.5858 16H23Z" fill="url(#paint2_linear)"/>
<rect x="10.1172" y="8.49512" width="4.44431" height="3" transform="rotate(45 10.1172 8.49512)" fill="#0036DB"/>
<defs>
<linearGradient id="paint0_linear" x1="13" y1="34.5" x2="28.8857" y2="8.929" gradientUnits="userSpaceOnUse">
<stop stop-color="#2049EE"/>
<stop offset="1" stop-color="#1271FF"/>
</linearGradient>
<linearGradient id="paint1_linear" x1="15.5" y1="14" x2="15.5" y2="26" gradientUnits="userSpaceOnUse">
<stop offset="0.333333" stop-color="white"/>
<stop offset="1" stop-color="white" stop-opacity="0.7"/>
</linearGradient>
<linearGradient id="paint2_linear" x1="24.5" y1="14" x2="24.5" y2="26" gradientUnits="userSpaceOnUse">
<stop offset="0.333333" stop-color="white"/>
<stop offset="1" stop-color="white" stop-opacity="0.7"/>
</linearGradient>
</defs>
</svg>
