<svg width="40" height="40" viewBox="0 0 40 40" fill="none" xmlns="http://www.w3.org/2000/svg">
<circle cx="20" cy="20" r="15.5" fill="#0036DB" stroke="#0036DB"/>
<circle cx="20" cy="20" r="13" fill="url(#paint0_linear)"/>
<path d="M13 16C13 14.8954 13.8954 14 15 14H29C30.1046 14 31 14.8954 31 16V28C31 29.1046 30.1046 30 29 30H15C13.8954 30 13 29.1046 13 28V16Z" fill="#0036DB"/>
<path d="M11 14C11 12.8954 11.8954 12 13 12H27C28.1046 12 29 12.8954 29 14V26C29 27.1046 28.1046 28 27 28H13C11.8954 28 11 27.1046 11 26V14Z" fill="url(#paint1_linear)"/>
<path d="M13 17C13 16.4477 13.4477 16 14 16H26C26.5523 16 27 16.4477 27 17V25C27 25.5523 26.5523 26 26 26H14C13.4477 26 13 25.5523 13 25V17Z" fill="url(#paint2_linear)"/>
<rect x="21" y="13" width="2" height="2" fill="#1271FF"/>
<rect x="25" y="13" width="2" height="2" fill="#1271FF"/>
<rect x="10.1172" y="9.20222" width="29.1189" height="2" transform="rotate(45 10.1172 9.20222)" fill="#0036DB" stroke="#0036DB"/>
<defs>
<linearGradient id="paint0_linear" x1="28.6667" y1="33" x2="29.0319" y2="6.99837" gradientUnits="userSpaceOnUse">
<stop stop-color="#2049EE"/>
<stop offset="1" stop-color="#1271FF"/>
</linearGradient>
<linearGradient id="paint1_linear" x1="20" y1="12" x2="20" y2="28" gradientUnits="userSpaceOnUse">
<stop offset="0.333333" stop-color="white"/>
<stop offset="1" stop-color="white" stop-opacity="0.7"/>
</linearGradient>
<linearGradient id="paint2_linear" x1="24.6667" y1="26" x2="24.767" y2="15.9984" gradientUnits="userSpaceOnUse">
<stop stop-color="#2049EE"/>
<stop offset="1" stop-color="#1271FF"/>
</linearGradient>
</defs>
</svg>
