<svg width="40" height="40" viewBox="0 0 40 40" fill="none" xmlns="http://www.w3.org/2000/svg">
<circle cx="20" cy="20" r="16" fill="#0036DB"/>
<circle cx="20" cy="20" r="13" fill="url(#paint0_linear)"/>
<path fill-rule="evenodd" clip-rule="evenodd" d="M26 20C26 23.3137 23.3137 26 20 26C16.6863 26 14 23.3137 14 20C14 16.6863 16.6863 14 20 14C23.3137 14 26 16.6863 26 20ZM24.9015 26.3231C23.5475 27.3742 21.8468 28 20 28C15.5817 28 12 24.4183 12 20C12 15.5817 15.5817 12 20 12C24.4183 12 28 15.5817 28 20C28 21.8474 27.3738 23.5485 26.3221 24.9027L29.9901 28.5706L28.5696 29.9911L24.9015 26.3231Z" fill="url(#paint1_linear)"/>
<path fill-rule="evenodd" clip-rule="evenodd" d="M23.5354 21.1506C24.3947 20.5489 24.6036 19.3645 24.0019 18.5051V18.5051L20.8899 20.6842C21.4916 21.5435 22.676 21.7524 23.5354 21.1506ZM19.0973 20.6842L19.0996 20.6809L19.0973 20.6842L15.9853 18.5051C15.3836 19.3645 15.5924 20.5489 16.4518 21.1506C17.3111 21.7524 18.4956 21.5435 19.0973 20.6842Z" fill="url(#paint2_linear)"/>
<path fill-rule="evenodd" clip-rule="evenodd" d="M21 4H19V7H21V4ZM21 33H19V36H21V33ZM4 21V19H7V21H4ZM33 19V21H36V19H33Z" fill="#1271FF"/>
<defs>
<linearGradient id="paint0_linear" x1="28.6667" y1="33" x2="29.0319" y2="6.99837" gradientUnits="userSpaceOnUse">
<stop stop-color="#2049EE"/>
<stop offset="1" stop-color="#1271FF"/>
</linearGradient>
<linearGradient id="paint1_linear" x1="20.995" y1="12" x2="20.995" y2="29.9911" gradientUnits="userSpaceOnUse">
<stop offset="0.333333" stop-color="white"/>
<stop offset="1" stop-color="white" stop-opacity="0.7"/>
</linearGradient>
<linearGradient id="paint2_linear" x1="19.9936" y1="18.5051" x2="19.9936" y2="21.4943" gradientUnits="userSpaceOnUse">
<stop offset="0.333333" stop-color="white"/>
<stop offset="1" stop-color="white" stop-opacity="0.7"/>
</linearGradient>
</defs>
</svg>
