<svg width="40" height="40" viewBox="0 0 40 40" fill="none" xmlns="http://www.w3.org/2000/svg">
<path d="M7.5 7C7.5 6.17157 8.17157 5.5 9 5.5H31C31.8284 5.5 32.5 6.17157 32.5 7V26.3118C32.5 26.8359 32.2265 27.322 31.7785 27.594L20.7785 34.2725C20.3001 34.563 19.6999 34.563 19.2215 34.2725L8.22153 27.594L7.44307 28.8761L8.22153 27.594C7.77354 27.322 7.5 26.8359 7.5 26.3118V7Z" fill="#0036DB" stroke="#0036DB" stroke-width="3"/>
<path d="M9 8C9 7.44771 9.44772 7 10 7H30C30.5523 7 31 7.44772 31 8V25.7588C31 26.1082 30.8176 26.4323 30.519 26.6136L20.519 32.6849C20.2001 32.8785 19.7999 32.8785 19.481 32.6849L9.48103 26.6136C9.18237 26.4323 9 26.1082 9 25.7588V8Z" fill="url(#paint0_linear)"/>
<path d="M31 19H20V33L31 26.5385V19Z" fill="#1271FF"/>
<rect width="11" height="12" transform="matrix(-1 0 0 1 20 7)" fill="#1271FF"/>
<path d="M7.5 7C7.5 6.17157 8.17157 5.5 9 5.5H31C31.8284 5.5 32.5 6.17157 32.5 7V26.3118C32.5 26.8359 32.2265 27.322 31.7785 27.594L20.7785 34.2725C20.3001 34.563 19.6999 34.563 19.2215 34.2725L8.22153 27.594L7.44307 28.8761L8.22153 27.594C7.77354 27.322 7.5 26.8359 7.5 26.3118V7Z" stroke="#0036DB" stroke-width="3"/>
<path d="M25.0326 17.4717C24.7293 16.7734 24.2884 16.1466 23.7375 15.6304L23.2824 15.2038C23.2307 15.1563 23.151 15.1607 23.1046 15.2137C23.0935 15.2263 23.085 15.241 23.0795 15.2569L22.8765 15.8522C22.7494 16.2266 22.5164 16.6092 22.1865 16.9846C22.1697 17.0026 22.1469 17.0135 22.1226 17.0153C22.0981 17.018 22.0737 17.0096 22.0557 16.9929C22.045 16.9832 22.0366 16.9712 22.0312 16.9577C22.0258 16.9442 22.0236 16.9296 22.0246 16.915C22.0827 15.9534 21.8015 14.8682 21.1845 13.6867C20.6766 12.7046 19.9683 11.9394 19.0843 11.4055L18.4382 11.0169C18.3784 10.9819 18.302 11.003 18.2676 11.0642C18.2556 11.0855 18.2499 11.1099 18.2512 11.1344L18.2853 11.9017C18.3081 12.4254 18.2491 12.8897 18.1082 13.2745C17.9372 13.7461 17.69 14.1847 17.3742 14.5775C17.1546 14.8507 16.9057 15.0978 16.6322 15.3141C15.9733 15.8321 15.4376 16.4959 15.0651 17.2557C14.3612 18.7084 14.3126 20.4033 14.932 21.8956C15.4945 23.2359 16.5446 24.2997 17.8602 24.8621C18.5375 25.1527 19.265 25.3016 19.9994 25.3C20.7415 25.3 21.4595 25.1537 22.1397 24.8642C22.7923 24.5861 23.3857 24.1806 23.8868 23.6705C24.3983 23.155 24.8043 22.5406 25.0813 21.8631C25.3582 21.1855 25.5006 20.4584 25.5 19.724C25.4997 18.9437 25.3436 18.1866 25.0326 17.4717Z" fill="url(#paint1_linear)"/>
<defs>
<linearGradient id="paint0_linear" x1="27.3333" y1="33" x2="27.765" y2="7.0004" gradientUnits="userSpaceOnUse">
<stop stop-color="#2049EE"/>
<stop offset="1" stop-color="#1271FF"/>
</linearGradient>
<linearGradient id="paint1_linear" x1="20" y1="11" x2="20" y2="25.3" gradientUnits="userSpaceOnUse">
<stop offset="0.333333" stop-color="white"/>
<stop offset="1" stop-color="white" stop-opacity="0.7"/>
</linearGradient>
</defs>
</svg>
