<svg width="40" height="40" viewBox="0 0 40 40" fill="none" xmlns="http://www.w3.org/2000/svg">
<mask id="mask0" mask-type="alpha" maskUnits="userSpaceOnUse" x="6" y="5" width="28" height="30">
<path d="M6 8C6 6.34315 7.34315 5 9 5H28L34 11V32C34 33.6569 32.6569 35 31 35H9C7.34315 35 6 33.6569 6 32V8Z" fill="url(#paint0_linear)"/>
</mask>
<g mask="url(#mask0)">
<path d="M6 8C6 6.34315 7.34315 5 9 5H27L34 12V32C34 33.6569 32.6569 35 31 35H9C7.34315 35 6 33.6569 6 32V8Z" fill="#882EFF"/>
<path d="M8 8C8 7.44772 8.44772 7 9 7H27.5858C27.851 7 28.1054 7.10536 28.2929 7.29289L31.7071 10.7071C31.8946 10.8946 32 11.149 32 11.4142V20V32C32 32.5523 31.5523 33 31 33H9C8.44772 33 8 32.5523 8 32V8Z" fill="url(#paint1_linear)"/>
<path fill-rule="evenodd" clip-rule="evenodd" d="M23 11H13V13H23V11ZM27 15H13V17H27V15Z" fill="url(#paint2_linear)"/>
<path fill-rule="evenodd" clip-rule="evenodd" d="M29 26C29 28.2091 27.2091 30 25 30C22.7909 30 21 28.2091 21 26C21 23.7909 22.7909 22 25 22C27.2091 22 29 23.7909 29 26ZM28.4723 30.8938C27.4922 31.5904 26.2939 32 25 32C21.6863 32 19 29.3137 19 26C19 22.6863 21.6863 20 25 20C28.3137 20 31 22.6863 31 26C31 27.2945 30.5901 28.4932 29.8929 29.4735L33.8386 33.4192L32.4181 34.8397L28.4723 30.8938Z" fill="url(#paint3_linear)"/>
</g>
<path d="M27 5H28L34 11V12H30C28.3431 12 27 10.6569 27 9V5Z" fill="#882EFF"/>
<defs>
<linearGradient id="paint0_linear" x1="29.3333" y1="34.9707" x2="29.784" y2="4.99898" gradientUnits="userSpaceOnUse">
<stop stop-color="#2049EE"/>
<stop offset="1" stop-color="#1271FF"/>
</linearGradient>
<linearGradient id="paint1_linear" x1="23" y1="33" x2="23" y2="7" gradientUnits="userSpaceOnUse">
<stop stop-color="#A64CFF"/>
<stop offset="1" stop-color="#C270FF"/>
</linearGradient>
<linearGradient id="paint2_linear" x1="20" y1="11" x2="20" y2="17" gradientUnits="userSpaceOnUse">
<stop offset="0.333333" stop-color="white"/>
<stop offset="1" stop-color="white" stop-opacity="0.7"/>
</linearGradient>
<linearGradient id="paint3_linear" x1="26.4193" y1="20" x2="26.4193" y2="34.8397" gradientUnits="userSpaceOnUse">
<stop offset="0.333333" stop-color="white"/>
<stop offset="1" stop-color="white" stop-opacity="0.7"/>
</linearGradient>
</defs>
</svg>
