<svg width="40" height="40" viewBox="0 0 40 40" fill="none" xmlns="http://www.w3.org/2000/svg">
<rect x="5" y="5" width="30" height="30" rx="3" fill="url(#paint0_linear)"/>
<path fill-rule="evenodd" clip-rule="evenodd" d="M12 12.6025C12 12.1346 12.5107 11.8458 12.9117 12.087L19.4 15.9903V19.2527L15.0769 16.652V21.5109L19.4 24.1116V28.0219L12.2915 23.7455C12.1106 23.6367 12 23.4411 12 23.23V12.6025ZM20.6 28.0219L27.7085 23.7455C27.8894 23.6367 28 23.4411 28 23.23V12.6025C28 12.1346 27.4893 11.8458 27.0883 12.087L20.6 15.9903V19.2527L24.9231 16.652V21.5109L20.6 24.1116V28.0219Z" fill="url(#paint1_linear)"/>
<defs>
<linearGradient id="paint0_linear" x1="30" y1="35" x2="30.4215" y2="4.99812" gradientUnits="userSpaceOnUse">
<stop stop-color="#2049EE"/>
<stop offset="1" stop-color="#1271FF"/>
</linearGradient>
<linearGradient id="paint1_linear" x1="20" y1="12" x2="20" y2="28.0219" gradientUnits="userSpaceOnUse">
<stop offset="0.333333" stop-color="white"/>
<stop offset="1" stop-color="white" stop-opacity="0.7"/>
</linearGradient>
</defs>
</svg>
