<svg width="40" height="40" viewBox="0 0 40 40" fill="none" xmlns="http://www.w3.org/2000/svg">
<circle cx="20" cy="20" r="16" fill="#0099F7"/>
<circle cx="20" cy="20" r="11" fill="url(#paint0_linear)" stroke="url(#paint1_angular)" stroke-width="2"/>
<circle cx="20" cy="20" r="13" fill="url(#paint2_linear)"/>
<path fill-rule="evenodd" clip-rule="evenodd" d="M24.9493 16.7574L21.3316 21.6907C21.2624 21.8239 21.172 21.9489 21.0602 22.0607C20.4745 22.6465 19.5247 22.6465 18.9389 22.0607C18.3531 21.4749 18.3531 20.5252 18.9389 19.9394C19.0507 19.8276 19.1757 19.7372 19.3089 19.6681L24.2422 16.0503C24.4375 15.855 24.7541 15.855 24.9493 16.0503C25.1446 16.2455 25.1446 16.5621 24.9493 16.7574Z" fill="url(#paint3_linear)"/>
<path fill-rule="evenodd" clip-rule="evenodd" d="M20 10C14.4772 10 10 14.4772 10 20C10 21.5449 10.3503 23.008 10.9759 24.3142L12.7463 23.3784C12.2674 22.3521 12 21.2073 12 20C12 15.5817 15.5817 12 20 12C24.4183 12 28 15.5817 28 20C28 21.2073 27.7326 22.3521 27.2537 23.3784L29.0241 24.3142C29.6497 23.008 30 21.5449 30 20C30 14.4772 25.5228 10 20 10Z" fill="url(#paint4_linear)"/>
<defs>
<linearGradient id="paint0_linear" x1="27.3333" y1="31" x2="27.6424" y2="8.99862" gradientUnits="userSpaceOnUse">
<stop stop-color="#2049EE"/>
<stop offset="1" stop-color="#1271FF"/>
</linearGradient>
<radialGradient id="paint1_angular" cx="0" cy="0" r="1" gradientUnits="userSpaceOnUse" gradientTransform="translate(20 20) rotate(90) scale(11)">
<stop offset="0.171875" stop-color="white" stop-opacity="0"/>
<stop offset="0.171975" stop-color="white"/>
<stop offset="0.828025" stop-color="white"/>
<stop offset="0.828125" stop-color="white" stop-opacity="0"/>
</radialGradient>
<linearGradient id="paint2_linear" x1="20" y1="7" x2="20" y2="33" gradientUnits="userSpaceOnUse">
<stop stop-color="#1FCEFF"/>
<stop offset="1" stop-color="#11B2FF"/>
</linearGradient>
<linearGradient id="paint3_linear" x1="24.9493" y1="16.0503" x2="18.9389" y2="22.0607" gradientUnits="userSpaceOnUse">
<stop offset="0.333333" stop-color="white"/>
<stop offset="1" stop-color="white" stop-opacity="0.7"/>
</linearGradient>
<linearGradient id="paint4_linear" x1="20" y1="11" x2="20" y2="29" gradientUnits="userSpaceOnUse">
<stop stop-color="white"/>
<stop offset="1" stop-color="white" stop-opacity="0.5"/>
</linearGradient>
</defs>
</svg>
