<svg width="40" height="40" viewBox="0 0 40 40" fill="none" xmlns="http://www.w3.org/2000/svg">
<path d="M5 9C5 7.34315 6.34315 6 8 6H32C33.6569 6 35 7.34315 35 9V31C35 32.6569 33.6569 34 32 34H8C6.34315 34 5 32.6569 5 31V9Z" fill="#0099F7"/>
<path d="M7 12C7 11.4477 7.44772 11 8 11H32C32.5523 11 33 11.4477 33 12V30C33 31.1046 32.1046 32 31 32H9C7.89543 32 7 31.1046 7 30V12Z" fill="url(#paint0_linear)"/>
<rect x="23" y="8" width="2" height="2" fill="white"/>
<rect x="27" y="8" width="2" height="2" fill="white"/>
<rect x="31" y="8" width="2" height="2" fill="white"/>
<path fill-rule="evenodd" clip-rule="evenodd" d="M20.9991 19L18.9991 19L18.9991 16H20.9991L20.9991 19ZM20.9991 28H18.9991L18.9991 25H20.9991L20.9991 28ZM24.6954 25.8661L25.6954 24.134L23.0969 22.6338L22.0969 24.3659L24.6954 25.8661ZM17.9029 19.635L16.9029 21.3671L14.3038 19.8665L15.3038 18.1344L17.9029 19.635ZM17.9014 24.3658L16.9014 22.6338L14.3037 24.1336L15.3037 25.8656L17.9014 24.3658Z" fill="url(#paint1_linear)"/>
<rect x="24.6943" y="18.1343" width="2" height="3.00416" transform="rotate(60 24.6943 18.1343)" fill="#0099F7"/>
<defs>
<linearGradient id="paint0_linear" x1="20" y1="11" x2="20" y2="32" gradientUnits="userSpaceOnUse">
<stop stop-color="#1FCEFF"/>
<stop offset="1" stop-color="#11B2FF"/>
</linearGradient>
<linearGradient id="paint1_linear" x1="19.9995" y1="16" x2="19.9995" y2="28" gradientUnits="userSpaceOnUse">
<stop offset="0.333333" stop-color="white"/>
<stop offset="1" stop-color="white" stop-opacity="0.7"/>
</linearGradient>
</defs>
</svg>
