<svg width="40" height="40" viewBox="0 0 40 40" fill="none" xmlns="http://www.w3.org/2000/svg">
<path fill-rule="evenodd" clip-rule="evenodd" d="M29.82 10.3218C31.98 10.3518 34.06 9.65177 36 8.92177L32.9919 19.3456C31.3556 20.0713 29.2503 20.7244 26.9666 20.8006C24.5692 20.8805 22.8024 19.8523 20.9311 18.5895L23.9805 8.13437C25.6675 9.26933 27.422 10.2854 29.82 10.3218ZM22.2408 6.95644C20.7747 5.99987 19.2124 5.17374 17.19 5.02177C14.97 4.85177 12.54 5.71177 10.62 6.41177C9.54122 10.1875 8.58962 13.5042 7.65181 16.7711C9.32014 16.177 11.2177 15.6579 12.9094 15.5041C15.4675 15.2716 17.4541 16.2838 19.191 17.4126L22.2408 6.95644ZM6.96098 19.1776C6.0255 22.4364 5.07601 25.7457 4 29.5118C4 29.5118 7.82 27.8418 10.66 28.1718C11.9386 28.2319 13.6244 28.8464 15.5388 29.9345L18.6041 19.425C16.782 18.2003 15.1888 17.3051 13.0905 17.4959C11.6154 17.63 9.87125 18.1003 8.26717 18.675C7.81126 18.8384 7.37268 19.008 6.96098 19.1776ZM17.303 31.0288C17.3685 31.0727 17.4341 31.117 17.5 31.1618C19.67 32.6418 21.4 33.2518 23.14 33.2518C26.39 33.2618 29.38 31.8618 29.38 31.8618L32.2911 21.7742C30.7433 22.3185 28.9503 22.7355 27.0333 22.7994C24.2502 22.8922 22.1431 21.7802 20.3439 20.6027L17.303 31.0288Z" fill="url(#paint0_linear)"/>
<rect x="24" y="24" width="12" height="12" fill="#892EFF"/>
<path fill-rule="evenodd" clip-rule="evenodd" d="M26 26H34V28H26V26ZM26 29H34V31H26V29ZM34 32H26V34H34V32Z" fill="url(#paint1_linear)"/>
<defs>
<linearGradient id="paint0_linear" x1="24" y1="33.2518" x2="15" y2="12.5" gradientUnits="userSpaceOnUse">
<stop stop-color="#A64CFF"/>
<stop offset="1" stop-color="#C270FF"/>
</linearGradient>
<linearGradient id="paint1_linear" x1="30" y1="26" x2="30" y2="34" gradientUnits="userSpaceOnUse">
<stop offset="0.333333" stop-color="white"/>
<stop offset="1" stop-color="white" stop-opacity="0.7"/>
</linearGradient>
</defs>
</svg>
