<svg width="40" height="40" viewBox="0 0 40 40" fill="none" xmlns="http://www.w3.org/2000/svg">
<path d="M6 8C6 6.34315 7.34315 5 9 5H31C32.6569 5 34 6.34315 34 8V32C34 33.6569 32.6569 35 31 35H9C7.34315 35 6 33.6569 6 32V8Z" fill="#00AD5A"/>
<path d="M8 8C8 7.44772 8.44772 7 9 7H31C31.5523 7 32 7.44772 32 8V29C32 29.5523 31.5523 30 31 30H9C8.44772 30 8 29.5523 8 29V8Z" fill="#11D96A"/>
<circle cx="10" cy="32" r="1" fill="white"/>
<circle cx="13" cy="32" r="1" fill="white"/>
<circle cx="20" cy="18" r="1.5" fill="white"/>
<path d="M20 18L18.5 14.5" stroke="white" stroke-linecap="round" stroke-linejoin="round"/>
<path fill-rule="evenodd" clip-rule="evenodd" d="M27.1625 14.4331C25.8512 11.8051 23.1363 10 19.9997 10C16.8631 10 14.1481 11.8051 12.8369 14.4331L14.6206 15.339C15.6013 13.3603 17.6416 12 19.9997 12C22.3578 12 24.3981 13.3603 25.3788 15.339L27.1625 14.4331Z" fill="url(#paint0_linear)"/>
<path fill-rule="evenodd" clip-rule="evenodd" d="M13.5703 13.2376C11.824 15.5991 11.4482 18.8376 12.8722 21.6323C14.2962 24.427 17.1371 26.0266 20.0739 26.0018L20.0713 24.0013C17.8631 24.0258 15.7247 22.8254 14.6542 20.7243C13.5837 18.6233 13.8694 16.1877 15.1872 14.4156L13.5703 13.2376Z" fill="url(#paint1_linear)"/>
<path fill-rule="evenodd" clip-rule="evenodd" d="M18.5384 25.867C21.4264 26.4014 24.5019 25.3194 26.3895 22.8144C28.2772 20.3095 28.4695 17.0549 27.1598 14.4261L25.3629 15.3054C26.3529 17.2794 26.2114 19.7276 24.7923 21.6108C23.3731 23.4941 21.0588 24.3049 18.8884 23.8973L18.5384 25.867Z" fill="url(#paint2_linear)"/>
<defs>
<linearGradient id="paint0_linear" x1="13.5" y1="15" x2="26.5" y2="14.5" gradientUnits="userSpaceOnUse">
<stop stop-color="white"/>
<stop offset="1" stop-color="white" stop-opacity="0"/>
</linearGradient>
<linearGradient id="paint1_linear" x1="20.278" y1="25.1536" x2="13.9306" y2="13.7975" gradientUnits="userSpaceOnUse">
<stop stop-color="white"/>
<stop offset="1" stop-color="white" stop-opacity="0"/>
</linearGradient>
<linearGradient id="paint2_linear" x1="26.308" y1="14.6145" x2="18.8837" y2="25.2977" gradientUnits="userSpaceOnUse">
<stop stop-color="white"/>
<stop offset="1" stop-color="white" stop-opacity="0"/>
</linearGradient>
</defs>
</svg>
