<svg width="40" height="40" viewBox="0 0 40 40" fill="none" xmlns="http://www.w3.org/2000/svg">
<path fill-rule="evenodd" clip-rule="evenodd" d="M17.6154 33.5205L17.6154 21H5V32L17.6154 33.5205ZM19.6154 33.7616L28.282 34.8062C31.8545 35.2368 35 32.4477 35 28.8493V21H19.6154L19.6154 33.7616ZM35 19V4L19.6154 5.79487V19H35ZM17.6154 6.0282L5 7.5V19H17.6154V6.0282Z" fill="url(#paint0_linear)"/>
<path d="M33.4945 33.4945C33.9907 32.9983 34.7228 32.8894 35.327 33.1584C35.6319 32.6451 35.8564 32.0986 36.0003 31.5342C35.3819 31.2965 34.9425 30.7018 34.9434 30.0001C34.9434 29.2993 35.3838 28.7036 36.0013 28.4668C35.8564 27.9015 35.6319 27.355 35.327 26.8417C34.7218 27.1098 33.9898 27.0008 33.4945 26.5056C32.9983 26.0093 32.8894 25.2773 33.1583 24.6731C32.645 24.3681 32.0986 24.1437 31.5342 23.9997C31.2965 24.6181 30.7017 25.0576 30.0009 25.0576C29.3002 25.0576 28.7045 24.6172 28.4668 24.0007C27.9014 24.1437 27.355 24.3681 26.8417 24.6731C27.1097 25.2782 27.0008 26.0103 26.5055 26.5056C26.0093 27.0018 25.2772 27.1107 24.673 26.8417C24.3681 27.355 24.1436 27.9015 23.9997 28.4659C24.6181 28.7036 25.0575 29.2983 25.0566 30.0001C25.0566 30.7008 24.6162 31.2965 23.9987 31.5333C24.1436 32.0986 24.3681 32.6451 24.673 33.1584C25.2782 32.8904 26.0102 32.9993 26.5055 33.4945C27.0017 33.9908 27.1106 34.7228 26.8417 35.327C27.355 35.632 27.9014 35.8564 28.4658 36.0004C28.7035 35.382 29.2983 34.9425 29.9991 34.9425C30.6998 34.9425 31.2955 35.3829 31.5332 35.9994C32.0986 35.8564 32.645 35.632 33.1583 35.327C32.8894 34.7228 32.9983 33.9908 33.4945 33.4945ZM28.8352 31.1649C28.1921 30.5219 28.1921 29.4782 28.8352 28.8352C29.4782 28.1922 30.5218 28.1922 31.1648 28.8352C31.8079 29.4782 31.8079 30.5219 31.1648 31.1649C30.5218 31.8079 29.4782 31.8079 28.8352 31.1649Z" fill="#0036DB"/>
<circle cx="30" cy="30" r="2" fill="url(#paint1_linear)"/>
<defs>
<linearGradient id="paint0_linear" x1="5" y1="30.8339" x2="23.0212" y2="13.2666" gradientUnits="userSpaceOnUse">
<stop stop-color="#2049EE"/>
<stop offset="1" stop-color="#1271FF"/>
</linearGradient>
<linearGradient id="paint1_linear" x1="30" y1="28" x2="30" y2="32" gradientUnits="userSpaceOnUse">
<stop offset="0.333333" stop-color="white"/>
<stop offset="1" stop-color="white" stop-opacity="0.7"/>
</linearGradient>
</defs>
</svg>
