<svg width="40" height="40" viewBox="0 0 40 40" fill="none" xmlns="http://www.w3.org/2000/svg">
<path d="M14.4481 24.9077C13.3784 24.0848 12.3087 23.3442 11.3212 22.5214C8.4412 20.1351 5.89032 17.5842 4.98517 13.7167C4.73831 13.8813 4.73831 14.1282 4.65603 14.2927C4.08002 15.8562 3.75088 17.5842 3.66859 19.2299C3.58631 21.1225 3.83316 23.0151 4.49146 24.7431C5.39661 27.7877 7.04233 30.3386 9.59321 32.2312C11.0744 33.3009 13.0492 33.1363 14.4481 32.0666C14.695 31.9843 14.8595 31.7374 15.1064 31.5729C16.999 29.598 16.6698 26.6357 14.4481 24.9077Z" fill="url(#paint0_linear)"/>
<path d="M30.1653 23.6734C28.1904 22.9328 26.2155 23.5911 24.899 25.3191C23.8292 26.6357 22.9241 28.0346 21.7721 29.2689C19.5503 31.7374 17.164 33.9592 13.708 34.6175C13.8726 34.8643 14.1194 34.8643 14.284 34.9466C18.6452 36.4278 22.8418 36.1809 27.0384 34.2883C29.0133 33.3832 30.659 32.1489 32.0579 30.5032C33.9504 28.1991 33.0453 24.7431 30.1653 23.6734Z" fill="#892EFF"/>
<path d="M30.0831 7.38072C33.0455 9.60245 34.7735 12.647 35.514 16.1854C36.09 18.0779 36.09 19.8882 35.8432 21.7808C35.6786 23.1797 35.3495 24.5786 34.6912 26.0597C34.1152 23.262 32.5517 21.1225 30.6591 19.2299C29.2603 17.9134 27.7791 16.7614 26.298 15.6094L26.298 15.6093C25.6397 15.0333 24.9814 14.6219 24.4054 13.9636C23.1711 12.647 22.9242 10.7545 23.7471 9.19101C24.1585 8.28586 24.7345 7.62757 25.6397 7.21614C27.2031 6.31099 28.7666 6.39328 30.0831 7.38072Z" fill="url(#paint1_linear)"/>
<path d="M24.8991 4.4184C22.7597 3.8424 20.6202 3.51325 18.3985 3.76011C14.2842 4.25383 10.7459 5.81727 7.94813 9.02644C6.38469 10.8367 6.46697 13.4699 8.1127 15.0333C10.0876 16.9259 13.1322 16.7614 14.8602 14.5396C15.9299 13.223 16.8351 11.8242 17.9871 10.5899C20.2088 8.039 22.6774 5.81727 26.1334 5.07669C25.6397 4.66526 25.2283 4.50069 24.8991 4.4184Z" fill="#C270FF"/>
<defs>
<linearGradient id="paint0_linear" x1="11.5839" y1="32.9559" x2="11.5839" y2="13.7167" gradientUnits="userSpaceOnUse">
<stop stop-color="#A64CFF"/>
<stop offset="1" stop-color="#C270FF"/>
</linearGradient>
<linearGradient id="paint1_linear" x1="31.2253" y1="26.0597" x2="31.2253" y2="6.58569" gradientUnits="userSpaceOnUse">
<stop stop-color="#A64CFF"/>
<stop offset="1" stop-color="#C270FF"/>
</linearGradient>
</defs>
</svg>
