<svg width="40" height="40" viewBox="0 0 40 40" fill="none" xmlns="http://www.w3.org/2000/svg">
<path d="M16 28H24V33H16V28Z" fill="#C270FF"/>
<path d="M11 36H29V36C29 34.3431 27.6569 33 26 33H14C12.3431 33 11 34.3431 11 36V36Z" fill="#892EFF"/>
<path d="M4 7C4 5.89543 4.89543 5 6 5H34C35.1046 5 36 5.89543 36 7V26C36 27.1046 35.1046 28 34 28H6C4.89543 28 4 27.1046 4 26V7Z" fill="#892EFF"/>
<path d="M6 7H34V24H6V7Z" fill="url(#paint0_linear)"/>
<rect x="6" y="25" width="3" height="1" fill="white"/>
<path fill-rule="evenodd" clip-rule="evenodd" d="M23.2479 17.8347C23.7209 17.1777 23.9996 16.3714 23.9996 15.5C23.9996 13.2909 22.2087 11.5 19.9996 11.5C19.1282 11.5 18.3219 11.7786 17.6649 12.2517L16.2383 10.825C17.2672 9.99616 18.5755 9.5 19.9996 9.5C23.3133 9.5 25.9996 12.1863 25.9996 15.5C25.9996 16.9241 25.5034 18.2324 24.6745 19.2613L23.2479 17.8347Z" fill="url(#paint1_linear)"/>
<path fill-rule="evenodd" clip-rule="evenodd" d="M14.9483 12.2612C14.3481 13.1955 14 14.307 14 15.4999C14 18.8136 16.6863 21.4999 20 21.4999C21.1929 21.4999 22.3045 21.1518 23.2387 20.5516L21.7734 19.0863C21.239 19.3511 20.6369 19.4999 20 19.4999C17.7909 19.4999 16 17.7091 16 15.4999C16 14.8631 16.1488 14.261 16.4136 13.7265L14.9483 12.2612Z" fill="url(#paint2_linear)"/>
<defs>
<linearGradient id="paint0_linear" x1="23.5" y1="24" x2="23.5" y2="7" gradientUnits="userSpaceOnUse">
<stop stop-color="#A64CFF"/>
<stop offset="1" stop-color="#C270FF"/>
</linearGradient>
<linearGradient id="paint1_linear" x1="20.5" y1="19" x2="17.5" y2="10" gradientUnits="userSpaceOnUse">
<stop stop-color="white" stop-opacity="0"/>
<stop offset="1" stop-color="white"/>
</linearGradient>
<linearGradient id="paint2_linear" x1="22" y1="20.9999" x2="19" y2="12.9999" gradientUnits="userSpaceOnUse">
<stop stop-color="white"/>
<stop offset="1" stop-color="white" stop-opacity="0"/>
</linearGradient>
</defs>
</svg>
