<svg width="40" height="40" viewBox="0 0 40 40" fill="none" xmlns="http://www.w3.org/2000/svg">
<circle cx="20" cy="20" r="14.5" fill="url(#paint0_linear)" stroke="#0099F7" stroke-width="3"/>
<path d="M8.5 10.5L17 6.5C17 6.5 13.5 15 13 20.5C12.5 26 18.5 35 18.5 35L8.5 28.5C8.5 28.5 5.5 25.5 5.5 20.5C5.5 15.5 8.5 10.5 8.5 10.5Z" fill="#1FCEFF"/>
<circle cx="20" cy="20" r="14.5" stroke="#0099F7" stroke-width="3"/>
<path d="M27 20C27 24.0112 26.1307 27.5931 24.7745 30.136C23.3954 32.7219 21.66 34 20 34C18.34 34 16.6046 32.7219 15.2255 30.136C13.8693 27.5931 13 24.0112 13 20C13 15.9888 13.8693 12.4069 15.2255 9.86399C16.6046 7.27811 18.34 6 20 6C21.66 6 23.3954 7.27811 24.7745 9.86399C26.1307 12.4069 27 15.9888 27 20Z" stroke="#0099F7" stroke-width="2"/>
<path fill-rule="evenodd" clip-rule="evenodd" d="M34.1465 19C32.0873 20.1652 26.5311 21 20 21C13.4689 21 7.91271 20.1652 5.85353 19C5.30077 19.3128 5 19.6494 5 20C5 21.6569 11.7157 23 20 23C28.2843 23 35 21.6569 35 20C35 19.6494 34.6992 19.3128 34.1465 19Z" fill="#0099F7"/>
<path fill-rule="evenodd" clip-rule="evenodd" d="M25 17C25 19.0503 23.7659 20.8124 22 21.5839V27C22 27.5523 21.5523 28 21 28H19C18.4477 28 18 27.5523 18 27V21.5839C16.2341 20.8124 15 19.0503 15 17C15 14.9497 16.2341 13.1876 18 12.416V16C18 16.5523 18.4477 17 19 17H21C21.5523 17 22 16.5523 22 16V12.416C23.7659 13.1876 25 14.9497 25 17Z" fill="url(#paint1_linear)"/>
<defs>
<linearGradient id="paint0_linear" x1="20" y1="4" x2="20" y2="36" gradientUnits="userSpaceOnUse">
<stop stop-color="#1FCEFF"/>
<stop offset="1" stop-color="#11B2FF"/>
</linearGradient>
<linearGradient id="paint1_linear" x1="20" y1="12.416" x2="20" y2="28" gradientUnits="userSpaceOnUse">
<stop offset="0.44178" stop-color="white"/>
<stop offset="1" stop-color="white" stop-opacity="0.7"/>
</linearGradient>
</defs>
</svg>
