<svg width="40" height="40" viewBox="0 0 40 40" fill="none" xmlns="http://www.w3.org/2000/svg">
<path d="M7.5 7C7.5 6.17157 8.17157 5.5 9 5.5H31C31.8284 5.5 32.5 6.17157 32.5 7V26.3118C32.5 26.8359 32.2265 27.322 31.7785 27.594L20.7785 34.2725C20.3001 34.563 19.6999 34.563 19.2215 34.2725L8.22153 27.594L7.44307 28.8761L8.22153 27.594C7.77354 27.322 7.5 26.8359 7.5 26.3118V7Z" fill="#0036DB" stroke="#0036DB" stroke-width="3"/>
<path d="M9 8C9 7.44771 9.44772 7 10 7H30C30.5523 7 31 7.44772 31 8V25.7588C31 26.1082 30.8176 26.4323 30.519 26.6136L20.519 32.6849C20.2001 32.8785 19.7999 32.8785 19.481 32.6849L9.48103 26.6136C9.18237 26.4323 9 26.1082 9 25.7588V8Z" fill="url(#paint0_linear)"/>
<path fill-rule="evenodd" clip-rule="evenodd" d="M27.7632 16.2071C25.7738 14.2252 23.0299 13 19.9998 13C16.9697 13 14.2258 14.2252 12.2363 16.2071L13.6505 17.6213C15.278 16.0013 17.522 15 19.9998 15C22.4776 15 24.7215 16.0013 26.349 17.6213L27.7632 16.2071ZM24.9348 19.0356C23.6692 17.7774 21.9253 17 19.9998 17C18.0743 17 16.3303 17.7774 15.0648 19.0356L16.479 20.4498C17.3826 19.5536 18.6265 19 19.9998 19C21.373 19 22.6169 19.5536 23.5206 20.4498L24.9348 19.0356ZM22.1063 21.864C21.5646 21.3297 20.8207 21 19.9998 21C19.1788 21 18.4349 21.3297 17.8932 21.864L19.9998 23.9706L22.1063 21.864Z" fill="url(#paint1_linear)"/>
<defs>
<linearGradient id="paint0_linear" x1="27.3333" y1="33" x2="27.765" y2="7.0004" gradientUnits="userSpaceOnUse">
<stop stop-color="#2049EE"/>
<stop offset="1" stop-color="#1271FF"/>
</linearGradient>
<linearGradient id="paint1_linear" x1="19.9998" y1="13" x2="19.9998" y2="23.9706" gradientUnits="userSpaceOnUse">
<stop offset="0.333333" stop-color="white"/>
<stop offset="1" stop-color="white" stop-opacity="0.7"/>
</linearGradient>
</defs>
</svg>
