<svg width="40" height="40" viewBox="0 0 40 40" fill="none" xmlns="http://www.w3.org/2000/svg">
<path d="M8 6C8 4.34315 9.34315 3 11 3H29C30.6569 3 32 4.34315 32 6V32C32 33.6569 30.6569 35 29 35H11C9.34315 35 8 33.6569 8 32V6Z" fill="#0036DB"/>
<rect x="17" y="30" width="6" height="2" fill="url(#paint0_linear)"/>
<path d="M11 6H29V28H11V6Z" fill="url(#paint1_linear)"/>
<path fill-rule="evenodd" clip-rule="evenodd" d="M19 12H15V16H19V12ZM25 12H21V16H25V12ZM21 18H25V22H21V18ZM19 18H15V22H19V18Z" fill="url(#paint2_linear)"/>
<defs>
<linearGradient id="paint0_linear" x1="20" y1="30" x2="20" y2="32" gradientUnits="userSpaceOnUse">
<stop offset="0.333333" stop-color="white"/>
<stop offset="1" stop-color="white" stop-opacity="0.7"/>
</linearGradient>
<linearGradient id="paint1_linear" x1="26" y1="28" x2="26.3777" y2="6.00076" gradientUnits="userSpaceOnUse">
<stop stop-color="#2049EE"/>
<stop offset="1" stop-color="#1271FF"/>
</linearGradient>
<linearGradient id="paint2_linear" x1="20" y1="12" x2="20" y2="22" gradientUnits="userSpaceOnUse">
<stop offset="0.333333" stop-color="white"/>
<stop offset="1" stop-color="white" stop-opacity="0.7"/>
</linearGradient>
</defs>
</svg>
