<svg width="40" height="40" viewBox="0 0 40 40" fill="none" xmlns="http://www.w3.org/2000/svg">
<path d="M7.35675 28.1917C2.90163 23.7366 2.90163 16.5134 7.35675 12.0583C8.24777 11.1673 9.69241 11.1673 10.5834 12.0583L18.6501 20.125L10.5834 28.1917C9.69241 29.0827 8.24777 29.0827 7.35675 28.1917Z" fill="#892EFF"/>
<path fill-rule="evenodd" clip-rule="evenodd" d="M11.8572 10.7846C10.9661 9.89354 10.9661 8.44891 11.8572 7.55788C16.3123 3.10276 23.5355 3.10276 27.9906 7.55788C28.8816 8.44891 28.8816 9.89354 27.9906 10.7846L19.9239 18.8513L11.8572 10.7846ZM21.2009 20.1283L29.2676 12.0616C30.1586 11.1705 31.6032 11.1706 32.4943 12.0616C36.9494 16.5167 36.9494 23.7399 32.4943 28.195C31.6032 29.086 30.1586 29.086 29.2676 28.195L21.2009 20.1283ZM11.86 29.4682C10.9689 30.3593 10.9689 31.8039 11.86 32.6949C16.3151 37.15 23.5383 37.15 27.9934 32.6949C28.8844 31.8039 28.8844 30.3593 27.9934 29.4682L19.9267 21.4015L11.86 29.4682Z" fill="url(#paint0_linear)"/>
<defs>
<linearGradient id="paint0_linear" x1="32.8233" y1="27.866" x2="12.1862" y2="7.22886" gradientUnits="userSpaceOnUse">
<stop stop-color="#A64CFF"/>
<stop offset="1" stop-color="#C270FF"/>
</linearGradient>
</defs>
</svg>
