<svg width="40" height="40" viewBox="0 0 40 40" fill="none" xmlns="http://www.w3.org/2000/svg">
<path d="M5 9C5 7.34315 6.34315 6 8 6H32C33.6569 6 35 7.34315 35 9V31C35 32.6569 33.6569 34 32 34H8C6.34315 34 5 32.6569 5 31V9Z" fill="#0036DB"/>
<path d="M16 30H19V32H16V30Z" fill="white"/>
<path d="M21 30H23V32H21V30Z" fill="white"/>
<path d="M7 9C7 8.44772 7.44772 8 8 8H32C32.5523 8 33 8.44772 33 9V28C33 28.5523 32.5523 29 32 29H8C7.44772 29 7 28.5523 7 28V9Z" fill="url(#paint0_linear)"/>
<path fill-rule="evenodd" clip-rule="evenodd" d="M13 13H16.2381V15H15.072C15.1309 15.4922 15.236 16.0946 15.4208 16.6859C15.858 18.0851 16.5669 18.9683 17.7302 18.9683C18.8934 18.9683 19.6023 18.0851 20.0396 16.6859C20.2243 16.0946 20.3294 15.4922 20.3883 15H19.2222V13H22.4603L22.4603 14C22.4603 13.9996 22.4603 14 21.4603 14H22.4603L22.4603 14.0035L22.4603 14.0093L22.4602 14.0272C22.46 14.042 22.4597 14.0623 22.4592 14.0879C22.4581 14.1389 22.4561 14.211 22.452 14.301C22.444 14.4809 22.4281 14.7339 22.3967 15.0361C22.3342 15.6356 22.208 16.452 21.9485 17.2824C21.5293 18.6239 20.6365 20.3352 18.8155 20.8291C18.9046 21.3001 19.0687 21.81 19.3335 22.2514C19.7442 22.9359 20.3772 23.4445 21.4601 23.4445C22.5805 23.4445 23.4332 22.8952 24.0364 22.1412C24.4913 21.5726 24.7591 20.9419 24.8723 20.4537C24.6076 20.1832 24.4443 19.813 24.4443 19.4045C24.4443 18.5761 25.1159 17.9045 25.9443 17.9045C26.7728 17.9045 27.4443 18.5761 27.4443 19.4045C27.4443 19.8764 27.2265 20.2973 26.8859 20.5723C26.7427 21.4733 26.2982 22.5155 25.5982 23.3906C24.7093 24.5016 23.3239 25.4445 21.4601 25.4445C19.559 25.4445 18.3269 24.461 17.6185 23.2804C17.1469 22.4944 16.9012 21.6201 16.7955 20.8667C14.8727 20.4286 13.9424 18.6604 13.5118 17.2824C13.2523 16.452 13.1261 15.6356 13.0637 15.0361C13.0322 14.7339 13.0163 14.4809 13.0083 14.301C13.0043 14.211 13.0022 14.1389 13.0011 14.0879C13.0006 14.0623 13.0003 14.042 13.0002 14.0272L13 14.0093L13 14.0035L13 14.0015C13 14.0011 13 14 14 14H13V13Z" fill="url(#paint1_linear)"/>
<defs>
<linearGradient id="paint0_linear" x1="28.6667" y1="29" x2="28.905" y2="7.99724" gradientUnits="userSpaceOnUse">
<stop stop-color="#2049EE"/>
<stop offset="1" stop-color="#1271FF"/>
</linearGradient>
<linearGradient id="paint1_linear" x1="20.2222" y1="13" x2="20.2222" y2="25.4445" gradientUnits="userSpaceOnUse">
<stop offset="0.333333" stop-color="white"/>
<stop offset="1" stop-color="white" stop-opacity="0.7"/>
</linearGradient>
</defs>
</svg>
