<svg width="40" height="40" viewBox="0 0 40 40" fill="none" xmlns="http://www.w3.org/2000/svg">
<path d="M14 5.5C14 4.39543 14.8954 3.5 16 3.5H24C25.1046 3.5 26 4.39543 26 5.5V9.5H14V5.5Z" stroke="#00AD5A" stroke-width="2"/>
<rect x="5" y="7" width="30" height="4" rx="1" fill="#11D96A"/>
<path d="M7 11H33L32.0768 34.0799C32.0339 35.1526 31.1519 36 30.0784 36H9.9216C8.84813 36 7.9661 35.1526 7.9232 34.0799L7 11Z" fill="url(#paint0_linear)"/>
<mask id="mask0" mask-type="alpha" maskUnits="userSpaceOnUse" x="7" y="11" width="26" height="25">
<path d="M7 11H33L32.0768 34.0799C32.0339 35.1526 31.1519 36 30.0784 36H9.9216C8.84813 36 7.9661 35.1526 7.9232 34.0799L7 11Z" fill="url(#paint1_linear)"/>
</mask>
<g mask="url(#mask0)">
<rect width="26" height="1" transform="matrix(-1 0 0 1 33 11)" fill="#00AD5A"/>
</g>
<path opacity="0.6" d="M10.5 14H17V33H11L10.5 14Z" fill="#00AD5A"/>
<path opacity="0.6" d="M23 14H29.5L29 33H23V14Z" fill="#00AD5A"/>
<path fill-rule="evenodd" clip-rule="evenodd" d="M20.0002 20.5856L22.8284 17.7574L24.2426 19.1716L21.4144 21.9999L24.2428 24.8283L22.8286 26.2425L20.0002 23.4141L17.1716 26.2427L15.7574 24.8284L18.586 21.9998L15.7575 19.1714L17.1717 17.7572L20.0002 20.5856Z" fill="url(#paint2_linear)"/>
<defs>
<linearGradient id="paint0_linear" x1="20" y1="10.0741" x2="20" y2="36" gradientUnits="userSpaceOnUse">
<stop stop-color="#11D96A"/>
<stop offset="1" stop-color="#00BE63"/>
</linearGradient>
<linearGradient id="paint1_linear" x1="20" y1="10.0741" x2="20" y2="36" gradientUnits="userSpaceOnUse">
<stop stop-color="#11D96A"/>
<stop offset="1" stop-color="#00BE63"/>
</linearGradient>
<linearGradient id="paint2_linear" x1="19.5" y1="18" x2="19.5" y2="26" gradientUnits="userSpaceOnUse">
<stop offset="0.333333" stop-color="white"/>
<stop offset="1" stop-color="white" stop-opacity="0.7"/>
</linearGradient>
</defs>
</svg>
