<svg width="40" height="40" viewBox="0 0 40 40" fill="none" xmlns="http://www.w3.org/2000/svg">
<path fill-rule="evenodd" clip-rule="evenodd" d="M7 20C7 12.8203 12.8203 7 20 7C27.1797 7 33 12.8203 33 20C33 27.1797 27.1797 33 20 33C12.8203 33 7 27.1797 7 20Z" fill="url(#paint0_linear)"/>
<path opacity="0.8" fill-rule="evenodd" clip-rule="evenodd" d="M12 20C12 15.5817 15.5817 12 20 12C24.4183 12 28 15.5817 28 20C28 24.4183 24.4183 28 20 28C15.5817 28 12 24.4183 12 20Z" stroke="url(#paint1_linear)" stroke-width="2"/>
<path d="M19.9998 5V20.0003H5C5 20.0004 5 20.0002 5 20.0003C5 11.7161 11.7156 5.00011 19.9998 5Z" fill="url(#paint2_linear)"/>
<circle cx="20" cy="20" r="14.5" stroke="#0036DB" stroke-width="3"/>
<path fill-rule="evenodd" clip-rule="evenodd" d="M21 4H19V7H21V4ZM21 33H19V36H21V33ZM4 21V19H7V21H4ZM33 19V21H36V19H33Z" fill="#1271FF"/>
<defs>
<linearGradient id="paint0_linear" x1="28.6667" y1="33" x2="29.0319" y2="6.99837" gradientUnits="userSpaceOnUse">
<stop stop-color="#2049EE"/>
<stop offset="1" stop-color="#1271FF"/>
</linearGradient>
<linearGradient id="paint1_linear" x1="20" y1="12" x2="20" y2="28" gradientUnits="userSpaceOnUse">
<stop offset="0.333333" stop-color="white"/>
<stop offset="1" stop-color="white" stop-opacity="0.7"/>
</linearGradient>
<linearGradient id="paint2_linear" x1="20" y1="8.5" x2="13" y2="20" gradientUnits="userSpaceOnUse">
<stop offset="0.333333" stop-color="white"/>
<stop offset="1" stop-color="white" stop-opacity="0.7"/>
</linearGradient>
</defs>
</svg>
