<svg width="40" height="40" viewBox="0 0 40 40" fill="none" xmlns="http://www.w3.org/2000/svg">
<path d="M21.2498 4.29904L32.9722 11.067C33.7457 11.5136 34.2222 12.3389 34.2222 13.2321V26.768C34.2222 27.6611 33.7457 28.4864 32.9722 28.933L21.2498 35.701C20.4763 36.1475 19.5233 36.1475 18.7498 35.701L7.02734 28.933C6.25384 28.4864 5.77734 27.6611 5.77734 26.768L5.77734 13.232C5.77734 12.3389 6.25384 11.5136 7.02734 11.067L18.7498 4.29904C19.5233 3.85246 20.4763 3.85246 21.2498 4.29904Z" fill="#0036DB" stroke="#0036DB"/>
<path d="M19.5003 6.28868C19.8097 6.11004 20.1909 6.11004 20.5003 6.28868L31.6247 12.7113C31.9341 12.89 32.1247 13.2201 32.1247 13.5774V26.4226C32.1247 26.7799 31.9341 27.11 31.6247 27.2887L20.5003 33.7113C20.1909 33.89 19.8097 33.89 19.5003 33.7113L8.37598 27.2887C8.06658 27.11 7.87598 26.7799 7.87598 26.4226L7.87598 13.5774C7.87598 13.2201 8.06658 12.89 8.37598 12.7113L19.5003 6.28868Z" fill="url(#paint0_linear)"/>
<path d="M20.707 12.9289C21.0975 12.5384 21.7306 12.5384 22.1212 12.9289L27.0709 17.8787C27.4614 18.2692 27.4614 18.9023 27.0709 19.2929L19.2927 27.071C18.9022 27.4616 18.2691 27.4616 17.8785 27.071L12.9288 22.1213C12.5383 21.7308 12.5383 21.0976 12.9288 20.7071L20.707 12.9289Z" fill="url(#paint1_linear)"/>
<path d="M15.5049 18.1312L21.8688 24.4951L21.2122 25.1517L14.8483 18.7878L15.5049 18.1312Z" fill="#1271FF"/>
<path d="M20.5 26.5C20.627 26.373 21 26 21 26H27V27H20C20 27 20.373 26.627 20.5 26.5Z" fill="url(#paint2_linear)"/>
<defs>
<linearGradient id="paint0_linear" x1="28.0832" y1="34" x2="28.5374" y2="6.00008" gradientUnits="userSpaceOnUse">
<stop stop-color="#2049EE"/>
<stop offset="1" stop-color="#1271FF"/>
</linearGradient>
<linearGradient id="paint1_linear" x1="24.596" y1="15.4038" x2="15.4037" y2="24.5962" gradientUnits="userSpaceOnUse">
<stop offset="0.333333" stop-color="white"/>
<stop offset="1" stop-color="white" stop-opacity="0.7"/>
</linearGradient>
<linearGradient id="paint2_linear" x1="20" y1="26.5" x2="29" y2="26.5" gradientUnits="userSpaceOnUse">
<stop offset="0.333333" stop-color="white"/>
<stop offset="1" stop-color="white" stop-opacity="0.7"/>
</linearGradient>
</defs>
</svg>
