<svg width="40" height="40" viewBox="0 0 40 40" fill="none" xmlns="http://www.w3.org/2000/svg">
<circle cx="12" cy="29" r="4" fill="#00AD5A"/>
<rect x="27" y="18" width="8" height="8" fill="#00AD5A"/>
<rect x="19" y="10" width="8" height="8" fill="#11D96A"/>
<path fill-rule="evenodd" clip-rule="evenodd" d="M35 10H27V18H19V26H27V18H35V10Z" fill="url(#paint0_linear)"/>
<path d="M10 14H18V29H5V21L10 14Z" fill="url(#paint1_linear)"/>
<path d="M11.5 16H14.5V21H8L11.5 16Z" fill="url(#paint2_linear)"/>
<path d="M5 27H35V29H5V27Z" fill="#00AD5A"/>
<path fill-rule="evenodd" clip-rule="evenodd" d="M24.126 28C24.0438 28.3196 24 28.6547 24 29C24 31.2091 25.7909 33 28 33C30.2091 33 32 31.2091 32 29C32 28.6547 31.9562 28.3196 31.874 28H24.126Z" fill="#00AD5A"/>
<defs>
<linearGradient id="paint0_linear" x1="27" y1="9.40741" x2="27" y2="26" gradientUnits="userSpaceOnUse">
<stop stop-color="#11D96A"/>
<stop offset="1" stop-color="#00BE63"/>
</linearGradient>
<linearGradient id="paint1_linear" x1="11.5" y1="13.4444" x2="11.5" y2="29" gradientUnits="userSpaceOnUse">
<stop stop-color="#11D96A"/>
<stop offset="1" stop-color="#00BE63"/>
</linearGradient>
<linearGradient id="paint2_linear" x1="11.25" y1="16" x2="11.25" y2="21" gradientUnits="userSpaceOnUse">
<stop offset="0.333333" stop-color="white"/>
<stop offset="1" stop-color="white" stop-opacity="0.7"/>
</linearGradient>
</defs>
</svg>
