<svg width="40" height="40" viewBox="0 0 40 40" fill="none" xmlns="http://www.w3.org/2000/svg">
<circle cx="20" cy="20" r="16" fill="#0099F7"/>
<circle cx="20" cy="20" r="13" fill="url(#paint0_linear)"/>
<path fill-rule="evenodd" clip-rule="evenodd" d="M18.7971 20.6509C19.5099 20.1164 20.4899 20.1164 21.2027 20.6509L24.5999 23.1988L23.3999 24.7988L20.0027 22.2509C20.001 22.2497 19.9988 22.2497 19.9971 22.2509L16.5999 24.7988L15.3999 23.1988L18.7971 20.6509Z" fill="url(#paint1_linear)"/>
<path fill-rule="evenodd" clip-rule="evenodd" d="M18.7971 14.6509C19.5099 14.1164 20.4899 14.1164 21.2027 14.6509L24.5999 17.1988L23.3999 18.7988L20.0027 16.2509C20.001 16.2497 19.9988 16.2497 19.9971 16.2509L16.5999 18.7988L15.3999 17.1988L18.7971 14.6509Z" fill="url(#paint2_linear)"/>
<path fill-rule="evenodd" clip-rule="evenodd" d="M31 20H33C33 19.9983 33 19.9966 33 19.995C32.9973 12.8176 27.178 7 20 7V9C26.0751 9 31 13.9249 31 20Z" fill="url(#paint3_linear)"/>
<path fill-rule="evenodd" clip-rule="evenodd" d="M20 9L20 7C19.9983 7 19.9966 7 19.995 7C12.8176 7.00272 7 12.822 7 20L9 20C9 13.9249 13.9249 9 20 9Z" fill="url(#paint4_linear)"/>
<path fill-rule="evenodd" clip-rule="evenodd" d="M9 20L7 20C7 20.0017 7 20.0034 7 20.005C7.00272 27.1824 12.822 33 20 33L20 31C13.9249 31 9 26.0751 9 20Z" fill="url(#paint5_linear)"/>
<path fill-rule="evenodd" clip-rule="evenodd" d="M20 31L20 33C20.0017 33 20.0034 33 20.005 33C27.1824 32.9973 33 27.178 33 20L31 20C31 26.0751 26.0751 31 20 31Z" fill="url(#paint6_linear)"/>
<defs>
<linearGradient id="paint0_linear" x1="20" y1="7" x2="20" y2="33" gradientUnits="userSpaceOnUse">
<stop stop-color="#1FCEFF"/>
<stop offset="1" stop-color="#11B2FF"/>
</linearGradient>
<linearGradient id="paint1_linear" x1="19.9999" y1="14.25" x2="19.9999" y2="24.7988" gradientUnits="userSpaceOnUse">
<stop offset="0.333333" stop-color="white"/>
<stop offset="1" stop-color="white" stop-opacity="0.7"/>
</linearGradient>
<linearGradient id="paint2_linear" x1="19.9999" y1="14.25" x2="19.9999" y2="24.7988" gradientUnits="userSpaceOnUse">
<stop offset="0.333333" stop-color="white"/>
<stop offset="1" stop-color="white" stop-opacity="0.7"/>
</linearGradient>
<linearGradient id="paint3_linear" x1="20.5" y1="8" x2="32" y2="20" gradientUnits="userSpaceOnUse">
<stop stop-color="white"/>
<stop offset="1" stop-color="white" stop-opacity="0"/>
</linearGradient>
<linearGradient id="paint4_linear" x1="8" y1="19.5" x2="20" y2="8" gradientUnits="userSpaceOnUse">
<stop stop-color="white"/>
<stop offset="1" stop-color="white" stop-opacity="0"/>
</linearGradient>
<linearGradient id="paint5_linear" x1="19.5" y1="32" x2="8" y2="20" gradientUnits="userSpaceOnUse">
<stop stop-color="white"/>
<stop offset="1" stop-color="white" stop-opacity="0"/>
</linearGradient>
<linearGradient id="paint6_linear" x1="32" y1="20.5" x2="20" y2="32" gradientUnits="userSpaceOnUse">
<stop stop-color="white"/>
<stop offset="1" stop-color="white" stop-opacity="0"/>
</linearGradient>
</defs>
</svg>
