<svg width="40" height="40" viewBox="0 0 40 40" fill="none" xmlns="http://www.w3.org/2000/svg">
<path d="M18.5002 3.54523C19.4284 3.00933 20.572 3.00933 21.5002 3.54522L33.5004 10.4736C34.4287 11.0095 35.0005 11.9998 35.0005 13.0716V26.9283C35.0005 28.0001 34.4287 28.9905 33.5005 29.5264L21.5002 36.4547C20.572 36.9906 19.4284 36.9906 18.5002 36.4547L6.5 29.5264C5.5718 28.9905 5 28.0001 5 26.9283L5 13.0716C5 11.9998 5.5718 11.0095 6.5 10.4736L18.5002 3.54523Z" fill="#00AD5A"/>
<path d="M19.5002 5.27744C19.8096 5.09881 20.1908 5.09881 20.5002 5.27744L32.5003 12.2057C32.8097 12.3844 33.0003 12.7145 33.0003 13.0718V26.9284C33.0003 27.2856 32.8097 27.6157 32.5003 27.7944L20.5002 34.7227C20.1908 34.9013 19.8096 34.9013 19.5002 34.7227L7.5 27.7944C7.1906 27.6157 7 27.2856 7 26.9284V13.0718C7 12.7145 7.1906 12.3844 7.5 12.2057L19.5002 5.27744Z" fill="url(#paint0_linear)"/>
<path fill-rule="evenodd" clip-rule="evenodd" d="M22.9978 13.3959L20.5802 12.0001V15.7181L13 20.0945V22.8792L13.0024 22.8835L15.4917 21.4475L23.3769 26.0001L25.7919 24.6058L25.7932 24.6035L22.9978 22.9896V13.3959ZM17.9093 20.0517L20.5802 21.5938V18.5097L17.9093 20.0517Z" fill="url(#paint1_linear)"/>
<defs>
<linearGradient id="paint0_linear" x1="20.0002" y1="3.87682" x2="20.0002" y2="35.0113" gradientUnits="userSpaceOnUse">
<stop stop-color="#11D96A"/>
<stop offset="1" stop-color="#00BE63"/>
</linearGradient>
<linearGradient id="paint1_linear" x1="19.3966" y1="12.0001" x2="19.3966" y2="26.0001" gradientUnits="userSpaceOnUse">
<stop offset="0.333333" stop-color="white"/>
<stop offset="1" stop-color="white" stop-opacity="0.7"/>
</linearGradient>
</defs>
</svg>
