<svg width="40" height="40" viewBox="0 0 40 40" fill="none" xmlns="http://www.w3.org/2000/svg">
<circle cx="20" cy="20" r="16" fill="#0099F7"/>
<circle cx="20" cy="20" r="13" fill="url(#paint0_linear)"/>
<path fill-rule="evenodd" clip-rule="evenodd" d="M17.3588 21.6789H23.0001V21.7143L24.8558 22.8059C25.4218 23.1388 26.1353 22.7307 26.1353 22.0741V19.3298C26.1353 19.029 25.976 18.7506 25.7167 18.598L23.5 17.2941V12.9115C23.5 12.6489 23.3785 12.4011 23.171 12.2403L20.52 10.1864C20.2139 9.94926 19.7861 9.94926 19.48 10.1864L16.829 12.2403C16.6215 12.4011 16.5 12.6489 16.5 12.9115V17.5052L14.6422 18.598C14.3829 18.7506 14.2236 19.029 14.2236 19.3298V22.0741C14.2236 22.7307 14.9371 23.1388 15.5031 22.8059L17.3588 21.7143V21.6789ZM17.0011 22.4507C17.0004 22.4771 17.0001 22.5035 17.0001 22.53C17.0001 23.8363 17.8349 24.9475 19.0001 25.3593V27C19.0001 27.5523 19.4478 28 20.0001 28C20.5524 28 21.0001 27.5523 21.0001 27V25.3593C22.1653 24.9475 23.0001 23.8363 23.0001 22.53C23.0001 22.5035 22.9997 22.4771 22.9991 22.4507H20.9989C20.9997 22.467 21.0001 22.4835 21.0001 22.5C21.0001 23.0523 20.5524 23.5 20.0001 23.5C19.4478 23.5 19.0001 23.0523 19.0001 22.5C19.0001 22.4835 19.0005 22.467 19.0013 22.4507H17.0011Z" fill="url(#paint1_linear)"/>
<path fill-rule="evenodd" clip-rule="evenodd" d="M10.8073 10.808C8.45495 13.1605 7 16.4104 7 20C7 27.1798 12.8203 33 20 33C27.1797 33 33 27.1798 33 20C33 16.4101 31.5448 13.1599 29.1921 10.8074L27.7779 12.2216C29.7687 14.2122 31 16.9623 31 20C31 26.0752 26.0751 31 20 31C13.9249 31 9 26.0752 9 20C9 16.9626 10.2311 14.2128 12.2215 12.2222L10.8073 10.808Z" fill="url(#paint2_linear)"/>
<defs>
<linearGradient id="paint0_linear" x1="20" y1="7" x2="20" y2="33" gradientUnits="userSpaceOnUse">
<stop stop-color="#1FCEFF"/>
<stop offset="1" stop-color="#11B2FF"/>
</linearGradient>
<linearGradient id="paint1_linear" x1="20.1794" y1="10.0085" x2="20.1794" y2="28" gradientUnits="userSpaceOnUse">
<stop offset="0.333333" stop-color="white"/>
<stop offset="1" stop-color="white" stop-opacity="0.7"/>
</linearGradient>
<linearGradient id="paint2_linear" x1="20" y1="10.8074" x2="20" y2="33" gradientUnits="userSpaceOnUse">
<stop offset="0.333333" stop-color="white"/>
<stop offset="1" stop-color="white" stop-opacity="0.7"/>
</linearGradient>
</defs>
</svg>
