<svg width="40" height="40" viewBox="0 0 40 40" fill="none" xmlns="http://www.w3.org/2000/svg">
<path d="M13 9.5C13 7.84315 14.3431 6.5 16 6.5H24C25.6569 6.5 27 7.84315 27 9.5V14.5H13V9.5Z" stroke="#0036DB" stroke-width="3"/>
<path d="M5 13C5 11.3431 6.34315 10 8 10H32C33.6569 10 35 11.3431 35 13V17C35 17.5523 34.5523 18 34 18H6C5.44772 18 5 17.5523 5 17V13Z" fill="#1271FF"/>
<path d="M6 31C6 32.6569 7.34315 34 9 34H31C32.6569 34 34 32.6569 34 31V16H6V31Z" fill="url(#paint0_linear)"/>
<path fill-rule="evenodd" clip-rule="evenodd" d="M18.5 27V31H21.5V27H25.5V24H21.5V20H18.5V24H14.5V27H18.5Z" fill="url(#paint1_linear)"/>
<path d="M5 17H35C35 17.5523 34.5523 18 34 18H6C5.44772 18 5 17.5523 5 17Z" fill="#0036DB"/>
<defs>
<linearGradient id="paint0_linear" x1="20" y1="34" x2="20.4322" y2="16.5107" gradientUnits="userSpaceOnUse">
<stop stop-color="#2049EE"/>
<stop offset="1" stop-color="#1271FF"/>
</linearGradient>
<linearGradient id="paint1_linear" x1="20" y1="20" x2="20" y2="31" gradientUnits="userSpaceOnUse">
<stop offset="0.333333" stop-color="white"/>
<stop offset="1" stop-color="white" stop-opacity="0.7"/>
</linearGradient>
</defs>
</svg>
