<svg width="40" height="40" viewBox="0 0 40 40" fill="none" xmlns="http://www.w3.org/2000/svg">
<path fill-rule="evenodd" clip-rule="evenodd" d="M21.36 30.3103C16.5499 32.3198 10.3655 32.3085 5.44913 26.3388C5.41749 26.3727 5.32707 26.4111 5.37228 26.5241C6.47987 29.2343 9.56529 33.7506 15.6638 35.4301C18.0689 36.0923 21.256 36.4902 25.2365 35.1294C26.482 34.7045 27.8586 33.997 28.9436 33.2239C30.3337 32.2339 31.204 31.2303 31.482 30.9251C32.0222 30.3306 32.4246 29.0445 31.821 27.7967C31.0683 26.2371 29.1719 25.3804 27.2392 26.7208C25.4784 27.9324 23.8871 29.2909 21.36 30.3103Z" fill="#892EFF"/>
<path fill-rule="evenodd" clip-rule="evenodd" d="M28.2267 13.6486C32.361 16.8267 35.4306 22.1929 32.6955 29.4284C32.7407 29.4374 32.8176 29.4984 32.8944 29.4035C34.5761 27.3353 37.0761 22.1748 35.4984 16.0446C34.8745 13.6283 33.6381 10.6649 30.4758 7.89143C29.4857 7.02344 28.1883 6.18032 26.9767 5.622C25.4284 4.91224 24.1309 4.65456 23.7218 4.60483C22.9306 4.50763 21.6219 4.6862 20.8398 5.82996C19.861 7.25852 20.0622 9.32903 22.1824 10.3394C24.1151 11.2594 26.0839 11.9646 28.2267 13.6486Z" fill="url(#paint0_linear)"/>
<path fill-rule="evenodd" clip-rule="evenodd" d="M10.467 15.8037C11.2627 10.65 14.495 5.37881 22.1532 4.29835C22.1397 4.25314 22.1555 4.15142 22.0357 4.1356C19.4204 3.74455 13.6858 3.94347 9.07237 8.27436C7.2505 9.98321 5.25006 12.49 4.33687 16.5994C4.05206 17.881 3.93904 19.4248 4.03172 20.7562C4.15152 22.4583 4.55612 23.7241 4.66914 24.1174C4.89066 24.8882 5.78125 25.9031 7.16009 26.0387C8.8825 26.2105 10.6027 25.0396 10.4693 22.6911C10.3495 20.555 10.0195 18.4913 10.467 15.8037Z" fill="#C270FF"/>
<path fill-rule="evenodd" clip-rule="evenodd" d="M20.2139 13.0841C25.3088 13.0547 25.2523 17.9304 25.2229 18.8436C26.0005 19.863 26.9363 22.4986 26.5362 22.6727C26.1045 22.8558 25.4196 22.4738 25.18 22.1279C25.0586 21.9533 24.9994 22.0997 24.9457 22.2325C24.9424 22.2407 24.9391 22.2488 24.9359 22.2568C24.8748 22.4037 24.4115 23.3237 24.2645 23.5271C24.1606 23.674 24.1922 23.7237 24.3776 23.7712C24.7573 23.8707 24.9924 24.0538 25.2116 24.3612C25.4965 24.768 25.2162 25.1749 24.581 25.3964C22.716 26.0499 21.1847 25.5148 20.9404 25.4294C20.9304 25.4259 20.9225 25.4232 20.9169 25.4213C20.8678 25.4033 20.826 25.3872 20.7876 25.3724C20.7004 25.3388 20.6301 25.3116 20.5281 25.2834C20.5281 25.2834 20.4151 25.2427 20.2026 25.2427L19.9536 25.2592C19.9434 25.2604 19.9334 25.2617 19.9236 25.263C19.8995 25.2721 19.8522 25.2878 19.8006 25.3048C19.7116 25.3343 19.6095 25.3681 19.5901 25.3806C19.5651 25.395 19.4882 25.4299 19.366 25.472C19.3616 25.4754 19.3571 25.4789 19.3527 25.4823C19.3194 25.5086 19.208 25.539 19.042 25.5676C18.5001 25.7039 17.6013 25.8236 16.5188 25.5865C16.0909 25.5163 15.7116 25.3956 15.4671 25.202C15.4479 25.1869 15.4301 25.1717 15.4138 25.1568C15.1217 24.92 15.0402 24.6089 15.2705 24.2956C15.4784 24.0131 15.7904 23.8277 16.0141 23.7848C16.2379 23.7418 16.2741 23.6469 16.152 23.4615C16.0096 23.2423 15.5191 22.3065 15.4649 22.1596L15.4647 22.1592C15.4083 22.0058 15.3901 21.9563 15.2275 22.1324C14.9292 22.4512 14.511 22.7653 13.8984 22.6704C13.6453 22.632 14.2849 19.9783 15.2275 18.8843C15.1959 17.9688 15.119 13.057 20.2139 13.0841Z" fill="#892EFF"/>
<defs>
<linearGradient id="paint0_linear" x1="30.1032" y1="29.456" x2="30.1032" y2="4.58203" gradientUnits="userSpaceOnUse">
<stop stop-color="#A64CFF"/>
<stop offset="1" stop-color="#C270FF"/>
</linearGradient>
</defs>
</svg>
