<svg width="40" height="40" viewBox="0 0 40 40" fill="none" xmlns="http://www.w3.org/2000/svg">
<path d="M6 19C6 11.268 12.268 5 20 5C27.732 5 34 11.268 34 19V35H6V19Z" fill="#892EFF"/>
<path fill-rule="evenodd" clip-rule="evenodd" d="M27 17C27 13.134 23.866 10 20 10C16.134 10 13 13.134 13 17V28C13 31.866 16.134 35 20 35H27V17Z" fill="url(#paint0_linear)"/>
<path fill-rule="evenodd" clip-rule="evenodd" d="M17.7811 15.9755C17.3898 15.1056 16.5156 14.5 15.5 14.5C14.1193 14.5 13 15.6193 13 17C13 20.866 16.134 24 20 24C23.866 24 27 20.866 27 17C27 15.6193 25.8807 14.5 24.5 14.5C23.4844 14.5 22.6102 15.1056 22.2189 15.9755L20 15.5L17.7811 15.9755ZM16.5 17C16.5 17.5523 16.0523 18 15.5 18C14.9477 18 14.5 17.5523 14.5 17C14.5 16.4477 14.9477 16 15.5 16C16.0523 16 16.5 16.4477 16.5 17ZM25.5 17C25.5 17.5523 25.0523 18 24.5 18C23.9477 18 23.5 17.5523 23.5 17C23.5 16.4477 23.9477 16 24.5 16C25.0523 16 25.5 16.4477 25.5 17Z" fill="url(#paint1_linear)"/>
<path d="M16.4879 12.3417C16.2507 11.6896 16.7337 11 17.4277 11H22.5723C23.2663 11 23.7493 11.6896 23.5121 12.3417L20.9398 19.4156C20.6206 20.2932 19.3794 20.2932 19.0602 19.4156L16.4879 12.3417Z" fill="url(#paint2_linear)"/>
<path fill-rule="evenodd" clip-rule="evenodd" d="M20.0328 34.9999C20.011 34.6694 20 34.336 20 33.9999C20 28.6733 22.7764 23.9952 26.9611 21.3337L35 34.9999H20.0328Z" fill="#C270FF"/>
<defs>
<linearGradient id="paint0_linear" x1="25" y1="30.5" x2="18" y2="13.5" gradientUnits="userSpaceOnUse">
<stop stop-color="#A64CFF"/>
<stop offset="1" stop-color="#C270FF"/>
</linearGradient>
<linearGradient id="paint1_linear" x1="20" y1="14.5" x2="20" y2="24" gradientUnits="userSpaceOnUse">
<stop offset="0.333333" stop-color="white"/>
<stop offset="1" stop-color="white" stop-opacity="0.7"/>
</linearGradient>
<linearGradient id="paint2_linear" x1="20" y1="20.5" x2="19" y2="14" gradientUnits="userSpaceOnUse">
<stop stop-color="#A64CFF"/>
<stop offset="1" stop-color="#C270FF"/>
</linearGradient>
</defs>
</svg>
