<svg width="42" height="42" viewBox="0 0 42 42" fill="none" xmlns="http://www.w3.org/2000/svg">
<circle cx="21" cy="21" r="16" fill="#0036DB"/>
<circle cx="21" cy="21" r="13" fill="url(#paint0_linear)"/>
<path fill-rule="evenodd" clip-rule="evenodd" d="M27 21C27 24.3137 24.3137 27 21 27C17.6863 27 15 24.3137 15 21C15 17.6863 17.6863 15 21 15C24.3137 15 27 17.6863 27 21ZM25.9015 27.3231C24.5475 28.3742 22.8468 29 21 29C16.5817 29 13 25.4183 13 21C13 16.5817 16.5817 13 21 13C25.4183 13 29 16.5817 29 21C29 22.8474 28.3738 24.5485 27.3221 25.9027L30.9901 29.5706L29.5696 30.9911L25.9015 27.3231Z" fill="url(#paint1_linear)"/>
<path fill-rule="evenodd" clip-rule="evenodd" d="M24.5354 22.1504C25.3947 21.5487 25.6036 20.3642 25.0019 19.5049V19.5049L21.8899 21.6839C22.4916 22.5433 23.676 22.7521 24.5354 22.1504ZM20.0973 21.6839L20.0996 21.6807L20.0973 21.6839L16.9853 19.5049C16.3836 20.3642 16.5924 21.5487 17.4518 22.1504C18.3111 22.7521 19.4956 22.5433 20.0973 21.6839Z" fill="url(#paint2_linear)"/>
<path fill-rule="evenodd" clip-rule="evenodd" d="M22 5H20V8H22V5ZM22 34H20V37H22V34ZM5 22V20H8V22H5ZM34 20V22H37V20H34Z" fill="#1271FF"/>
<defs>
<linearGradient id="paint0_linear" x1="29.6667" y1="34" x2="30.0319" y2="7.99837" gradientUnits="userSpaceOnUse">
<stop stop-color="#2049EE"/>
<stop offset="1" stop-color="#1271FF"/>
</linearGradient>
<linearGradient id="paint1_linear" x1="21.995" y1="13" x2="21.995" y2="30.9911" gradientUnits="userSpaceOnUse">
<stop offset="0.333333" stop-color="white"/>
<stop offset="1" stop-color="white" stop-opacity="0.7"/>
</linearGradient>
<linearGradient id="paint2_linear" x1="20.9936" y1="19.5049" x2="20.9936" y2="22.4941" gradientUnits="userSpaceOnUse">
<stop offset="0.333333" stop-color="white"/>
<stop offset="1" stop-color="white" stop-opacity="0.7"/>
</linearGradient>
</defs>
</svg>
