<svg width="42" height="42" viewBox="0 0 42 42" fill="none" xmlns="http://www.w3.org/2000/svg">
<path d="M10 6.5H32C32.8284 6.5 33.5 7.17157 33.5 8V27.3118C33.5 27.8359 33.2265 28.322 32.7785 28.594L21.7785 35.2725C21.3001 35.563 20.6999 35.563 20.2215 35.2725L9.22153 28.594C8.77354 28.322 8.5 27.8359 8.5 27.3118V8C8.5 7.17157 9.17157 6.5 10 6.5Z" fill="#0036DB" stroke="#0036DB" stroke-width="3"/>
<path d="M10 9C10 8.44771 10.4477 8 11 8H31C31.5523 8 32 8.44772 32 9V26.7588C32 27.1082 31.8176 27.4323 31.519 27.6136L21.519 33.6849C21.2001 33.8785 20.7999 33.8785 20.481 33.6849L10.481 27.6136C10.1824 27.4323 10 27.1082 10 26.7588V9Z" fill="url(#paint0_linear)"/>
<path d="M14.0001 12.6364C14.0001 12.2849 14.285 12 14.6365 12H27.3636C27.7151 12 28 12.2849 28 12.6364V24.6243C28 24.8467 27.8839 25.0529 27.6939 25.1683L21.3303 29.0318C21.1274 29.155 20.8727 29.155 20.6698 29.0318L14.3062 25.1683C14.1162 25.0529 14.0001 24.8467 14.0001 24.6243V12.6364Z" fill="url(#paint1_linear)"/>
<path fill-rule="evenodd" clip-rule="evenodd" d="M16 14H26V16H16V14ZM16 18H26V20H16V18ZM23 22H16V24H23V22Z" fill="#1271FF"/>
<defs>
<linearGradient id="paint0_linear" x1="28.3333" y1="34" x2="28.765" y2="8.0004" gradientUnits="userSpaceOnUse">
<stop stop-color="#2049EE"/>
<stop offset="1" stop-color="#1271FF"/>
</linearGradient>
<linearGradient id="paint1_linear" x1="21" y1="12" x2="21" y2="29.2323" gradientUnits="userSpaceOnUse">
<stop offset="0.333333" stop-color="white"/>
<stop offset="1" stop-color="white" stop-opacity="0.7"/>
</linearGradient>
</defs>
</svg>
