<svg width="42" height="42" viewBox="0 0 42 42" fill="none" xmlns="http://www.w3.org/2000/svg">
<path fill-rule="evenodd" clip-rule="evenodd" d="M30.82 11.3218C32.98 11.3518 35.06 10.6518 37 9.92177L33.9919 20.3456C32.3556 21.0713 30.2503 21.7244 27.9666 21.8006C25.5692 21.8805 23.8024 20.8523 21.9311 19.5895L24.9805 9.13437C26.6675 10.2693 28.422 11.2854 30.82 11.3218ZM23.2408 7.95644C21.7747 6.99987 20.2124 6.17374 18.19 6.02177C15.97 5.85177 13.54 6.71177 11.62 7.41177C10.5412 11.1875 9.58962 14.5042 8.65181 17.7711C10.3201 17.177 12.2177 16.6579 13.9094 16.5041C16.4675 16.2716 18.4541 17.2838 20.191 18.4126L23.2408 7.95644ZM7.96098 20.1776C7.0255 23.4364 6.07601 26.7457 5 30.5118C5 30.5118 8.82 28.8418 11.66 29.1718C12.9386 29.2319 14.6244 29.8464 16.5388 30.9345L19.6041 20.425C17.782 19.2003 16.1888 18.3051 14.0905 18.4959C12.6154 18.63 10.8712 19.1003 9.26717 19.675C8.81126 19.8384 8.37268 20.008 7.96098 20.1776ZM18.303 32.0288C18.3685 32.0727 18.4341 32.117 18.5 32.1618C20.67 33.6418 22.4 34.2518 24.14 34.2518C27.39 34.2618 30.38 32.8618 30.38 32.8618L32.9373 24H28V23.8005C25.2334 23.8834 23.1359 22.7755 21.3439 21.6027L18.303 32.0288Z" fill="url(#paint0_linear)"/>
<path d="M25 25C25 24.4477 25.4477 24 26 24H36C36.5523 24 37 24.4477 37 25V32.7772C37 33.1258 36.8185 33.4492 36.5209 33.6308L31.5209 36.6821C31.2011 36.8773 30.7989 36.8773 30.4791 36.6821L25.4791 33.6308C25.1815 33.4492 25 33.1258 25 32.7772L25 25Z" fill="#0036DB"/>
<path fill-rule="evenodd" clip-rule="evenodd" d="M30 30.5V33H32V30.5H34.5V28.5H32V26H30V28.5H27.5V30.5H30Z" fill="url(#paint1_linear)"/>
<defs>
<linearGradient id="paint0_linear" x1="31.6667" y1="34.2518" x2="32.0171" y2="5.997" gradientUnits="userSpaceOnUse">
<stop stop-color="#2049EE"/>
<stop offset="1" stop-color="#1271FF"/>
</linearGradient>
<linearGradient id="paint1_linear" x1="31" y1="26" x2="31" y2="33" gradientUnits="userSpaceOnUse">
<stop offset="0.333333" stop-color="white"/>
<stop offset="1" stop-color="white" stop-opacity="0.7"/>
</linearGradient>
</defs>
</svg>
