<svg width="42" height="42" viewBox="0 0 42 42" fill="none" xmlns="http://www.w3.org/2000/svg">
<circle cx="21" cy="21" r="16" fill="#0036DB"/>
<circle cx="21" cy="21" r="13" fill="url(#paint0_linear)"/>
<path fill-rule="evenodd" clip-rule="evenodd" d="M22 5H20V8H22V5ZM22 34H20V37H22V34ZM5 22V20H8V22H5ZM34 20V22H37V20H34Z" fill="#1271FF"/>
<path fill-rule="evenodd" clip-rule="evenodd" d="M16.6343 15.4381C16.3581 14.9598 16.522 14.3482 17.0003 14.072L18.7323 13.072C19.2106 12.7959 19.8222 12.9598 20.0984 13.4381L21.8304 12.4381C22.3087 12.1619 22.9203 12.3258 23.1964 12.8041L24.6964 15.4022C24.9726 15.8805 24.8087 16.492 24.3304 16.7682L22.5984 17.7682L23.0984 18.6342L19.6343 20.6342L19.1343 19.7682L14.8041 22.2682L14.4134 18.7989C14.2799 17.6135 14.8615 16.4616 15.8946 15.8651L16.6343 15.4381ZM23.5984 19.5002L20.1343 21.5002L23.6343 27.5624C23.9104 28.0407 24.522 28.2046 25.0003 27.9284L26.7323 26.9284C27.2106 26.6523 27.3745 26.0407 27.0984 25.5624L23.5984 19.5002Z" fill="url(#paint1_linear)"/>
<defs>
<linearGradient id="paint0_linear" x1="29.6667" y1="34" x2="30.0319" y2="7.99837" gradientUnits="userSpaceOnUse">
<stop stop-color="#2049EE"/>
<stop offset="1" stop-color="#1271FF"/>
</linearGradient>
<linearGradient id="paint1_linear" x1="14.4022" y1="9.57203" x2="27.5984" y2="32.4284" gradientUnits="userSpaceOnUse">
<stop offset="0.333333" stop-color="white"/>
<stop offset="1" stop-color="white" stop-opacity="0.7"/>
</linearGradient>
</defs>
</svg>
